G04 DipTrace 3.3.1.3*
G04 Bottom.gbr*
%MOIN*%
G04 #@! TF.FileFunction,Copper,L2,Bot*
G04 #@! TF.Part,Single*
G04 #@! TA.AperFunction,Conductor*
%ADD14C,0.012*%
G04 #@! TA.AperFunction,CopperBalancing*
%ADD15C,0.025*%
G04 #@! TA.AperFunction,ComponentPad*
%ADD25R,0.059055X0.059055*%
%ADD26C,0.059055*%
G04 #@! TA.AperFunction,ViaPad*
%ADD27C,0.04*%
%FSLAX26Y26*%
G04*
G70*
G90*
G75*
G01*
G04 Bottom*
%LPD*%
X665157Y515157D2*
D14*
X668700Y518700D1*
Y918700D1*
X443700Y1143700D1*
X706200Y543700D2*
Y806200D1*
X843700Y943700D1*
X943700D1*
X519881Y617519D2*
X518700Y616338D1*
Y518700D1*
X443700Y443700D1*
D27*
X665157Y515157D3*
X706200Y543700D3*
X519881Y617519D3*
X658700Y1128700D3*
X593700Y918700D3*
X543700Y793700D3*
X818700Y768700D3*
X656200Y443700D3*
X743700Y631200D3*
X502245Y1143831D2*
D15*
X885188D1*
X516885Y1118962D2*
X885188D1*
X541752Y1094094D2*
X885188D1*
X566621Y1069225D2*
X966214D1*
X591489Y1044356D2*
X966214D1*
X496718Y1019487D2*
X519457D1*
X616392D2*
X966214D1*
X473214Y994619D2*
X544325D1*
X641260D2*
X917843D1*
X495821Y969750D2*
X569192D1*
X666128D2*
X821781D1*
X502209Y944881D2*
X594060D1*
X690995D2*
X796411D1*
X496969Y920012D2*
X618928D1*
X703662D2*
X771543D1*
X474148Y895144D2*
X633712D1*
X703699D2*
X746675D1*
X843611D2*
X913250D1*
X495535Y870275D2*
X633712D1*
X703699D2*
X721808D1*
X818743D2*
X891863D1*
X502209Y845406D2*
X633712D1*
X793876D2*
X885188D1*
X497221Y820537D2*
X633712D1*
X769007D2*
X890176D1*
X475044Y795669D2*
X633712D1*
X744140D2*
X912352D1*
X495247Y770800D2*
X633712D1*
X741197D2*
X892150D1*
X502172Y745931D2*
X633712D1*
X741197D2*
X885224D1*
X497436Y721062D2*
X633712D1*
X741197D2*
X889961D1*
X475906Y696193D2*
X633712D1*
X741197D2*
X911491D1*
X494960Y671325D2*
X633712D1*
X741197D2*
X966214D1*
X558798Y646456D2*
X633712D1*
X741197D2*
X966214D1*
X568701Y621587D2*
X633712D1*
X741197D2*
X966214D1*
X563965Y596718D2*
X633712D1*
X741197D2*
X923082D1*
X553703Y571850D2*
X633712D1*
X745718D2*
X892760D1*
X553703Y546981D2*
X628760D1*
X755085D2*
X885260D1*
X553703Y522112D2*
X616667D1*
X749881D2*
X889494D1*
X545592Y497243D2*
X619752D1*
X710696D2*
X909877D1*
X520833Y472375D2*
X644441D1*
X685864D2*
X966214D1*
X502100Y447506D2*
X966214D1*
X498117Y422637D2*
X966214D1*
X499728Y1168688D2*
Y1133665D1*
X693414Y939808D1*
X696411Y935682D1*
X698726Y931137D1*
X700302Y926287D1*
X701100Y921250D1*
X701200Y854396D1*
Y847183D1*
X822592Y968413D1*
X826718Y971411D1*
X831263Y973726D1*
X836113Y975302D1*
X841150Y976100D1*
X898065Y976200D1*
X904082Y983318D1*
X910768Y989027D1*
X918264Y993621D1*
X926386Y996985D1*
X934935Y999037D1*
X943700Y999728D1*
X952465Y999037D1*
X961014Y996985D1*
X968714Y993815D1*
X968700Y1087676D1*
X887672Y1087672D1*
Y1168735D1*
X499742Y1168700D1*
X499653Y1041794D2*
X499037Y1034935D1*
X496985Y1026386D1*
X493621Y1018264D1*
X489027Y1010768D1*
X483318Y1004082D1*
X476632Y998373D1*
X468964Y993700D1*
X476632Y989027D1*
X483318Y983318D1*
X489027Y976632D1*
X493621Y969136D1*
X496985Y961014D1*
X499037Y952465D1*
X499728Y943700D1*
X499037Y934935D1*
X496985Y926386D1*
X493621Y918264D1*
X489027Y910768D1*
X483318Y904082D1*
X476632Y898373D1*
X468964Y893700D1*
X476632Y889027D1*
X483318Y883318D1*
X489027Y876632D1*
X493621Y869136D1*
X496985Y861014D1*
X499037Y852465D1*
X499728Y843700D1*
X499037Y834935D1*
X496985Y826386D1*
X493621Y818264D1*
X489027Y810768D1*
X483318Y804082D1*
X476632Y798373D1*
X468964Y793700D1*
X476632Y789027D1*
X483318Y783318D1*
X489027Y776632D1*
X493621Y769136D1*
X496985Y761014D1*
X499037Y752465D1*
X499728Y743700D1*
X499037Y734935D1*
X496985Y726386D1*
X493621Y718264D1*
X489027Y710768D1*
X483318Y704082D1*
X476632Y698373D1*
X468964Y693700D1*
X476632Y689027D1*
X483318Y683318D1*
X489027Y676632D1*
X493621Y669136D1*
X496985Y661014D1*
X497728Y658384D1*
X502086Y660480D1*
X509025Y662734D1*
X516233Y663876D1*
X523529D1*
X530737Y662734D1*
X537676Y660480D1*
X544178Y657167D1*
X550081Y652877D1*
X555239Y647718D1*
X559529Y641815D1*
X562842Y635314D1*
X565096Y628375D1*
X566238Y621167D1*
Y613871D1*
X565096Y606663D1*
X562842Y599724D1*
X559529Y593222D1*
X555239Y587319D1*
X551201Y583196D1*
X551100Y516150D1*
X550302Y511113D1*
X548726Y506263D1*
X546411Y501718D1*
X543413Y497592D1*
X498977Y453015D1*
X499728Y443700D1*
X499037Y434935D1*
X496985Y426386D1*
X493815Y418686D1*
X968684Y418700D1*
X968700Y493578D1*
X961014Y490415D1*
X952465Y488363D1*
X943700Y487672D1*
X934935Y488363D1*
X926386Y490415D1*
X918264Y493779D1*
X910768Y498373D1*
X904082Y504082D1*
X898373Y510768D1*
X893779Y518264D1*
X890415Y526386D1*
X888363Y534935D1*
X887672Y543700D1*
X888363Y552465D1*
X890415Y561014D1*
X893779Y569136D1*
X898373Y576632D1*
X904082Y583318D1*
X910768Y589027D1*
X918264Y593621D1*
X926386Y596985D1*
X934935Y599037D1*
X943700Y599728D1*
X952465Y599037D1*
X961014Y596985D1*
X968714Y593815D1*
X968700Y693524D1*
X961014Y690415D1*
X952465Y688363D1*
X943700Y687672D1*
X934935Y688363D1*
X926386Y690415D1*
X918264Y693779D1*
X910768Y698373D1*
X904082Y704082D1*
X898373Y710768D1*
X893779Y718264D1*
X890415Y726386D1*
X888363Y734935D1*
X887672Y743700D1*
X888363Y752465D1*
X890415Y761014D1*
X893779Y769136D1*
X898373Y776632D1*
X904082Y783318D1*
X910768Y789027D1*
X918436Y793700D1*
X910768Y798373D1*
X904082Y804082D1*
X898373Y810768D1*
X893779Y818264D1*
X890415Y826386D1*
X888363Y834935D1*
X887672Y843700D1*
X888363Y852465D1*
X890415Y861014D1*
X893779Y869136D1*
X898373Y876632D1*
X904082Y883318D1*
X910768Y889027D1*
X918436Y893700D1*
X910768Y898373D1*
X904082Y904082D1*
X898373Y910768D1*
X897768Y911200D1*
X857183D1*
X738720Y792758D1*
X738700Y576936D1*
X743819Y571032D1*
X747632Y564810D1*
X750424Y558069D1*
X752128Y550974D1*
X752700Y543700D1*
X752128Y536426D1*
X750424Y529331D1*
X747632Y522590D1*
X743819Y516368D1*
X739081Y510819D1*
X733532Y506081D1*
X727310Y502268D1*
X720569Y499476D1*
X713474Y497772D1*
X708067Y497273D1*
X704805Y490860D1*
X700515Y484957D1*
X695356Y479798D1*
X689453Y475508D1*
X682952Y472196D1*
X676012Y469941D1*
X668805Y468800D1*
X661508D1*
X654301Y469941D1*
X647361Y472196D1*
X640860Y475508D1*
X634957Y479798D1*
X629798Y484957D1*
X625508Y490860D1*
X622196Y497361D1*
X619941Y504301D1*
X618800Y511508D1*
Y518805D1*
X619941Y526012D1*
X622196Y532952D1*
X625508Y539453D1*
X629798Y545356D1*
X634957Y550515D1*
X636200Y551495D1*
Y905209D1*
X499692Y1041746D1*
D25*
X943700Y1143700D3*
X443700D3*
D26*
Y1043700D3*
Y943700D3*
Y843700D3*
Y743700D3*
Y643700D3*
Y543700D3*
Y443700D3*
X943700Y1043700D3*
Y943700D3*
Y843700D3*
Y743700D3*
Y643700D3*
Y543700D3*
Y443700D3*
X1265157Y515157D2*
D14*
X1268700Y518700D1*
Y918700D1*
X1043700Y1143700D1*
X1306200Y543700D2*
Y806200D1*
X1443700Y943700D1*
X1543700D1*
X1119881Y617519D2*
X1118700Y616338D1*
Y518700D1*
X1043700Y443700D1*
D27*
X1265157Y515157D3*
X1306200Y543700D3*
X1119881Y617519D3*
X1258700Y1128700D3*
X1193700Y918700D3*
X1143700Y793700D3*
X1418700Y768700D3*
X1256200Y443700D3*
X1343700Y631200D3*
X1102245Y1143831D2*
D15*
X1485188D1*
X1116885Y1118962D2*
X1485188D1*
X1141752Y1094094D2*
X1485188D1*
X1166621Y1069225D2*
X1566214D1*
X1191489Y1044356D2*
X1566214D1*
X1096718Y1019487D2*
X1119457D1*
X1216392D2*
X1566214D1*
X1073214Y994619D2*
X1144325D1*
X1241260D2*
X1517843D1*
X1095821Y969750D2*
X1169192D1*
X1266128D2*
X1421781D1*
X1102209Y944881D2*
X1194060D1*
X1290995D2*
X1396411D1*
X1096969Y920012D2*
X1218928D1*
X1303662D2*
X1371543D1*
X1074148Y895144D2*
X1233712D1*
X1303699D2*
X1346675D1*
X1443611D2*
X1513250D1*
X1095535Y870275D2*
X1233712D1*
X1303699D2*
X1321808D1*
X1418743D2*
X1491863D1*
X1102209Y845406D2*
X1233712D1*
X1393876D2*
X1485188D1*
X1097221Y820537D2*
X1233712D1*
X1369007D2*
X1490176D1*
X1075044Y795669D2*
X1233712D1*
X1344140D2*
X1512352D1*
X1095247Y770800D2*
X1233712D1*
X1341197D2*
X1492150D1*
X1102172Y745931D2*
X1233712D1*
X1341197D2*
X1485224D1*
X1097436Y721062D2*
X1233712D1*
X1341197D2*
X1489961D1*
X1075906Y696193D2*
X1233712D1*
X1341197D2*
X1511491D1*
X1094960Y671325D2*
X1233712D1*
X1341197D2*
X1566214D1*
X1158798Y646456D2*
X1233712D1*
X1341197D2*
X1566214D1*
X1168701Y621587D2*
X1233712D1*
X1341197D2*
X1566214D1*
X1163965Y596718D2*
X1233712D1*
X1341197D2*
X1523082D1*
X1153703Y571850D2*
X1233712D1*
X1345718D2*
X1492760D1*
X1153703Y546981D2*
X1228760D1*
X1355085D2*
X1485260D1*
X1153703Y522112D2*
X1216667D1*
X1349881D2*
X1489494D1*
X1145592Y497243D2*
X1219752D1*
X1310696D2*
X1509877D1*
X1120833Y472375D2*
X1244441D1*
X1285864D2*
X1566214D1*
X1102100Y447506D2*
X1566214D1*
X1098117Y422637D2*
X1566214D1*
X1099728Y1168688D2*
Y1133665D1*
X1293414Y939808D1*
X1296411Y935682D1*
X1298726Y931137D1*
X1300302Y926287D1*
X1301100Y921250D1*
X1301200Y854396D1*
Y847183D1*
X1422592Y968413D1*
X1426718Y971411D1*
X1431263Y973726D1*
X1436113Y975302D1*
X1441150Y976100D1*
X1498065Y976200D1*
X1504082Y983318D1*
X1510768Y989027D1*
X1518264Y993621D1*
X1526386Y996985D1*
X1534935Y999037D1*
X1543700Y999728D1*
X1552465Y999037D1*
X1561014Y996985D1*
X1568714Y993815D1*
X1568700Y1087676D1*
X1487672Y1087672D1*
Y1168735D1*
X1099742Y1168700D1*
X1099653Y1041794D2*
X1099037Y1034935D1*
X1096985Y1026386D1*
X1093621Y1018264D1*
X1089027Y1010768D1*
X1083318Y1004082D1*
X1076632Y998373D1*
X1068964Y993700D1*
X1076632Y989027D1*
X1083318Y983318D1*
X1089027Y976632D1*
X1093621Y969136D1*
X1096985Y961014D1*
X1099037Y952465D1*
X1099728Y943700D1*
X1099037Y934935D1*
X1096985Y926386D1*
X1093621Y918264D1*
X1089027Y910768D1*
X1083318Y904082D1*
X1076632Y898373D1*
X1068964Y893700D1*
X1076632Y889027D1*
X1083318Y883318D1*
X1089027Y876632D1*
X1093621Y869136D1*
X1096985Y861014D1*
X1099037Y852465D1*
X1099728Y843700D1*
X1099037Y834935D1*
X1096985Y826386D1*
X1093621Y818264D1*
X1089027Y810768D1*
X1083318Y804082D1*
X1076632Y798373D1*
X1068964Y793700D1*
X1076632Y789027D1*
X1083318Y783318D1*
X1089027Y776632D1*
X1093621Y769136D1*
X1096985Y761014D1*
X1099037Y752465D1*
X1099728Y743700D1*
X1099037Y734935D1*
X1096985Y726386D1*
X1093621Y718264D1*
X1089027Y710768D1*
X1083318Y704082D1*
X1076632Y698373D1*
X1068964Y693700D1*
X1076632Y689027D1*
X1083318Y683318D1*
X1089027Y676632D1*
X1093621Y669136D1*
X1096985Y661014D1*
X1097728Y658384D1*
X1102086Y660480D1*
X1109025Y662734D1*
X1116233Y663876D1*
X1123529D1*
X1130737Y662734D1*
X1137676Y660480D1*
X1144178Y657167D1*
X1150081Y652877D1*
X1155239Y647718D1*
X1159529Y641815D1*
X1162842Y635314D1*
X1165096Y628375D1*
X1166238Y621167D1*
Y613871D1*
X1165096Y606663D1*
X1162842Y599724D1*
X1159529Y593222D1*
X1155239Y587319D1*
X1151201Y583196D1*
X1151100Y516150D1*
X1150302Y511113D1*
X1148726Y506263D1*
X1146411Y501718D1*
X1143413Y497592D1*
X1098977Y453015D1*
X1099728Y443700D1*
X1099037Y434935D1*
X1096985Y426386D1*
X1093815Y418686D1*
X1568684Y418700D1*
X1568700Y493578D1*
X1561014Y490415D1*
X1552465Y488363D1*
X1543700Y487672D1*
X1534935Y488363D1*
X1526386Y490415D1*
X1518264Y493779D1*
X1510768Y498373D1*
X1504082Y504082D1*
X1498373Y510768D1*
X1493779Y518264D1*
X1490415Y526386D1*
X1488363Y534935D1*
X1487672Y543700D1*
X1488363Y552465D1*
X1490415Y561014D1*
X1493779Y569136D1*
X1498373Y576632D1*
X1504082Y583318D1*
X1510768Y589027D1*
X1518264Y593621D1*
X1526386Y596985D1*
X1534935Y599037D1*
X1543700Y599728D1*
X1552465Y599037D1*
X1561014Y596985D1*
X1568714Y593815D1*
X1568700Y693524D1*
X1561014Y690415D1*
X1552465Y688363D1*
X1543700Y687672D1*
X1534935Y688363D1*
X1526386Y690415D1*
X1518264Y693779D1*
X1510768Y698373D1*
X1504082Y704082D1*
X1498373Y710768D1*
X1493779Y718264D1*
X1490415Y726386D1*
X1488363Y734935D1*
X1487672Y743700D1*
X1488363Y752465D1*
X1490415Y761014D1*
X1493779Y769136D1*
X1498373Y776632D1*
X1504082Y783318D1*
X1510768Y789027D1*
X1518436Y793700D1*
X1510768Y798373D1*
X1504082Y804082D1*
X1498373Y810768D1*
X1493779Y818264D1*
X1490415Y826386D1*
X1488363Y834935D1*
X1487672Y843700D1*
X1488363Y852465D1*
X1490415Y861014D1*
X1493779Y869136D1*
X1498373Y876632D1*
X1504082Y883318D1*
X1510768Y889027D1*
X1518436Y893700D1*
X1510768Y898373D1*
X1504082Y904082D1*
X1498373Y910768D1*
X1497768Y911200D1*
X1457183D1*
X1338720Y792758D1*
X1338700Y576936D1*
X1343819Y571032D1*
X1347632Y564810D1*
X1350424Y558069D1*
X1352128Y550974D1*
X1352700Y543700D1*
X1352128Y536426D1*
X1350424Y529331D1*
X1347632Y522590D1*
X1343819Y516368D1*
X1339081Y510819D1*
X1333532Y506081D1*
X1327310Y502268D1*
X1320569Y499476D1*
X1313474Y497772D1*
X1308067Y497273D1*
X1304805Y490860D1*
X1300515Y484957D1*
X1295356Y479798D1*
X1289453Y475508D1*
X1282952Y472196D1*
X1276012Y469941D1*
X1268805Y468800D1*
X1261508D1*
X1254301Y469941D1*
X1247361Y472196D1*
X1240860Y475508D1*
X1234957Y479798D1*
X1229798Y484957D1*
X1225508Y490860D1*
X1222196Y497361D1*
X1219941Y504301D1*
X1218800Y511508D1*
Y518805D1*
X1219941Y526012D1*
X1222196Y532952D1*
X1225508Y539453D1*
X1229798Y545356D1*
X1234957Y550515D1*
X1236200Y551495D1*
Y905209D1*
X1099692Y1041746D1*
D25*
X1543700Y1143700D3*
X1043700D3*
D26*
Y1043700D3*
Y943700D3*
Y843700D3*
Y743700D3*
Y643700D3*
Y543700D3*
Y443700D3*
X1543700Y1043700D3*
Y943700D3*
Y843700D3*
Y743700D3*
Y643700D3*
Y543700D3*
Y443700D3*
X1865157Y515157D2*
D14*
X1868700Y518700D1*
Y918700D1*
X1643700Y1143700D1*
X1906200Y543700D2*
Y806200D1*
X2043700Y943700D1*
X2143700D1*
X1719881Y617519D2*
X1718700Y616338D1*
Y518700D1*
X1643700Y443700D1*
D27*
X1865157Y515157D3*
X1906200Y543700D3*
X1719881Y617519D3*
X1858700Y1128700D3*
X1793700Y918700D3*
X1743700Y793700D3*
X2018700Y768700D3*
X1856200Y443700D3*
X1943700Y631200D3*
X1702245Y1143831D2*
D15*
X2085188D1*
X1716885Y1118962D2*
X2085188D1*
X1741752Y1094094D2*
X2085188D1*
X1766621Y1069225D2*
X2166214D1*
X1791489Y1044356D2*
X2166214D1*
X1696718Y1019487D2*
X1719457D1*
X1816392D2*
X2166214D1*
X1673214Y994619D2*
X1744325D1*
X1841260D2*
X2117843D1*
X1695821Y969750D2*
X1769192D1*
X1866128D2*
X2021781D1*
X1702209Y944881D2*
X1794060D1*
X1890995D2*
X1996411D1*
X1696969Y920012D2*
X1818928D1*
X1903662D2*
X1971543D1*
X1674148Y895144D2*
X1833712D1*
X1903699D2*
X1946675D1*
X2043611D2*
X2113250D1*
X1695535Y870275D2*
X1833712D1*
X1903699D2*
X1921808D1*
X2018743D2*
X2091863D1*
X1702209Y845406D2*
X1833712D1*
X1993876D2*
X2085188D1*
X1697221Y820537D2*
X1833712D1*
X1969007D2*
X2090176D1*
X1675044Y795669D2*
X1833712D1*
X1944140D2*
X2112352D1*
X1695247Y770800D2*
X1833712D1*
X1941197D2*
X2092150D1*
X1702172Y745931D2*
X1833712D1*
X1941197D2*
X2085224D1*
X1697436Y721062D2*
X1833712D1*
X1941197D2*
X2089961D1*
X1675906Y696193D2*
X1833712D1*
X1941197D2*
X2111491D1*
X1694960Y671325D2*
X1833712D1*
X1941197D2*
X2166214D1*
X1758798Y646456D2*
X1833712D1*
X1941197D2*
X2166214D1*
X1768701Y621587D2*
X1833712D1*
X1941197D2*
X2166214D1*
X1763965Y596718D2*
X1833712D1*
X1941197D2*
X2123082D1*
X1753703Y571850D2*
X1833712D1*
X1945718D2*
X2092760D1*
X1753703Y546981D2*
X1828760D1*
X1955085D2*
X2085260D1*
X1753703Y522112D2*
X1816667D1*
X1949881D2*
X2089494D1*
X1745592Y497243D2*
X1819752D1*
X1910696D2*
X2109877D1*
X1720833Y472375D2*
X1844441D1*
X1885864D2*
X2166214D1*
X1702100Y447506D2*
X2166214D1*
X1698117Y422637D2*
X2166214D1*
X1699728Y1168688D2*
Y1133665D1*
X1893414Y939808D1*
X1896411Y935682D1*
X1898726Y931137D1*
X1900302Y926287D1*
X1901100Y921250D1*
X1901200Y854396D1*
Y847183D1*
X2022592Y968413D1*
X2026718Y971411D1*
X2031263Y973726D1*
X2036113Y975302D1*
X2041150Y976100D1*
X2098065Y976200D1*
X2104082Y983318D1*
X2110768Y989027D1*
X2118264Y993621D1*
X2126386Y996985D1*
X2134935Y999037D1*
X2143700Y999728D1*
X2152465Y999037D1*
X2161014Y996985D1*
X2168714Y993815D1*
X2168700Y1087676D1*
X2087672Y1087672D1*
Y1168735D1*
X1699742Y1168700D1*
X1699653Y1041794D2*
X1699037Y1034935D1*
X1696985Y1026386D1*
X1693621Y1018264D1*
X1689027Y1010768D1*
X1683318Y1004082D1*
X1676632Y998373D1*
X1668964Y993700D1*
X1676632Y989027D1*
X1683318Y983318D1*
X1689027Y976632D1*
X1693621Y969136D1*
X1696985Y961014D1*
X1699037Y952465D1*
X1699728Y943700D1*
X1699037Y934935D1*
X1696985Y926386D1*
X1693621Y918264D1*
X1689027Y910768D1*
X1683318Y904082D1*
X1676632Y898373D1*
X1668964Y893700D1*
X1676632Y889027D1*
X1683318Y883318D1*
X1689027Y876632D1*
X1693621Y869136D1*
X1696985Y861014D1*
X1699037Y852465D1*
X1699728Y843700D1*
X1699037Y834935D1*
X1696985Y826386D1*
X1693621Y818264D1*
X1689027Y810768D1*
X1683318Y804082D1*
X1676632Y798373D1*
X1668964Y793700D1*
X1676632Y789027D1*
X1683318Y783318D1*
X1689027Y776632D1*
X1693621Y769136D1*
X1696985Y761014D1*
X1699037Y752465D1*
X1699728Y743700D1*
X1699037Y734935D1*
X1696985Y726386D1*
X1693621Y718264D1*
X1689027Y710768D1*
X1683318Y704082D1*
X1676632Y698373D1*
X1668964Y693700D1*
X1676632Y689027D1*
X1683318Y683318D1*
X1689027Y676632D1*
X1693621Y669136D1*
X1696985Y661014D1*
X1697728Y658384D1*
X1702086Y660480D1*
X1709025Y662734D1*
X1716233Y663876D1*
X1723529D1*
X1730737Y662734D1*
X1737676Y660480D1*
X1744178Y657167D1*
X1750081Y652877D1*
X1755239Y647718D1*
X1759529Y641815D1*
X1762842Y635314D1*
X1765096Y628375D1*
X1766238Y621167D1*
Y613871D1*
X1765096Y606663D1*
X1762842Y599724D1*
X1759529Y593222D1*
X1755239Y587319D1*
X1751201Y583196D1*
X1751100Y516150D1*
X1750302Y511113D1*
X1748726Y506263D1*
X1746411Y501718D1*
X1743413Y497592D1*
X1698977Y453015D1*
X1699728Y443700D1*
X1699037Y434935D1*
X1696985Y426386D1*
X1693815Y418686D1*
X2168684Y418700D1*
X2168700Y493578D1*
X2161014Y490415D1*
X2152465Y488363D1*
X2143700Y487672D1*
X2134935Y488363D1*
X2126386Y490415D1*
X2118264Y493779D1*
X2110768Y498373D1*
X2104082Y504082D1*
X2098373Y510768D1*
X2093779Y518264D1*
X2090415Y526386D1*
X2088363Y534935D1*
X2087672Y543700D1*
X2088363Y552465D1*
X2090415Y561014D1*
X2093779Y569136D1*
X2098373Y576632D1*
X2104082Y583318D1*
X2110768Y589027D1*
X2118264Y593621D1*
X2126386Y596985D1*
X2134935Y599037D1*
X2143700Y599728D1*
X2152465Y599037D1*
X2161014Y596985D1*
X2168714Y593815D1*
X2168700Y693524D1*
X2161014Y690415D1*
X2152465Y688363D1*
X2143700Y687672D1*
X2134935Y688363D1*
X2126386Y690415D1*
X2118264Y693779D1*
X2110768Y698373D1*
X2104082Y704082D1*
X2098373Y710768D1*
X2093779Y718264D1*
X2090415Y726386D1*
X2088363Y734935D1*
X2087672Y743700D1*
X2088363Y752465D1*
X2090415Y761014D1*
X2093779Y769136D1*
X2098373Y776632D1*
X2104082Y783318D1*
X2110768Y789027D1*
X2118436Y793700D1*
X2110768Y798373D1*
X2104082Y804082D1*
X2098373Y810768D1*
X2093779Y818264D1*
X2090415Y826386D1*
X2088363Y834935D1*
X2087672Y843700D1*
X2088363Y852465D1*
X2090415Y861014D1*
X2093779Y869136D1*
X2098373Y876632D1*
X2104082Y883318D1*
X2110768Y889027D1*
X2118436Y893700D1*
X2110768Y898373D1*
X2104082Y904082D1*
X2098373Y910768D1*
X2097768Y911200D1*
X2057183D1*
X1938720Y792758D1*
X1938700Y576936D1*
X1943819Y571032D1*
X1947632Y564810D1*
X1950424Y558069D1*
X1952128Y550974D1*
X1952700Y543700D1*
X1952128Y536426D1*
X1950424Y529331D1*
X1947632Y522590D1*
X1943819Y516368D1*
X1939081Y510819D1*
X1933532Y506081D1*
X1927310Y502268D1*
X1920569Y499476D1*
X1913474Y497772D1*
X1908067Y497273D1*
X1904805Y490860D1*
X1900515Y484957D1*
X1895356Y479798D1*
X1889453Y475508D1*
X1882952Y472196D1*
X1876012Y469941D1*
X1868805Y468800D1*
X1861508D1*
X1854301Y469941D1*
X1847361Y472196D1*
X1840860Y475508D1*
X1834957Y479798D1*
X1829798Y484957D1*
X1825508Y490860D1*
X1822196Y497361D1*
X1819941Y504301D1*
X1818800Y511508D1*
Y518805D1*
X1819941Y526012D1*
X1822196Y532952D1*
X1825508Y539453D1*
X1829798Y545356D1*
X1834957Y550515D1*
X1836200Y551495D1*
Y905209D1*
X1699692Y1041746D1*
D25*
X2143700Y1143700D3*
X1643700D3*
D26*
Y1043700D3*
Y943700D3*
Y843700D3*
Y743700D3*
Y643700D3*
Y543700D3*
Y443700D3*
X2143700Y1043700D3*
Y943700D3*
Y843700D3*
Y743700D3*
Y643700D3*
Y543700D3*
Y443700D3*
X2465157Y515157D2*
D14*
X2468700Y518700D1*
Y918700D1*
X2243700Y1143700D1*
X2506200Y543700D2*
Y806200D1*
X2643700Y943700D1*
X2743700D1*
X2319881Y617519D2*
X2318700Y616338D1*
Y518700D1*
X2243700Y443700D1*
D27*
X2465157Y515157D3*
X2506200Y543700D3*
X2319881Y617519D3*
X2458700Y1128700D3*
X2393700Y918700D3*
X2343700Y793700D3*
X2618700Y768700D3*
X2456200Y443700D3*
X2543700Y631200D3*
X2302245Y1143831D2*
D15*
X2685188D1*
X2316885Y1118962D2*
X2685188D1*
X2341752Y1094094D2*
X2685188D1*
X2366621Y1069225D2*
X2766214D1*
X2391489Y1044356D2*
X2766214D1*
X2296718Y1019487D2*
X2319457D1*
X2416392D2*
X2766214D1*
X2273214Y994619D2*
X2344325D1*
X2441260D2*
X2717843D1*
X2295821Y969750D2*
X2369192D1*
X2466128D2*
X2621781D1*
X2302209Y944881D2*
X2394060D1*
X2490995D2*
X2596411D1*
X2296969Y920012D2*
X2418928D1*
X2503662D2*
X2571543D1*
X2274148Y895144D2*
X2433712D1*
X2503699D2*
X2546675D1*
X2643611D2*
X2713250D1*
X2295535Y870275D2*
X2433712D1*
X2503699D2*
X2521808D1*
X2618743D2*
X2691863D1*
X2302209Y845406D2*
X2433712D1*
X2593876D2*
X2685188D1*
X2297221Y820537D2*
X2433712D1*
X2569007D2*
X2690176D1*
X2275044Y795669D2*
X2433712D1*
X2544140D2*
X2712352D1*
X2295247Y770800D2*
X2433712D1*
X2541197D2*
X2692150D1*
X2302172Y745931D2*
X2433712D1*
X2541197D2*
X2685224D1*
X2297436Y721062D2*
X2433712D1*
X2541197D2*
X2689961D1*
X2275906Y696193D2*
X2433712D1*
X2541197D2*
X2711491D1*
X2294960Y671325D2*
X2433712D1*
X2541197D2*
X2766214D1*
X2358798Y646456D2*
X2433712D1*
X2541197D2*
X2766214D1*
X2368701Y621587D2*
X2433712D1*
X2541197D2*
X2766214D1*
X2363965Y596718D2*
X2433712D1*
X2541197D2*
X2723082D1*
X2353703Y571850D2*
X2433712D1*
X2545718D2*
X2692760D1*
X2353703Y546981D2*
X2428760D1*
X2555085D2*
X2685260D1*
X2353703Y522112D2*
X2416667D1*
X2549881D2*
X2689494D1*
X2345592Y497243D2*
X2419752D1*
X2510696D2*
X2709877D1*
X2320833Y472375D2*
X2444441D1*
X2485864D2*
X2766214D1*
X2302100Y447506D2*
X2766214D1*
X2298117Y422637D2*
X2766214D1*
X2299728Y1168688D2*
Y1133665D1*
X2493414Y939808D1*
X2496411Y935682D1*
X2498726Y931137D1*
X2500302Y926287D1*
X2501100Y921250D1*
X2501200Y854396D1*
Y847183D1*
X2622592Y968413D1*
X2626718Y971411D1*
X2631263Y973726D1*
X2636113Y975302D1*
X2641150Y976100D1*
X2698065Y976200D1*
X2704082Y983318D1*
X2710768Y989027D1*
X2718264Y993621D1*
X2726386Y996985D1*
X2734935Y999037D1*
X2743700Y999728D1*
X2752465Y999037D1*
X2761014Y996985D1*
X2768714Y993815D1*
X2768700Y1087676D1*
X2687672Y1087672D1*
Y1168735D1*
X2299742Y1168700D1*
X2299653Y1041794D2*
X2299037Y1034935D1*
X2296985Y1026386D1*
X2293621Y1018264D1*
X2289027Y1010768D1*
X2283318Y1004082D1*
X2276632Y998373D1*
X2268964Y993700D1*
X2276632Y989027D1*
X2283318Y983318D1*
X2289027Y976632D1*
X2293621Y969136D1*
X2296985Y961014D1*
X2299037Y952465D1*
X2299728Y943700D1*
X2299037Y934935D1*
X2296985Y926386D1*
X2293621Y918264D1*
X2289027Y910768D1*
X2283318Y904082D1*
X2276632Y898373D1*
X2268964Y893700D1*
X2276632Y889027D1*
X2283318Y883318D1*
X2289027Y876632D1*
X2293621Y869136D1*
X2296985Y861014D1*
X2299037Y852465D1*
X2299728Y843700D1*
X2299037Y834935D1*
X2296985Y826386D1*
X2293621Y818264D1*
X2289027Y810768D1*
X2283318Y804082D1*
X2276632Y798373D1*
X2268964Y793700D1*
X2276632Y789027D1*
X2283318Y783318D1*
X2289027Y776632D1*
X2293621Y769136D1*
X2296985Y761014D1*
X2299037Y752465D1*
X2299728Y743700D1*
X2299037Y734935D1*
X2296985Y726386D1*
X2293621Y718264D1*
X2289027Y710768D1*
X2283318Y704082D1*
X2276632Y698373D1*
X2268964Y693700D1*
X2276632Y689027D1*
X2283318Y683318D1*
X2289027Y676632D1*
X2293621Y669136D1*
X2296985Y661014D1*
X2297728Y658384D1*
X2302086Y660480D1*
X2309025Y662734D1*
X2316233Y663876D1*
X2323529D1*
X2330737Y662734D1*
X2337676Y660480D1*
X2344178Y657167D1*
X2350081Y652877D1*
X2355239Y647718D1*
X2359529Y641815D1*
X2362842Y635314D1*
X2365096Y628375D1*
X2366238Y621167D1*
Y613871D1*
X2365096Y606663D1*
X2362842Y599724D1*
X2359529Y593222D1*
X2355239Y587319D1*
X2351201Y583196D1*
X2351100Y516150D1*
X2350302Y511113D1*
X2348726Y506263D1*
X2346411Y501718D1*
X2343413Y497592D1*
X2298977Y453015D1*
X2299728Y443700D1*
X2299037Y434935D1*
X2296985Y426386D1*
X2293815Y418686D1*
X2768684Y418700D1*
X2768700Y493578D1*
X2761014Y490415D1*
X2752465Y488363D1*
X2743700Y487672D1*
X2734935Y488363D1*
X2726386Y490415D1*
X2718264Y493779D1*
X2710768Y498373D1*
X2704082Y504082D1*
X2698373Y510768D1*
X2693779Y518264D1*
X2690415Y526386D1*
X2688363Y534935D1*
X2687672Y543700D1*
X2688363Y552465D1*
X2690415Y561014D1*
X2693779Y569136D1*
X2698373Y576632D1*
X2704082Y583318D1*
X2710768Y589027D1*
X2718264Y593621D1*
X2726386Y596985D1*
X2734935Y599037D1*
X2743700Y599728D1*
X2752465Y599037D1*
X2761014Y596985D1*
X2768714Y593815D1*
X2768700Y693524D1*
X2761014Y690415D1*
X2752465Y688363D1*
X2743700Y687672D1*
X2734935Y688363D1*
X2726386Y690415D1*
X2718264Y693779D1*
X2710768Y698373D1*
X2704082Y704082D1*
X2698373Y710768D1*
X2693779Y718264D1*
X2690415Y726386D1*
X2688363Y734935D1*
X2687672Y743700D1*
X2688363Y752465D1*
X2690415Y761014D1*
X2693779Y769136D1*
X2698373Y776632D1*
X2704082Y783318D1*
X2710768Y789027D1*
X2718436Y793700D1*
X2710768Y798373D1*
X2704082Y804082D1*
X2698373Y810768D1*
X2693779Y818264D1*
X2690415Y826386D1*
X2688363Y834935D1*
X2687672Y843700D1*
X2688363Y852465D1*
X2690415Y861014D1*
X2693779Y869136D1*
X2698373Y876632D1*
X2704082Y883318D1*
X2710768Y889027D1*
X2718436Y893700D1*
X2710768Y898373D1*
X2704082Y904082D1*
X2698373Y910768D1*
X2697768Y911200D1*
X2657183D1*
X2538720Y792758D1*
X2538700Y576936D1*
X2543819Y571032D1*
X2547632Y564810D1*
X2550424Y558069D1*
X2552128Y550974D1*
X2552700Y543700D1*
X2552128Y536426D1*
X2550424Y529331D1*
X2547632Y522590D1*
X2543819Y516368D1*
X2539081Y510819D1*
X2533532Y506081D1*
X2527310Y502268D1*
X2520569Y499476D1*
X2513474Y497772D1*
X2508067Y497273D1*
X2504805Y490860D1*
X2500515Y484957D1*
X2495356Y479798D1*
X2489453Y475508D1*
X2482952Y472196D1*
X2476012Y469941D1*
X2468805Y468800D1*
X2461508D1*
X2454301Y469941D1*
X2447361Y472196D1*
X2440860Y475508D1*
X2434957Y479798D1*
X2429798Y484957D1*
X2425508Y490860D1*
X2422196Y497361D1*
X2419941Y504301D1*
X2418800Y511508D1*
Y518805D1*
X2419941Y526012D1*
X2422196Y532952D1*
X2425508Y539453D1*
X2429798Y545356D1*
X2434957Y550515D1*
X2436200Y551495D1*
Y905209D1*
X2299692Y1041746D1*
D25*
X2743700Y1143700D3*
X2243700D3*
D26*
Y1043700D3*
Y943700D3*
Y843700D3*
Y743700D3*
Y643700D3*
Y543700D3*
Y443700D3*
X2743700Y1043700D3*
Y943700D3*
Y843700D3*
Y743700D3*
Y643700D3*
Y543700D3*
Y443700D3*
X3065157Y515157D2*
D14*
X3068700Y518700D1*
Y918700D1*
X2843700Y1143700D1*
X3106200Y543700D2*
Y806200D1*
X3243700Y943700D1*
X3343700D1*
X2919881Y617519D2*
X2918700Y616338D1*
Y518700D1*
X2843700Y443700D1*
D27*
X3065157Y515157D3*
X3106200Y543700D3*
X2919881Y617519D3*
X3058700Y1128700D3*
X2993700Y918700D3*
X2943700Y793700D3*
X3218700Y768700D3*
X3056200Y443700D3*
X3143700Y631200D3*
X2902245Y1143831D2*
D15*
X3285188D1*
X2916885Y1118962D2*
X3285188D1*
X2941752Y1094094D2*
X3285188D1*
X2966621Y1069225D2*
X3366214D1*
X2991489Y1044356D2*
X3366214D1*
X2896718Y1019487D2*
X2919457D1*
X3016392D2*
X3366214D1*
X2873214Y994619D2*
X2944325D1*
X3041260D2*
X3317843D1*
X2895821Y969750D2*
X2969192D1*
X3066128D2*
X3221781D1*
X2902209Y944881D2*
X2994060D1*
X3090995D2*
X3196411D1*
X2896969Y920012D2*
X3018928D1*
X3103662D2*
X3171543D1*
X2874148Y895144D2*
X3033712D1*
X3103699D2*
X3146675D1*
X3243611D2*
X3313250D1*
X2895535Y870275D2*
X3033712D1*
X3103699D2*
X3121808D1*
X3218743D2*
X3291863D1*
X2902209Y845406D2*
X3033712D1*
X3193876D2*
X3285188D1*
X2897221Y820537D2*
X3033712D1*
X3169007D2*
X3290176D1*
X2875044Y795669D2*
X3033712D1*
X3144140D2*
X3312352D1*
X2895247Y770800D2*
X3033712D1*
X3141197D2*
X3292150D1*
X2902172Y745931D2*
X3033712D1*
X3141197D2*
X3285224D1*
X2897436Y721062D2*
X3033712D1*
X3141197D2*
X3289961D1*
X2875906Y696193D2*
X3033712D1*
X3141197D2*
X3311491D1*
X2894960Y671325D2*
X3033712D1*
X3141197D2*
X3366214D1*
X2958798Y646456D2*
X3033712D1*
X3141197D2*
X3366214D1*
X2968701Y621587D2*
X3033712D1*
X3141197D2*
X3366214D1*
X2963965Y596718D2*
X3033712D1*
X3141197D2*
X3323082D1*
X2953703Y571850D2*
X3033712D1*
X3145718D2*
X3292760D1*
X2953703Y546981D2*
X3028760D1*
X3155085D2*
X3285260D1*
X2953703Y522112D2*
X3016667D1*
X3149881D2*
X3289494D1*
X2945592Y497243D2*
X3019752D1*
X3110696D2*
X3309877D1*
X2920833Y472375D2*
X3044441D1*
X3085864D2*
X3366214D1*
X2902100Y447506D2*
X3366214D1*
X2898117Y422637D2*
X3366214D1*
X2899728Y1168688D2*
Y1133665D1*
X3093414Y939808D1*
X3096411Y935682D1*
X3098726Y931137D1*
X3100302Y926287D1*
X3101100Y921250D1*
X3101200Y854396D1*
Y847183D1*
X3222592Y968413D1*
X3226718Y971411D1*
X3231263Y973726D1*
X3236113Y975302D1*
X3241150Y976100D1*
X3298065Y976200D1*
X3304082Y983318D1*
X3310768Y989027D1*
X3318264Y993621D1*
X3326386Y996985D1*
X3334935Y999037D1*
X3343700Y999728D1*
X3352465Y999037D1*
X3361014Y996985D1*
X3368714Y993815D1*
X3368700Y1087676D1*
X3287672Y1087672D1*
Y1168735D1*
X2899742Y1168700D1*
X2899653Y1041794D2*
X2899037Y1034935D1*
X2896985Y1026386D1*
X2893621Y1018264D1*
X2889027Y1010768D1*
X2883318Y1004082D1*
X2876632Y998373D1*
X2868964Y993700D1*
X2876632Y989027D1*
X2883318Y983318D1*
X2889027Y976632D1*
X2893621Y969136D1*
X2896985Y961014D1*
X2899037Y952465D1*
X2899728Y943700D1*
X2899037Y934935D1*
X2896985Y926386D1*
X2893621Y918264D1*
X2889027Y910768D1*
X2883318Y904082D1*
X2876632Y898373D1*
X2868964Y893700D1*
X2876632Y889027D1*
X2883318Y883318D1*
X2889027Y876632D1*
X2893621Y869136D1*
X2896985Y861014D1*
X2899037Y852465D1*
X2899728Y843700D1*
X2899037Y834935D1*
X2896985Y826386D1*
X2893621Y818264D1*
X2889027Y810768D1*
X2883318Y804082D1*
X2876632Y798373D1*
X2868964Y793700D1*
X2876632Y789027D1*
X2883318Y783318D1*
X2889027Y776632D1*
X2893621Y769136D1*
X2896985Y761014D1*
X2899037Y752465D1*
X2899728Y743700D1*
X2899037Y734935D1*
X2896985Y726386D1*
X2893621Y718264D1*
X2889027Y710768D1*
X2883318Y704082D1*
X2876632Y698373D1*
X2868964Y693700D1*
X2876632Y689027D1*
X2883318Y683318D1*
X2889027Y676632D1*
X2893621Y669136D1*
X2896985Y661014D1*
X2897728Y658384D1*
X2902086Y660480D1*
X2909025Y662734D1*
X2916233Y663876D1*
X2923529D1*
X2930737Y662734D1*
X2937676Y660480D1*
X2944178Y657167D1*
X2950081Y652877D1*
X2955239Y647718D1*
X2959529Y641815D1*
X2962842Y635314D1*
X2965096Y628375D1*
X2966238Y621167D1*
Y613871D1*
X2965096Y606663D1*
X2962842Y599724D1*
X2959529Y593222D1*
X2955239Y587319D1*
X2951201Y583196D1*
X2951100Y516150D1*
X2950302Y511113D1*
X2948726Y506263D1*
X2946411Y501718D1*
X2943413Y497592D1*
X2898977Y453015D1*
X2899728Y443700D1*
X2899037Y434935D1*
X2896985Y426386D1*
X2893815Y418686D1*
X3368684Y418700D1*
X3368700Y493578D1*
X3361014Y490415D1*
X3352465Y488363D1*
X3343700Y487672D1*
X3334935Y488363D1*
X3326386Y490415D1*
X3318264Y493779D1*
X3310768Y498373D1*
X3304082Y504082D1*
X3298373Y510768D1*
X3293779Y518264D1*
X3290415Y526386D1*
X3288363Y534935D1*
X3287672Y543700D1*
X3288363Y552465D1*
X3290415Y561014D1*
X3293779Y569136D1*
X3298373Y576632D1*
X3304082Y583318D1*
X3310768Y589027D1*
X3318264Y593621D1*
X3326386Y596985D1*
X3334935Y599037D1*
X3343700Y599728D1*
X3352465Y599037D1*
X3361014Y596985D1*
X3368714Y593815D1*
X3368700Y693524D1*
X3361014Y690415D1*
X3352465Y688363D1*
X3343700Y687672D1*
X3334935Y688363D1*
X3326386Y690415D1*
X3318264Y693779D1*
X3310768Y698373D1*
X3304082Y704082D1*
X3298373Y710768D1*
X3293779Y718264D1*
X3290415Y726386D1*
X3288363Y734935D1*
X3287672Y743700D1*
X3288363Y752465D1*
X3290415Y761014D1*
X3293779Y769136D1*
X3298373Y776632D1*
X3304082Y783318D1*
X3310768Y789027D1*
X3318436Y793700D1*
X3310768Y798373D1*
X3304082Y804082D1*
X3298373Y810768D1*
X3293779Y818264D1*
X3290415Y826386D1*
X3288363Y834935D1*
X3287672Y843700D1*
X3288363Y852465D1*
X3290415Y861014D1*
X3293779Y869136D1*
X3298373Y876632D1*
X3304082Y883318D1*
X3310768Y889027D1*
X3318436Y893700D1*
X3310768Y898373D1*
X3304082Y904082D1*
X3298373Y910768D1*
X3297768Y911200D1*
X3257183D1*
X3138720Y792758D1*
X3138700Y576936D1*
X3143819Y571032D1*
X3147632Y564810D1*
X3150424Y558069D1*
X3152128Y550974D1*
X3152700Y543700D1*
X3152128Y536426D1*
X3150424Y529331D1*
X3147632Y522590D1*
X3143819Y516368D1*
X3139081Y510819D1*
X3133532Y506081D1*
X3127310Y502268D1*
X3120569Y499476D1*
X3113474Y497772D1*
X3108067Y497273D1*
X3104805Y490860D1*
X3100515Y484957D1*
X3095356Y479798D1*
X3089453Y475508D1*
X3082952Y472196D1*
X3076012Y469941D1*
X3068805Y468800D1*
X3061508D1*
X3054301Y469941D1*
X3047361Y472196D1*
X3040860Y475508D1*
X3034957Y479798D1*
X3029798Y484957D1*
X3025508Y490860D1*
X3022196Y497361D1*
X3019941Y504301D1*
X3018800Y511508D1*
Y518805D1*
X3019941Y526012D1*
X3022196Y532952D1*
X3025508Y539453D1*
X3029798Y545356D1*
X3034957Y550515D1*
X3036200Y551495D1*
Y905209D1*
X2899692Y1041746D1*
D25*
X3343700Y1143700D3*
X2843700D3*
D26*
Y1043700D3*
Y943700D3*
Y843700D3*
Y743700D3*
Y643700D3*
Y543700D3*
Y443700D3*
X3343700Y1043700D3*
Y943700D3*
Y843700D3*
Y743700D3*
Y643700D3*
Y543700D3*
Y443700D3*
X665157Y1315157D2*
D14*
X668700Y1318700D1*
Y1718700D1*
X443700Y1943700D1*
X706200Y1343700D2*
Y1606200D1*
X843700Y1743700D1*
X943700D1*
X519881Y1417519D2*
X518700Y1416338D1*
Y1318700D1*
X443700Y1243700D1*
D27*
X665157Y1315157D3*
X706200Y1343700D3*
X519881Y1417519D3*
X658700Y1928700D3*
X593700Y1718700D3*
X543700Y1593700D3*
X818700Y1568700D3*
X656200Y1243700D3*
X743700Y1431200D3*
X502245Y1943831D2*
D15*
X885188D1*
X516885Y1918962D2*
X885188D1*
X541752Y1894094D2*
X885188D1*
X566621Y1869225D2*
X966214D1*
X591489Y1844356D2*
X966214D1*
X496718Y1819487D2*
X519457D1*
X616392D2*
X966214D1*
X473214Y1794619D2*
X544325D1*
X641260D2*
X917843D1*
X495821Y1769750D2*
X569192D1*
X666128D2*
X821781D1*
X502209Y1744881D2*
X594060D1*
X690995D2*
X796411D1*
X496969Y1720012D2*
X618928D1*
X703662D2*
X771543D1*
X474148Y1695144D2*
X633712D1*
X703699D2*
X746675D1*
X843611D2*
X913250D1*
X495535Y1670275D2*
X633712D1*
X703699D2*
X721808D1*
X818743D2*
X891863D1*
X502209Y1645406D2*
X633712D1*
X793876D2*
X885188D1*
X497221Y1620537D2*
X633712D1*
X769007D2*
X890176D1*
X475044Y1595669D2*
X633712D1*
X744140D2*
X912352D1*
X495247Y1570800D2*
X633712D1*
X741197D2*
X892150D1*
X502172Y1545931D2*
X633712D1*
X741197D2*
X885224D1*
X497436Y1521062D2*
X633712D1*
X741197D2*
X889961D1*
X475906Y1496193D2*
X633712D1*
X741197D2*
X911491D1*
X494960Y1471325D2*
X633712D1*
X741197D2*
X966214D1*
X558798Y1446456D2*
X633712D1*
X741197D2*
X966214D1*
X568701Y1421587D2*
X633712D1*
X741197D2*
X966214D1*
X563965Y1396718D2*
X633712D1*
X741197D2*
X923082D1*
X553703Y1371850D2*
X633712D1*
X745718D2*
X892760D1*
X553703Y1346981D2*
X628760D1*
X755085D2*
X885260D1*
X553703Y1322112D2*
X616667D1*
X749881D2*
X889494D1*
X545592Y1297243D2*
X619752D1*
X710696D2*
X909877D1*
X520833Y1272375D2*
X644441D1*
X685864D2*
X966214D1*
X502100Y1247506D2*
X966214D1*
X498117Y1222637D2*
X966214D1*
X499728Y1968688D2*
Y1933665D1*
X693414Y1739808D1*
X696411Y1735682D1*
X698726Y1731137D1*
X700302Y1726287D1*
X701100Y1721250D1*
X701200Y1654396D1*
Y1647183D1*
X822592Y1768413D1*
X826718Y1771411D1*
X831263Y1773726D1*
X836113Y1775302D1*
X841150Y1776100D1*
X898065Y1776200D1*
X904082Y1783318D1*
X910768Y1789027D1*
X918264Y1793621D1*
X926386Y1796985D1*
X934935Y1799037D1*
X943700Y1799728D1*
X952465Y1799037D1*
X961014Y1796985D1*
X968714Y1793815D1*
X968700Y1887676D1*
X887672Y1887672D1*
Y1968735D1*
X499742Y1968700D1*
X499653Y1841794D2*
X499037Y1834935D1*
X496985Y1826386D1*
X493621Y1818264D1*
X489027Y1810768D1*
X483318Y1804082D1*
X476632Y1798373D1*
X468964Y1793700D1*
X476632Y1789027D1*
X483318Y1783318D1*
X489027Y1776632D1*
X493621Y1769136D1*
X496985Y1761014D1*
X499037Y1752465D1*
X499728Y1743700D1*
X499037Y1734935D1*
X496985Y1726386D1*
X493621Y1718264D1*
X489027Y1710768D1*
X483318Y1704082D1*
X476632Y1698373D1*
X468964Y1693700D1*
X476632Y1689027D1*
X483318Y1683318D1*
X489027Y1676632D1*
X493621Y1669136D1*
X496985Y1661014D1*
X499037Y1652465D1*
X499728Y1643700D1*
X499037Y1634935D1*
X496985Y1626386D1*
X493621Y1618264D1*
X489027Y1610768D1*
X483318Y1604082D1*
X476632Y1598373D1*
X468964Y1593700D1*
X476632Y1589027D1*
X483318Y1583318D1*
X489027Y1576632D1*
X493621Y1569136D1*
X496985Y1561014D1*
X499037Y1552465D1*
X499728Y1543700D1*
X499037Y1534935D1*
X496985Y1526386D1*
X493621Y1518264D1*
X489027Y1510768D1*
X483318Y1504082D1*
X476632Y1498373D1*
X468964Y1493700D1*
X476632Y1489027D1*
X483318Y1483318D1*
X489027Y1476632D1*
X493621Y1469136D1*
X496985Y1461014D1*
X497728Y1458384D1*
X502086Y1460480D1*
X509025Y1462734D1*
X516233Y1463876D1*
X523529D1*
X530737Y1462734D1*
X537676Y1460480D1*
X544178Y1457167D1*
X550081Y1452877D1*
X555239Y1447718D1*
X559529Y1441815D1*
X562842Y1435314D1*
X565096Y1428375D1*
X566238Y1421167D1*
Y1413871D1*
X565096Y1406663D1*
X562842Y1399724D1*
X559529Y1393222D1*
X555239Y1387319D1*
X551201Y1383196D1*
X551100Y1316150D1*
X550302Y1311113D1*
X548726Y1306263D1*
X546411Y1301718D1*
X543413Y1297592D1*
X498977Y1253015D1*
X499728Y1243700D1*
X499037Y1234935D1*
X496985Y1226386D1*
X493815Y1218686D1*
X968684Y1218700D1*
X968700Y1293578D1*
X961014Y1290415D1*
X952465Y1288363D1*
X943700Y1287672D1*
X934935Y1288363D1*
X926386Y1290415D1*
X918264Y1293779D1*
X910768Y1298373D1*
X904082Y1304082D1*
X898373Y1310768D1*
X893779Y1318264D1*
X890415Y1326386D1*
X888363Y1334935D1*
X887672Y1343700D1*
X888363Y1352465D1*
X890415Y1361014D1*
X893779Y1369136D1*
X898373Y1376632D1*
X904082Y1383318D1*
X910768Y1389027D1*
X918264Y1393621D1*
X926386Y1396985D1*
X934935Y1399037D1*
X943700Y1399728D1*
X952465Y1399037D1*
X961014Y1396985D1*
X968714Y1393815D1*
X968700Y1493524D1*
X961014Y1490415D1*
X952465Y1488363D1*
X943700Y1487672D1*
X934935Y1488363D1*
X926386Y1490415D1*
X918264Y1493779D1*
X910768Y1498373D1*
X904082Y1504082D1*
X898373Y1510768D1*
X893779Y1518264D1*
X890415Y1526386D1*
X888363Y1534935D1*
X887672Y1543700D1*
X888363Y1552465D1*
X890415Y1561014D1*
X893779Y1569136D1*
X898373Y1576632D1*
X904082Y1583318D1*
X910768Y1589027D1*
X918436Y1593700D1*
X910768Y1598373D1*
X904082Y1604082D1*
X898373Y1610768D1*
X893779Y1618264D1*
X890415Y1626386D1*
X888363Y1634935D1*
X887672Y1643700D1*
X888363Y1652465D1*
X890415Y1661014D1*
X893779Y1669136D1*
X898373Y1676632D1*
X904082Y1683318D1*
X910768Y1689027D1*
X918436Y1693700D1*
X910768Y1698373D1*
X904082Y1704082D1*
X898373Y1710768D1*
X897768Y1711200D1*
X857183D1*
X738720Y1592758D1*
X738700Y1376936D1*
X743819Y1371032D1*
X747632Y1364810D1*
X750424Y1358069D1*
X752128Y1350974D1*
X752700Y1343700D1*
X752128Y1336426D1*
X750424Y1329331D1*
X747632Y1322590D1*
X743819Y1316368D1*
X739081Y1310819D1*
X733532Y1306081D1*
X727310Y1302268D1*
X720569Y1299476D1*
X713474Y1297772D1*
X708067Y1297273D1*
X704805Y1290860D1*
X700515Y1284957D1*
X695356Y1279798D1*
X689453Y1275508D1*
X682952Y1272196D1*
X676012Y1269941D1*
X668805Y1268800D1*
X661508D1*
X654301Y1269941D1*
X647361Y1272196D1*
X640860Y1275508D1*
X634957Y1279798D1*
X629798Y1284957D1*
X625508Y1290860D1*
X622196Y1297361D1*
X619941Y1304301D1*
X618800Y1311508D1*
Y1318805D1*
X619941Y1326012D1*
X622196Y1332952D1*
X625508Y1339453D1*
X629798Y1345356D1*
X634957Y1350515D1*
X636200Y1351495D1*
Y1705209D1*
X499692Y1841746D1*
D25*
X943700Y1943700D3*
X443700D3*
D26*
Y1843700D3*
Y1743700D3*
Y1643700D3*
Y1543700D3*
Y1443700D3*
Y1343700D3*
Y1243700D3*
X943700Y1843700D3*
Y1743700D3*
Y1643700D3*
Y1543700D3*
Y1443700D3*
Y1343700D3*
Y1243700D3*
X1265157Y1315157D2*
D14*
X1268700Y1318700D1*
Y1718700D1*
X1043700Y1943700D1*
X1306200Y1343700D2*
Y1606200D1*
X1443700Y1743700D1*
X1543700D1*
X1119881Y1417519D2*
X1118700Y1416338D1*
Y1318700D1*
X1043700Y1243700D1*
D27*
X1265157Y1315157D3*
X1306200Y1343700D3*
X1119881Y1417519D3*
X1258700Y1928700D3*
X1193700Y1718700D3*
X1143700Y1593700D3*
X1418700Y1568700D3*
X1256200Y1243700D3*
X1343700Y1431200D3*
X1102245Y1943831D2*
D15*
X1485188D1*
X1116885Y1918962D2*
X1485188D1*
X1141752Y1894094D2*
X1485188D1*
X1166621Y1869225D2*
X1566214D1*
X1191489Y1844356D2*
X1566214D1*
X1096718Y1819487D2*
X1119457D1*
X1216392D2*
X1566214D1*
X1073214Y1794619D2*
X1144325D1*
X1241260D2*
X1517843D1*
X1095821Y1769750D2*
X1169192D1*
X1266128D2*
X1421781D1*
X1102209Y1744881D2*
X1194060D1*
X1290995D2*
X1396411D1*
X1096969Y1720012D2*
X1218928D1*
X1303662D2*
X1371543D1*
X1074148Y1695144D2*
X1233712D1*
X1303699D2*
X1346675D1*
X1443611D2*
X1513250D1*
X1095535Y1670275D2*
X1233712D1*
X1303699D2*
X1321808D1*
X1418743D2*
X1491863D1*
X1102209Y1645406D2*
X1233712D1*
X1393876D2*
X1485188D1*
X1097221Y1620537D2*
X1233712D1*
X1369007D2*
X1490176D1*
X1075044Y1595669D2*
X1233712D1*
X1344140D2*
X1512352D1*
X1095247Y1570800D2*
X1233712D1*
X1341197D2*
X1492150D1*
X1102172Y1545931D2*
X1233712D1*
X1341197D2*
X1485224D1*
X1097436Y1521062D2*
X1233712D1*
X1341197D2*
X1489961D1*
X1075906Y1496193D2*
X1233712D1*
X1341197D2*
X1511491D1*
X1094960Y1471325D2*
X1233712D1*
X1341197D2*
X1566214D1*
X1158798Y1446456D2*
X1233712D1*
X1341197D2*
X1566214D1*
X1168701Y1421587D2*
X1233712D1*
X1341197D2*
X1566214D1*
X1163965Y1396718D2*
X1233712D1*
X1341197D2*
X1523082D1*
X1153703Y1371850D2*
X1233712D1*
X1345718D2*
X1492760D1*
X1153703Y1346981D2*
X1228760D1*
X1355085D2*
X1485260D1*
X1153703Y1322112D2*
X1216667D1*
X1349881D2*
X1489494D1*
X1145592Y1297243D2*
X1219752D1*
X1310696D2*
X1509877D1*
X1120833Y1272375D2*
X1244441D1*
X1285864D2*
X1566214D1*
X1102100Y1247506D2*
X1566214D1*
X1098117Y1222637D2*
X1566214D1*
X1099728Y1968688D2*
Y1933665D1*
X1293414Y1739808D1*
X1296411Y1735682D1*
X1298726Y1731137D1*
X1300302Y1726287D1*
X1301100Y1721250D1*
X1301200Y1654396D1*
Y1647183D1*
X1422592Y1768413D1*
X1426718Y1771411D1*
X1431263Y1773726D1*
X1436113Y1775302D1*
X1441150Y1776100D1*
X1498065Y1776200D1*
X1504082Y1783318D1*
X1510768Y1789027D1*
X1518264Y1793621D1*
X1526386Y1796985D1*
X1534935Y1799037D1*
X1543700Y1799728D1*
X1552465Y1799037D1*
X1561014Y1796985D1*
X1568714Y1793815D1*
X1568700Y1887676D1*
X1487672Y1887672D1*
Y1968735D1*
X1099742Y1968700D1*
X1099653Y1841794D2*
X1099037Y1834935D1*
X1096985Y1826386D1*
X1093621Y1818264D1*
X1089027Y1810768D1*
X1083318Y1804082D1*
X1076632Y1798373D1*
X1068964Y1793700D1*
X1076632Y1789027D1*
X1083318Y1783318D1*
X1089027Y1776632D1*
X1093621Y1769136D1*
X1096985Y1761014D1*
X1099037Y1752465D1*
X1099728Y1743700D1*
X1099037Y1734935D1*
X1096985Y1726386D1*
X1093621Y1718264D1*
X1089027Y1710768D1*
X1083318Y1704082D1*
X1076632Y1698373D1*
X1068964Y1693700D1*
X1076632Y1689027D1*
X1083318Y1683318D1*
X1089027Y1676632D1*
X1093621Y1669136D1*
X1096985Y1661014D1*
X1099037Y1652465D1*
X1099728Y1643700D1*
X1099037Y1634935D1*
X1096985Y1626386D1*
X1093621Y1618264D1*
X1089027Y1610768D1*
X1083318Y1604082D1*
X1076632Y1598373D1*
X1068964Y1593700D1*
X1076632Y1589027D1*
X1083318Y1583318D1*
X1089027Y1576632D1*
X1093621Y1569136D1*
X1096985Y1561014D1*
X1099037Y1552465D1*
X1099728Y1543700D1*
X1099037Y1534935D1*
X1096985Y1526386D1*
X1093621Y1518264D1*
X1089027Y1510768D1*
X1083318Y1504082D1*
X1076632Y1498373D1*
X1068964Y1493700D1*
X1076632Y1489027D1*
X1083318Y1483318D1*
X1089027Y1476632D1*
X1093621Y1469136D1*
X1096985Y1461014D1*
X1097728Y1458384D1*
X1102086Y1460480D1*
X1109025Y1462734D1*
X1116233Y1463876D1*
X1123529D1*
X1130737Y1462734D1*
X1137676Y1460480D1*
X1144178Y1457167D1*
X1150081Y1452877D1*
X1155239Y1447718D1*
X1159529Y1441815D1*
X1162842Y1435314D1*
X1165096Y1428375D1*
X1166238Y1421167D1*
Y1413871D1*
X1165096Y1406663D1*
X1162842Y1399724D1*
X1159529Y1393222D1*
X1155239Y1387319D1*
X1151201Y1383196D1*
X1151100Y1316150D1*
X1150302Y1311113D1*
X1148726Y1306263D1*
X1146411Y1301718D1*
X1143413Y1297592D1*
X1098977Y1253015D1*
X1099728Y1243700D1*
X1099037Y1234935D1*
X1096985Y1226386D1*
X1093815Y1218686D1*
X1568684Y1218700D1*
X1568700Y1293578D1*
X1561014Y1290415D1*
X1552465Y1288363D1*
X1543700Y1287672D1*
X1534935Y1288363D1*
X1526386Y1290415D1*
X1518264Y1293779D1*
X1510768Y1298373D1*
X1504082Y1304082D1*
X1498373Y1310768D1*
X1493779Y1318264D1*
X1490415Y1326386D1*
X1488363Y1334935D1*
X1487672Y1343700D1*
X1488363Y1352465D1*
X1490415Y1361014D1*
X1493779Y1369136D1*
X1498373Y1376632D1*
X1504082Y1383318D1*
X1510768Y1389027D1*
X1518264Y1393621D1*
X1526386Y1396985D1*
X1534935Y1399037D1*
X1543700Y1399728D1*
X1552465Y1399037D1*
X1561014Y1396985D1*
X1568714Y1393815D1*
X1568700Y1493524D1*
X1561014Y1490415D1*
X1552465Y1488363D1*
X1543700Y1487672D1*
X1534935Y1488363D1*
X1526386Y1490415D1*
X1518264Y1493779D1*
X1510768Y1498373D1*
X1504082Y1504082D1*
X1498373Y1510768D1*
X1493779Y1518264D1*
X1490415Y1526386D1*
X1488363Y1534935D1*
X1487672Y1543700D1*
X1488363Y1552465D1*
X1490415Y1561014D1*
X1493779Y1569136D1*
X1498373Y1576632D1*
X1504082Y1583318D1*
X1510768Y1589027D1*
X1518436Y1593700D1*
X1510768Y1598373D1*
X1504082Y1604082D1*
X1498373Y1610768D1*
X1493779Y1618264D1*
X1490415Y1626386D1*
X1488363Y1634935D1*
X1487672Y1643700D1*
X1488363Y1652465D1*
X1490415Y1661014D1*
X1493779Y1669136D1*
X1498373Y1676632D1*
X1504082Y1683318D1*
X1510768Y1689027D1*
X1518436Y1693700D1*
X1510768Y1698373D1*
X1504082Y1704082D1*
X1498373Y1710768D1*
X1497768Y1711200D1*
X1457183D1*
X1338720Y1592758D1*
X1338700Y1376936D1*
X1343819Y1371032D1*
X1347632Y1364810D1*
X1350424Y1358069D1*
X1352128Y1350974D1*
X1352700Y1343700D1*
X1352128Y1336426D1*
X1350424Y1329331D1*
X1347632Y1322590D1*
X1343819Y1316368D1*
X1339081Y1310819D1*
X1333532Y1306081D1*
X1327310Y1302268D1*
X1320569Y1299476D1*
X1313474Y1297772D1*
X1308067Y1297273D1*
X1304805Y1290860D1*
X1300515Y1284957D1*
X1295356Y1279798D1*
X1289453Y1275508D1*
X1282952Y1272196D1*
X1276012Y1269941D1*
X1268805Y1268800D1*
X1261508D1*
X1254301Y1269941D1*
X1247361Y1272196D1*
X1240860Y1275508D1*
X1234957Y1279798D1*
X1229798Y1284957D1*
X1225508Y1290860D1*
X1222196Y1297361D1*
X1219941Y1304301D1*
X1218800Y1311508D1*
Y1318805D1*
X1219941Y1326012D1*
X1222196Y1332952D1*
X1225508Y1339453D1*
X1229798Y1345356D1*
X1234957Y1350515D1*
X1236200Y1351495D1*
Y1705209D1*
X1099692Y1841746D1*
D25*
X1543700Y1943700D3*
X1043700D3*
D26*
Y1843700D3*
Y1743700D3*
Y1643700D3*
Y1543700D3*
Y1443700D3*
Y1343700D3*
Y1243700D3*
X1543700Y1843700D3*
Y1743700D3*
Y1643700D3*
Y1543700D3*
Y1443700D3*
Y1343700D3*
Y1243700D3*
X1865157Y1315157D2*
D14*
X1868700Y1318700D1*
Y1718700D1*
X1643700Y1943700D1*
X1906200Y1343700D2*
Y1606200D1*
X2043700Y1743700D1*
X2143700D1*
X1719881Y1417519D2*
X1718700Y1416338D1*
Y1318700D1*
X1643700Y1243700D1*
D27*
X1865157Y1315157D3*
X1906200Y1343700D3*
X1719881Y1417519D3*
X1858700Y1928700D3*
X1793700Y1718700D3*
X1743700Y1593700D3*
X2018700Y1568700D3*
X1856200Y1243700D3*
X1943700Y1431200D3*
X1702245Y1943831D2*
D15*
X2085188D1*
X1716885Y1918962D2*
X2085188D1*
X1741752Y1894094D2*
X2085188D1*
X1766621Y1869225D2*
X2166214D1*
X1791489Y1844356D2*
X2166214D1*
X1696718Y1819487D2*
X1719457D1*
X1816392D2*
X2166214D1*
X1673214Y1794619D2*
X1744325D1*
X1841260D2*
X2117843D1*
X1695821Y1769750D2*
X1769192D1*
X1866128D2*
X2021781D1*
X1702209Y1744881D2*
X1794060D1*
X1890995D2*
X1996411D1*
X1696969Y1720012D2*
X1818928D1*
X1903662D2*
X1971543D1*
X1674148Y1695144D2*
X1833712D1*
X1903699D2*
X1946675D1*
X2043611D2*
X2113250D1*
X1695535Y1670275D2*
X1833712D1*
X1903699D2*
X1921808D1*
X2018743D2*
X2091863D1*
X1702209Y1645406D2*
X1833712D1*
X1993876D2*
X2085188D1*
X1697221Y1620537D2*
X1833712D1*
X1969007D2*
X2090176D1*
X1675044Y1595669D2*
X1833712D1*
X1944140D2*
X2112352D1*
X1695247Y1570800D2*
X1833712D1*
X1941197D2*
X2092150D1*
X1702172Y1545931D2*
X1833712D1*
X1941197D2*
X2085224D1*
X1697436Y1521062D2*
X1833712D1*
X1941197D2*
X2089961D1*
X1675906Y1496193D2*
X1833712D1*
X1941197D2*
X2111491D1*
X1694960Y1471325D2*
X1833712D1*
X1941197D2*
X2166214D1*
X1758798Y1446456D2*
X1833712D1*
X1941197D2*
X2166214D1*
X1768701Y1421587D2*
X1833712D1*
X1941197D2*
X2166214D1*
X1763965Y1396718D2*
X1833712D1*
X1941197D2*
X2123082D1*
X1753703Y1371850D2*
X1833712D1*
X1945718D2*
X2092760D1*
X1753703Y1346981D2*
X1828760D1*
X1955085D2*
X2085260D1*
X1753703Y1322112D2*
X1816667D1*
X1949881D2*
X2089494D1*
X1745592Y1297243D2*
X1819752D1*
X1910696D2*
X2109877D1*
X1720833Y1272375D2*
X1844441D1*
X1885864D2*
X2166214D1*
X1702100Y1247506D2*
X2166214D1*
X1698117Y1222637D2*
X2166214D1*
X1699728Y1968688D2*
Y1933665D1*
X1893414Y1739808D1*
X1896411Y1735682D1*
X1898726Y1731137D1*
X1900302Y1726287D1*
X1901100Y1721250D1*
X1901200Y1654396D1*
Y1647183D1*
X2022592Y1768413D1*
X2026718Y1771411D1*
X2031263Y1773726D1*
X2036113Y1775302D1*
X2041150Y1776100D1*
X2098065Y1776200D1*
X2104082Y1783318D1*
X2110768Y1789027D1*
X2118264Y1793621D1*
X2126386Y1796985D1*
X2134935Y1799037D1*
X2143700Y1799728D1*
X2152465Y1799037D1*
X2161014Y1796985D1*
X2168714Y1793815D1*
X2168700Y1887676D1*
X2087672Y1887672D1*
Y1968735D1*
X1699742Y1968700D1*
X1699653Y1841794D2*
X1699037Y1834935D1*
X1696985Y1826386D1*
X1693621Y1818264D1*
X1689027Y1810768D1*
X1683318Y1804082D1*
X1676632Y1798373D1*
X1668964Y1793700D1*
X1676632Y1789027D1*
X1683318Y1783318D1*
X1689027Y1776632D1*
X1693621Y1769136D1*
X1696985Y1761014D1*
X1699037Y1752465D1*
X1699728Y1743700D1*
X1699037Y1734935D1*
X1696985Y1726386D1*
X1693621Y1718264D1*
X1689027Y1710768D1*
X1683318Y1704082D1*
X1676632Y1698373D1*
X1668964Y1693700D1*
X1676632Y1689027D1*
X1683318Y1683318D1*
X1689027Y1676632D1*
X1693621Y1669136D1*
X1696985Y1661014D1*
X1699037Y1652465D1*
X1699728Y1643700D1*
X1699037Y1634935D1*
X1696985Y1626386D1*
X1693621Y1618264D1*
X1689027Y1610768D1*
X1683318Y1604082D1*
X1676632Y1598373D1*
X1668964Y1593700D1*
X1676632Y1589027D1*
X1683318Y1583318D1*
X1689027Y1576632D1*
X1693621Y1569136D1*
X1696985Y1561014D1*
X1699037Y1552465D1*
X1699728Y1543700D1*
X1699037Y1534935D1*
X1696985Y1526386D1*
X1693621Y1518264D1*
X1689027Y1510768D1*
X1683318Y1504082D1*
X1676632Y1498373D1*
X1668964Y1493700D1*
X1676632Y1489027D1*
X1683318Y1483318D1*
X1689027Y1476632D1*
X1693621Y1469136D1*
X1696985Y1461014D1*
X1697728Y1458384D1*
X1702086Y1460480D1*
X1709025Y1462734D1*
X1716233Y1463876D1*
X1723529D1*
X1730737Y1462734D1*
X1737676Y1460480D1*
X1744178Y1457167D1*
X1750081Y1452877D1*
X1755239Y1447718D1*
X1759529Y1441815D1*
X1762842Y1435314D1*
X1765096Y1428375D1*
X1766238Y1421167D1*
Y1413871D1*
X1765096Y1406663D1*
X1762842Y1399724D1*
X1759529Y1393222D1*
X1755239Y1387319D1*
X1751201Y1383196D1*
X1751100Y1316150D1*
X1750302Y1311113D1*
X1748726Y1306263D1*
X1746411Y1301718D1*
X1743413Y1297592D1*
X1698977Y1253015D1*
X1699728Y1243700D1*
X1699037Y1234935D1*
X1696985Y1226386D1*
X1693815Y1218686D1*
X2168684Y1218700D1*
X2168700Y1293578D1*
X2161014Y1290415D1*
X2152465Y1288363D1*
X2143700Y1287672D1*
X2134935Y1288363D1*
X2126386Y1290415D1*
X2118264Y1293779D1*
X2110768Y1298373D1*
X2104082Y1304082D1*
X2098373Y1310768D1*
X2093779Y1318264D1*
X2090415Y1326386D1*
X2088363Y1334935D1*
X2087672Y1343700D1*
X2088363Y1352465D1*
X2090415Y1361014D1*
X2093779Y1369136D1*
X2098373Y1376632D1*
X2104082Y1383318D1*
X2110768Y1389027D1*
X2118264Y1393621D1*
X2126386Y1396985D1*
X2134935Y1399037D1*
X2143700Y1399728D1*
X2152465Y1399037D1*
X2161014Y1396985D1*
X2168714Y1393815D1*
X2168700Y1493524D1*
X2161014Y1490415D1*
X2152465Y1488363D1*
X2143700Y1487672D1*
X2134935Y1488363D1*
X2126386Y1490415D1*
X2118264Y1493779D1*
X2110768Y1498373D1*
X2104082Y1504082D1*
X2098373Y1510768D1*
X2093779Y1518264D1*
X2090415Y1526386D1*
X2088363Y1534935D1*
X2087672Y1543700D1*
X2088363Y1552465D1*
X2090415Y1561014D1*
X2093779Y1569136D1*
X2098373Y1576632D1*
X2104082Y1583318D1*
X2110768Y1589027D1*
X2118436Y1593700D1*
X2110768Y1598373D1*
X2104082Y1604082D1*
X2098373Y1610768D1*
X2093779Y1618264D1*
X2090415Y1626386D1*
X2088363Y1634935D1*
X2087672Y1643700D1*
X2088363Y1652465D1*
X2090415Y1661014D1*
X2093779Y1669136D1*
X2098373Y1676632D1*
X2104082Y1683318D1*
X2110768Y1689027D1*
X2118436Y1693700D1*
X2110768Y1698373D1*
X2104082Y1704082D1*
X2098373Y1710768D1*
X2097768Y1711200D1*
X2057183D1*
X1938720Y1592758D1*
X1938700Y1376936D1*
X1943819Y1371032D1*
X1947632Y1364810D1*
X1950424Y1358069D1*
X1952128Y1350974D1*
X1952700Y1343700D1*
X1952128Y1336426D1*
X1950424Y1329331D1*
X1947632Y1322590D1*
X1943819Y1316368D1*
X1939081Y1310819D1*
X1933532Y1306081D1*
X1927310Y1302268D1*
X1920569Y1299476D1*
X1913474Y1297772D1*
X1908067Y1297273D1*
X1904805Y1290860D1*
X1900515Y1284957D1*
X1895356Y1279798D1*
X1889453Y1275508D1*
X1882952Y1272196D1*
X1876012Y1269941D1*
X1868805Y1268800D1*
X1861508D1*
X1854301Y1269941D1*
X1847361Y1272196D1*
X1840860Y1275508D1*
X1834957Y1279798D1*
X1829798Y1284957D1*
X1825508Y1290860D1*
X1822196Y1297361D1*
X1819941Y1304301D1*
X1818800Y1311508D1*
Y1318805D1*
X1819941Y1326012D1*
X1822196Y1332952D1*
X1825508Y1339453D1*
X1829798Y1345356D1*
X1834957Y1350515D1*
X1836200Y1351495D1*
Y1705209D1*
X1699692Y1841746D1*
D25*
X2143700Y1943700D3*
X1643700D3*
D26*
Y1843700D3*
Y1743700D3*
Y1643700D3*
Y1543700D3*
Y1443700D3*
Y1343700D3*
Y1243700D3*
X2143700Y1843700D3*
Y1743700D3*
Y1643700D3*
Y1543700D3*
Y1443700D3*
Y1343700D3*
Y1243700D3*
X2465157Y1315157D2*
D14*
X2468700Y1318700D1*
Y1718700D1*
X2243700Y1943700D1*
X2506200Y1343700D2*
Y1606200D1*
X2643700Y1743700D1*
X2743700D1*
X2319881Y1417519D2*
X2318700Y1416338D1*
Y1318700D1*
X2243700Y1243700D1*
D27*
X2465157Y1315157D3*
X2506200Y1343700D3*
X2319881Y1417519D3*
X2458700Y1928700D3*
X2393700Y1718700D3*
X2343700Y1593700D3*
X2618700Y1568700D3*
X2456200Y1243700D3*
X2543700Y1431200D3*
X2302245Y1943831D2*
D15*
X2685188D1*
X2316885Y1918962D2*
X2685188D1*
X2341752Y1894094D2*
X2685188D1*
X2366621Y1869225D2*
X2766214D1*
X2391489Y1844356D2*
X2766214D1*
X2296718Y1819487D2*
X2319457D1*
X2416392D2*
X2766214D1*
X2273214Y1794619D2*
X2344325D1*
X2441260D2*
X2717843D1*
X2295821Y1769750D2*
X2369192D1*
X2466128D2*
X2621781D1*
X2302209Y1744881D2*
X2394060D1*
X2490995D2*
X2596411D1*
X2296969Y1720012D2*
X2418928D1*
X2503662D2*
X2571543D1*
X2274148Y1695144D2*
X2433712D1*
X2503699D2*
X2546675D1*
X2643611D2*
X2713250D1*
X2295535Y1670275D2*
X2433712D1*
X2503699D2*
X2521808D1*
X2618743D2*
X2691863D1*
X2302209Y1645406D2*
X2433712D1*
X2593876D2*
X2685188D1*
X2297221Y1620537D2*
X2433712D1*
X2569007D2*
X2690176D1*
X2275044Y1595669D2*
X2433712D1*
X2544140D2*
X2712352D1*
X2295247Y1570800D2*
X2433712D1*
X2541197D2*
X2692150D1*
X2302172Y1545931D2*
X2433712D1*
X2541197D2*
X2685224D1*
X2297436Y1521062D2*
X2433712D1*
X2541197D2*
X2689961D1*
X2275906Y1496193D2*
X2433712D1*
X2541197D2*
X2711491D1*
X2294960Y1471325D2*
X2433712D1*
X2541197D2*
X2766214D1*
X2358798Y1446456D2*
X2433712D1*
X2541197D2*
X2766214D1*
X2368701Y1421587D2*
X2433712D1*
X2541197D2*
X2766214D1*
X2363965Y1396718D2*
X2433712D1*
X2541197D2*
X2723082D1*
X2353703Y1371850D2*
X2433712D1*
X2545718D2*
X2692760D1*
X2353703Y1346981D2*
X2428760D1*
X2555085D2*
X2685260D1*
X2353703Y1322112D2*
X2416667D1*
X2549881D2*
X2689494D1*
X2345592Y1297243D2*
X2419752D1*
X2510696D2*
X2709877D1*
X2320833Y1272375D2*
X2444441D1*
X2485864D2*
X2766214D1*
X2302100Y1247506D2*
X2766214D1*
X2298117Y1222637D2*
X2766214D1*
X2299728Y1968688D2*
Y1933665D1*
X2493414Y1739808D1*
X2496411Y1735682D1*
X2498726Y1731137D1*
X2500302Y1726287D1*
X2501100Y1721250D1*
X2501200Y1654396D1*
Y1647183D1*
X2622592Y1768413D1*
X2626718Y1771411D1*
X2631263Y1773726D1*
X2636113Y1775302D1*
X2641150Y1776100D1*
X2698065Y1776200D1*
X2704082Y1783318D1*
X2710768Y1789027D1*
X2718264Y1793621D1*
X2726386Y1796985D1*
X2734935Y1799037D1*
X2743700Y1799728D1*
X2752465Y1799037D1*
X2761014Y1796985D1*
X2768714Y1793815D1*
X2768700Y1887676D1*
X2687672Y1887672D1*
Y1968735D1*
X2299742Y1968700D1*
X2299653Y1841794D2*
X2299037Y1834935D1*
X2296985Y1826386D1*
X2293621Y1818264D1*
X2289027Y1810768D1*
X2283318Y1804082D1*
X2276632Y1798373D1*
X2268964Y1793700D1*
X2276632Y1789027D1*
X2283318Y1783318D1*
X2289027Y1776632D1*
X2293621Y1769136D1*
X2296985Y1761014D1*
X2299037Y1752465D1*
X2299728Y1743700D1*
X2299037Y1734935D1*
X2296985Y1726386D1*
X2293621Y1718264D1*
X2289027Y1710768D1*
X2283318Y1704082D1*
X2276632Y1698373D1*
X2268964Y1693700D1*
X2276632Y1689027D1*
X2283318Y1683318D1*
X2289027Y1676632D1*
X2293621Y1669136D1*
X2296985Y1661014D1*
X2299037Y1652465D1*
X2299728Y1643700D1*
X2299037Y1634935D1*
X2296985Y1626386D1*
X2293621Y1618264D1*
X2289027Y1610768D1*
X2283318Y1604082D1*
X2276632Y1598373D1*
X2268964Y1593700D1*
X2276632Y1589027D1*
X2283318Y1583318D1*
X2289027Y1576632D1*
X2293621Y1569136D1*
X2296985Y1561014D1*
X2299037Y1552465D1*
X2299728Y1543700D1*
X2299037Y1534935D1*
X2296985Y1526386D1*
X2293621Y1518264D1*
X2289027Y1510768D1*
X2283318Y1504082D1*
X2276632Y1498373D1*
X2268964Y1493700D1*
X2276632Y1489027D1*
X2283318Y1483318D1*
X2289027Y1476632D1*
X2293621Y1469136D1*
X2296985Y1461014D1*
X2297728Y1458384D1*
X2302086Y1460480D1*
X2309025Y1462734D1*
X2316233Y1463876D1*
X2323529D1*
X2330737Y1462734D1*
X2337676Y1460480D1*
X2344178Y1457167D1*
X2350081Y1452877D1*
X2355239Y1447718D1*
X2359529Y1441815D1*
X2362842Y1435314D1*
X2365096Y1428375D1*
X2366238Y1421167D1*
Y1413871D1*
X2365096Y1406663D1*
X2362842Y1399724D1*
X2359529Y1393222D1*
X2355239Y1387319D1*
X2351201Y1383196D1*
X2351100Y1316150D1*
X2350302Y1311113D1*
X2348726Y1306263D1*
X2346411Y1301718D1*
X2343413Y1297592D1*
X2298977Y1253015D1*
X2299728Y1243700D1*
X2299037Y1234935D1*
X2296985Y1226386D1*
X2293815Y1218686D1*
X2768684Y1218700D1*
X2768700Y1293578D1*
X2761014Y1290415D1*
X2752465Y1288363D1*
X2743700Y1287672D1*
X2734935Y1288363D1*
X2726386Y1290415D1*
X2718264Y1293779D1*
X2710768Y1298373D1*
X2704082Y1304082D1*
X2698373Y1310768D1*
X2693779Y1318264D1*
X2690415Y1326386D1*
X2688363Y1334935D1*
X2687672Y1343700D1*
X2688363Y1352465D1*
X2690415Y1361014D1*
X2693779Y1369136D1*
X2698373Y1376632D1*
X2704082Y1383318D1*
X2710768Y1389027D1*
X2718264Y1393621D1*
X2726386Y1396985D1*
X2734935Y1399037D1*
X2743700Y1399728D1*
X2752465Y1399037D1*
X2761014Y1396985D1*
X2768714Y1393815D1*
X2768700Y1493524D1*
X2761014Y1490415D1*
X2752465Y1488363D1*
X2743700Y1487672D1*
X2734935Y1488363D1*
X2726386Y1490415D1*
X2718264Y1493779D1*
X2710768Y1498373D1*
X2704082Y1504082D1*
X2698373Y1510768D1*
X2693779Y1518264D1*
X2690415Y1526386D1*
X2688363Y1534935D1*
X2687672Y1543700D1*
X2688363Y1552465D1*
X2690415Y1561014D1*
X2693779Y1569136D1*
X2698373Y1576632D1*
X2704082Y1583318D1*
X2710768Y1589027D1*
X2718436Y1593700D1*
X2710768Y1598373D1*
X2704082Y1604082D1*
X2698373Y1610768D1*
X2693779Y1618264D1*
X2690415Y1626386D1*
X2688363Y1634935D1*
X2687672Y1643700D1*
X2688363Y1652465D1*
X2690415Y1661014D1*
X2693779Y1669136D1*
X2698373Y1676632D1*
X2704082Y1683318D1*
X2710768Y1689027D1*
X2718436Y1693700D1*
X2710768Y1698373D1*
X2704082Y1704082D1*
X2698373Y1710768D1*
X2697768Y1711200D1*
X2657183D1*
X2538720Y1592758D1*
X2538700Y1376936D1*
X2543819Y1371032D1*
X2547632Y1364810D1*
X2550424Y1358069D1*
X2552128Y1350974D1*
X2552700Y1343700D1*
X2552128Y1336426D1*
X2550424Y1329331D1*
X2547632Y1322590D1*
X2543819Y1316368D1*
X2539081Y1310819D1*
X2533532Y1306081D1*
X2527310Y1302268D1*
X2520569Y1299476D1*
X2513474Y1297772D1*
X2508067Y1297273D1*
X2504805Y1290860D1*
X2500515Y1284957D1*
X2495356Y1279798D1*
X2489453Y1275508D1*
X2482952Y1272196D1*
X2476012Y1269941D1*
X2468805Y1268800D1*
X2461508D1*
X2454301Y1269941D1*
X2447361Y1272196D1*
X2440860Y1275508D1*
X2434957Y1279798D1*
X2429798Y1284957D1*
X2425508Y1290860D1*
X2422196Y1297361D1*
X2419941Y1304301D1*
X2418800Y1311508D1*
Y1318805D1*
X2419941Y1326012D1*
X2422196Y1332952D1*
X2425508Y1339453D1*
X2429798Y1345356D1*
X2434957Y1350515D1*
X2436200Y1351495D1*
Y1705209D1*
X2299692Y1841746D1*
D25*
X2743700Y1943700D3*
X2243700D3*
D26*
Y1843700D3*
Y1743700D3*
Y1643700D3*
Y1543700D3*
Y1443700D3*
Y1343700D3*
Y1243700D3*
X2743700Y1843700D3*
Y1743700D3*
Y1643700D3*
Y1543700D3*
Y1443700D3*
Y1343700D3*
Y1243700D3*
X3065157Y1315157D2*
D14*
X3068700Y1318700D1*
Y1718700D1*
X2843700Y1943700D1*
X3106200Y1343700D2*
Y1606200D1*
X3243700Y1743700D1*
X3343700D1*
X2919881Y1417519D2*
X2918700Y1416338D1*
Y1318700D1*
X2843700Y1243700D1*
D27*
X3065157Y1315157D3*
X3106200Y1343700D3*
X2919881Y1417519D3*
X3058700Y1928700D3*
X2993700Y1718700D3*
X2943700Y1593700D3*
X3218700Y1568700D3*
X3056200Y1243700D3*
X3143700Y1431200D3*
X2902245Y1943831D2*
D15*
X3285188D1*
X2916885Y1918962D2*
X3285188D1*
X2941752Y1894094D2*
X3285188D1*
X2966621Y1869225D2*
X3366214D1*
X2991489Y1844356D2*
X3366214D1*
X2896718Y1819487D2*
X2919457D1*
X3016392D2*
X3366214D1*
X2873214Y1794619D2*
X2944325D1*
X3041260D2*
X3317843D1*
X2895821Y1769750D2*
X2969192D1*
X3066128D2*
X3221781D1*
X2902209Y1744881D2*
X2994060D1*
X3090995D2*
X3196411D1*
X2896969Y1720012D2*
X3018928D1*
X3103662D2*
X3171543D1*
X2874148Y1695144D2*
X3033712D1*
X3103699D2*
X3146675D1*
X3243611D2*
X3313250D1*
X2895535Y1670275D2*
X3033712D1*
X3103699D2*
X3121808D1*
X3218743D2*
X3291863D1*
X2902209Y1645406D2*
X3033712D1*
X3193876D2*
X3285188D1*
X2897221Y1620537D2*
X3033712D1*
X3169007D2*
X3290176D1*
X2875044Y1595669D2*
X3033712D1*
X3144140D2*
X3312352D1*
X2895247Y1570800D2*
X3033712D1*
X3141197D2*
X3292150D1*
X2902172Y1545931D2*
X3033712D1*
X3141197D2*
X3285224D1*
X2897436Y1521062D2*
X3033712D1*
X3141197D2*
X3289961D1*
X2875906Y1496193D2*
X3033712D1*
X3141197D2*
X3311491D1*
X2894960Y1471325D2*
X3033712D1*
X3141197D2*
X3366214D1*
X2958798Y1446456D2*
X3033712D1*
X3141197D2*
X3366214D1*
X2968701Y1421587D2*
X3033712D1*
X3141197D2*
X3366214D1*
X2963965Y1396718D2*
X3033712D1*
X3141197D2*
X3323082D1*
X2953703Y1371850D2*
X3033712D1*
X3145718D2*
X3292760D1*
X2953703Y1346981D2*
X3028760D1*
X3155085D2*
X3285260D1*
X2953703Y1322112D2*
X3016667D1*
X3149881D2*
X3289494D1*
X2945592Y1297243D2*
X3019752D1*
X3110696D2*
X3309877D1*
X2920833Y1272375D2*
X3044441D1*
X3085864D2*
X3366214D1*
X2902100Y1247506D2*
X3366214D1*
X2898117Y1222637D2*
X3366214D1*
X2899728Y1968688D2*
Y1933665D1*
X3093414Y1739808D1*
X3096411Y1735682D1*
X3098726Y1731137D1*
X3100302Y1726287D1*
X3101100Y1721250D1*
X3101200Y1654396D1*
Y1647183D1*
X3222592Y1768413D1*
X3226718Y1771411D1*
X3231263Y1773726D1*
X3236113Y1775302D1*
X3241150Y1776100D1*
X3298065Y1776200D1*
X3304082Y1783318D1*
X3310768Y1789027D1*
X3318264Y1793621D1*
X3326386Y1796985D1*
X3334935Y1799037D1*
X3343700Y1799728D1*
X3352465Y1799037D1*
X3361014Y1796985D1*
X3368714Y1793815D1*
X3368700Y1887676D1*
X3287672Y1887672D1*
Y1968735D1*
X2899742Y1968700D1*
X2899653Y1841794D2*
X2899037Y1834935D1*
X2896985Y1826386D1*
X2893621Y1818264D1*
X2889027Y1810768D1*
X2883318Y1804082D1*
X2876632Y1798373D1*
X2868964Y1793700D1*
X2876632Y1789027D1*
X2883318Y1783318D1*
X2889027Y1776632D1*
X2893621Y1769136D1*
X2896985Y1761014D1*
X2899037Y1752465D1*
X2899728Y1743700D1*
X2899037Y1734935D1*
X2896985Y1726386D1*
X2893621Y1718264D1*
X2889027Y1710768D1*
X2883318Y1704082D1*
X2876632Y1698373D1*
X2868964Y1693700D1*
X2876632Y1689027D1*
X2883318Y1683318D1*
X2889027Y1676632D1*
X2893621Y1669136D1*
X2896985Y1661014D1*
X2899037Y1652465D1*
X2899728Y1643700D1*
X2899037Y1634935D1*
X2896985Y1626386D1*
X2893621Y1618264D1*
X2889027Y1610768D1*
X2883318Y1604082D1*
X2876632Y1598373D1*
X2868964Y1593700D1*
X2876632Y1589027D1*
X2883318Y1583318D1*
X2889027Y1576632D1*
X2893621Y1569136D1*
X2896985Y1561014D1*
X2899037Y1552465D1*
X2899728Y1543700D1*
X2899037Y1534935D1*
X2896985Y1526386D1*
X2893621Y1518264D1*
X2889027Y1510768D1*
X2883318Y1504082D1*
X2876632Y1498373D1*
X2868964Y1493700D1*
X2876632Y1489027D1*
X2883318Y1483318D1*
X2889027Y1476632D1*
X2893621Y1469136D1*
X2896985Y1461014D1*
X2897728Y1458384D1*
X2902086Y1460480D1*
X2909025Y1462734D1*
X2916233Y1463876D1*
X2923529D1*
X2930737Y1462734D1*
X2937676Y1460480D1*
X2944178Y1457167D1*
X2950081Y1452877D1*
X2955239Y1447718D1*
X2959529Y1441815D1*
X2962842Y1435314D1*
X2965096Y1428375D1*
X2966238Y1421167D1*
Y1413871D1*
X2965096Y1406663D1*
X2962842Y1399724D1*
X2959529Y1393222D1*
X2955239Y1387319D1*
X2951201Y1383196D1*
X2951100Y1316150D1*
X2950302Y1311113D1*
X2948726Y1306263D1*
X2946411Y1301718D1*
X2943413Y1297592D1*
X2898977Y1253015D1*
X2899728Y1243700D1*
X2899037Y1234935D1*
X2896985Y1226386D1*
X2893815Y1218686D1*
X3368684Y1218700D1*
X3368700Y1293578D1*
X3361014Y1290415D1*
X3352465Y1288363D1*
X3343700Y1287672D1*
X3334935Y1288363D1*
X3326386Y1290415D1*
X3318264Y1293779D1*
X3310768Y1298373D1*
X3304082Y1304082D1*
X3298373Y1310768D1*
X3293779Y1318264D1*
X3290415Y1326386D1*
X3288363Y1334935D1*
X3287672Y1343700D1*
X3288363Y1352465D1*
X3290415Y1361014D1*
X3293779Y1369136D1*
X3298373Y1376632D1*
X3304082Y1383318D1*
X3310768Y1389027D1*
X3318264Y1393621D1*
X3326386Y1396985D1*
X3334935Y1399037D1*
X3343700Y1399728D1*
X3352465Y1399037D1*
X3361014Y1396985D1*
X3368714Y1393815D1*
X3368700Y1493524D1*
X3361014Y1490415D1*
X3352465Y1488363D1*
X3343700Y1487672D1*
X3334935Y1488363D1*
X3326386Y1490415D1*
X3318264Y1493779D1*
X3310768Y1498373D1*
X3304082Y1504082D1*
X3298373Y1510768D1*
X3293779Y1518264D1*
X3290415Y1526386D1*
X3288363Y1534935D1*
X3287672Y1543700D1*
X3288363Y1552465D1*
X3290415Y1561014D1*
X3293779Y1569136D1*
X3298373Y1576632D1*
X3304082Y1583318D1*
X3310768Y1589027D1*
X3318436Y1593700D1*
X3310768Y1598373D1*
X3304082Y1604082D1*
X3298373Y1610768D1*
X3293779Y1618264D1*
X3290415Y1626386D1*
X3288363Y1634935D1*
X3287672Y1643700D1*
X3288363Y1652465D1*
X3290415Y1661014D1*
X3293779Y1669136D1*
X3298373Y1676632D1*
X3304082Y1683318D1*
X3310768Y1689027D1*
X3318436Y1693700D1*
X3310768Y1698373D1*
X3304082Y1704082D1*
X3298373Y1710768D1*
X3297768Y1711200D1*
X3257183D1*
X3138720Y1592758D1*
X3138700Y1376936D1*
X3143819Y1371032D1*
X3147632Y1364810D1*
X3150424Y1358069D1*
X3152128Y1350974D1*
X3152700Y1343700D1*
X3152128Y1336426D1*
X3150424Y1329331D1*
X3147632Y1322590D1*
X3143819Y1316368D1*
X3139081Y1310819D1*
X3133532Y1306081D1*
X3127310Y1302268D1*
X3120569Y1299476D1*
X3113474Y1297772D1*
X3108067Y1297273D1*
X3104805Y1290860D1*
X3100515Y1284957D1*
X3095356Y1279798D1*
X3089453Y1275508D1*
X3082952Y1272196D1*
X3076012Y1269941D1*
X3068805Y1268800D1*
X3061508D1*
X3054301Y1269941D1*
X3047361Y1272196D1*
X3040860Y1275508D1*
X3034957Y1279798D1*
X3029798Y1284957D1*
X3025508Y1290860D1*
X3022196Y1297361D1*
X3019941Y1304301D1*
X3018800Y1311508D1*
Y1318805D1*
X3019941Y1326012D1*
X3022196Y1332952D1*
X3025508Y1339453D1*
X3029798Y1345356D1*
X3034957Y1350515D1*
X3036200Y1351495D1*
Y1705209D1*
X2899692Y1841746D1*
D25*
X3343700Y1943700D3*
X2843700D3*
D26*
Y1843700D3*
Y1743700D3*
Y1643700D3*
Y1543700D3*
Y1443700D3*
Y1343700D3*
Y1243700D3*
X3343700Y1843700D3*
Y1743700D3*
Y1643700D3*
Y1543700D3*
Y1443700D3*
Y1343700D3*
Y1243700D3*
X665157Y2115157D2*
D14*
X668700Y2118700D1*
Y2518700D1*
X443700Y2743700D1*
X706200Y2143700D2*
Y2406200D1*
X843700Y2543700D1*
X943700D1*
X519881Y2217519D2*
X518700Y2216338D1*
Y2118700D1*
X443700Y2043700D1*
D27*
X665157Y2115157D3*
X706200Y2143700D3*
X519881Y2217519D3*
X658700Y2728700D3*
X593700Y2518700D3*
X543700Y2393700D3*
X818700Y2368700D3*
X656200Y2043700D3*
X743700Y2231200D3*
X502245Y2743831D2*
D15*
X885188D1*
X516885Y2718962D2*
X885188D1*
X541752Y2694094D2*
X885188D1*
X566621Y2669225D2*
X966214D1*
X591489Y2644356D2*
X966214D1*
X496718Y2619487D2*
X519457D1*
X616392D2*
X966214D1*
X473214Y2594619D2*
X544325D1*
X641260D2*
X917843D1*
X495821Y2569750D2*
X569192D1*
X666128D2*
X821781D1*
X502209Y2544881D2*
X594060D1*
X690995D2*
X796411D1*
X496969Y2520012D2*
X618928D1*
X703662D2*
X771543D1*
X474148Y2495144D2*
X633712D1*
X703699D2*
X746675D1*
X843611D2*
X913250D1*
X495535Y2470275D2*
X633712D1*
X703699D2*
X721808D1*
X818743D2*
X891863D1*
X502209Y2445406D2*
X633712D1*
X793876D2*
X885188D1*
X497221Y2420537D2*
X633712D1*
X769007D2*
X890176D1*
X475044Y2395669D2*
X633712D1*
X744140D2*
X912352D1*
X495247Y2370800D2*
X633712D1*
X741197D2*
X892150D1*
X502172Y2345931D2*
X633712D1*
X741197D2*
X885224D1*
X497436Y2321062D2*
X633712D1*
X741197D2*
X889961D1*
X475906Y2296193D2*
X633712D1*
X741197D2*
X911491D1*
X494960Y2271325D2*
X633712D1*
X741197D2*
X966214D1*
X558798Y2246456D2*
X633712D1*
X741197D2*
X966214D1*
X568701Y2221587D2*
X633712D1*
X741197D2*
X966214D1*
X563965Y2196718D2*
X633712D1*
X741197D2*
X923082D1*
X553703Y2171850D2*
X633712D1*
X745718D2*
X892760D1*
X553703Y2146981D2*
X628760D1*
X755085D2*
X885260D1*
X553703Y2122112D2*
X616667D1*
X749881D2*
X889494D1*
X545592Y2097243D2*
X619752D1*
X710696D2*
X909877D1*
X520833Y2072375D2*
X644441D1*
X685864D2*
X966214D1*
X502100Y2047506D2*
X966214D1*
X498117Y2022637D2*
X966214D1*
X499728Y2768688D2*
Y2733665D1*
X693414Y2539808D1*
X696411Y2535682D1*
X698726Y2531137D1*
X700302Y2526287D1*
X701100Y2521250D1*
X701200Y2454396D1*
Y2447183D1*
X822592Y2568413D1*
X826718Y2571411D1*
X831263Y2573726D1*
X836113Y2575302D1*
X841150Y2576100D1*
X898065Y2576200D1*
X904082Y2583318D1*
X910768Y2589027D1*
X918264Y2593621D1*
X926386Y2596985D1*
X934935Y2599037D1*
X943700Y2599728D1*
X952465Y2599037D1*
X961014Y2596985D1*
X968714Y2593815D1*
X968700Y2687676D1*
X887672Y2687672D1*
Y2768735D1*
X499742Y2768700D1*
X499653Y2641794D2*
X499037Y2634935D1*
X496985Y2626386D1*
X493621Y2618264D1*
X489027Y2610768D1*
X483318Y2604082D1*
X476632Y2598373D1*
X468964Y2593700D1*
X476632Y2589027D1*
X483318Y2583318D1*
X489027Y2576632D1*
X493621Y2569136D1*
X496985Y2561014D1*
X499037Y2552465D1*
X499728Y2543700D1*
X499037Y2534935D1*
X496985Y2526386D1*
X493621Y2518264D1*
X489027Y2510768D1*
X483318Y2504082D1*
X476632Y2498373D1*
X468964Y2493700D1*
X476632Y2489027D1*
X483318Y2483318D1*
X489027Y2476632D1*
X493621Y2469136D1*
X496985Y2461014D1*
X499037Y2452465D1*
X499728Y2443700D1*
X499037Y2434935D1*
X496985Y2426386D1*
X493621Y2418264D1*
X489027Y2410768D1*
X483318Y2404082D1*
X476632Y2398373D1*
X468964Y2393700D1*
X476632Y2389027D1*
X483318Y2383318D1*
X489027Y2376632D1*
X493621Y2369136D1*
X496985Y2361014D1*
X499037Y2352465D1*
X499728Y2343700D1*
X499037Y2334935D1*
X496985Y2326386D1*
X493621Y2318264D1*
X489027Y2310768D1*
X483318Y2304082D1*
X476632Y2298373D1*
X468964Y2293700D1*
X476632Y2289027D1*
X483318Y2283318D1*
X489027Y2276632D1*
X493621Y2269136D1*
X496985Y2261014D1*
X497728Y2258384D1*
X502086Y2260480D1*
X509025Y2262734D1*
X516233Y2263876D1*
X523529D1*
X530737Y2262734D1*
X537676Y2260480D1*
X544178Y2257167D1*
X550081Y2252877D1*
X555239Y2247718D1*
X559529Y2241815D1*
X562842Y2235314D1*
X565096Y2228375D1*
X566238Y2221167D1*
Y2213871D1*
X565096Y2206663D1*
X562842Y2199724D1*
X559529Y2193222D1*
X555239Y2187319D1*
X551201Y2183196D1*
X551100Y2116150D1*
X550302Y2111113D1*
X548726Y2106263D1*
X546411Y2101718D1*
X543413Y2097592D1*
X498977Y2053015D1*
X499728Y2043700D1*
X499037Y2034935D1*
X496985Y2026386D1*
X493815Y2018686D1*
X968684Y2018700D1*
X968700Y2093578D1*
X961014Y2090415D1*
X952465Y2088363D1*
X943700Y2087672D1*
X934935Y2088363D1*
X926386Y2090415D1*
X918264Y2093779D1*
X910768Y2098373D1*
X904082Y2104082D1*
X898373Y2110768D1*
X893779Y2118264D1*
X890415Y2126386D1*
X888363Y2134935D1*
X887672Y2143700D1*
X888363Y2152465D1*
X890415Y2161014D1*
X893779Y2169136D1*
X898373Y2176632D1*
X904082Y2183318D1*
X910768Y2189027D1*
X918264Y2193621D1*
X926386Y2196985D1*
X934935Y2199037D1*
X943700Y2199728D1*
X952465Y2199037D1*
X961014Y2196985D1*
X968714Y2193815D1*
X968700Y2293524D1*
X961014Y2290415D1*
X952465Y2288363D1*
X943700Y2287672D1*
X934935Y2288363D1*
X926386Y2290415D1*
X918264Y2293779D1*
X910768Y2298373D1*
X904082Y2304082D1*
X898373Y2310768D1*
X893779Y2318264D1*
X890415Y2326386D1*
X888363Y2334935D1*
X887672Y2343700D1*
X888363Y2352465D1*
X890415Y2361014D1*
X893779Y2369136D1*
X898373Y2376632D1*
X904082Y2383318D1*
X910768Y2389027D1*
X918436Y2393700D1*
X910768Y2398373D1*
X904082Y2404082D1*
X898373Y2410768D1*
X893779Y2418264D1*
X890415Y2426386D1*
X888363Y2434935D1*
X887672Y2443700D1*
X888363Y2452465D1*
X890415Y2461014D1*
X893779Y2469136D1*
X898373Y2476632D1*
X904082Y2483318D1*
X910768Y2489027D1*
X918436Y2493700D1*
X910768Y2498373D1*
X904082Y2504082D1*
X898373Y2510768D1*
X897768Y2511200D1*
X857183D1*
X738720Y2392758D1*
X738700Y2176936D1*
X743819Y2171032D1*
X747632Y2164810D1*
X750424Y2158069D1*
X752128Y2150974D1*
X752700Y2143700D1*
X752128Y2136426D1*
X750424Y2129331D1*
X747632Y2122590D1*
X743819Y2116368D1*
X739081Y2110819D1*
X733532Y2106081D1*
X727310Y2102268D1*
X720569Y2099476D1*
X713474Y2097772D1*
X708067Y2097273D1*
X704805Y2090860D1*
X700515Y2084957D1*
X695356Y2079798D1*
X689453Y2075508D1*
X682952Y2072196D1*
X676012Y2069941D1*
X668805Y2068800D1*
X661508D1*
X654301Y2069941D1*
X647361Y2072196D1*
X640860Y2075508D1*
X634957Y2079798D1*
X629798Y2084957D1*
X625508Y2090860D1*
X622196Y2097361D1*
X619941Y2104301D1*
X618800Y2111508D1*
Y2118805D1*
X619941Y2126012D1*
X622196Y2132952D1*
X625508Y2139453D1*
X629798Y2145356D1*
X634957Y2150515D1*
X636200Y2151495D1*
Y2505209D1*
X499692Y2641746D1*
D25*
X943700Y2743700D3*
X443700D3*
D26*
Y2643700D3*
Y2543700D3*
Y2443700D3*
Y2343700D3*
Y2243700D3*
Y2143700D3*
Y2043700D3*
X943700Y2643700D3*
Y2543700D3*
Y2443700D3*
Y2343700D3*
Y2243700D3*
Y2143700D3*
Y2043700D3*
X1265157Y2115157D2*
D14*
X1268700Y2118700D1*
Y2518700D1*
X1043700Y2743700D1*
X1306200Y2143700D2*
Y2406200D1*
X1443700Y2543700D1*
X1543700D1*
X1119881Y2217519D2*
X1118700Y2216338D1*
Y2118700D1*
X1043700Y2043700D1*
D27*
X1265157Y2115157D3*
X1306200Y2143700D3*
X1119881Y2217519D3*
X1258700Y2728700D3*
X1193700Y2518700D3*
X1143700Y2393700D3*
X1418700Y2368700D3*
X1256200Y2043700D3*
X1343700Y2231200D3*
X1102245Y2743831D2*
D15*
X1485188D1*
X1116885Y2718962D2*
X1485188D1*
X1141752Y2694094D2*
X1485188D1*
X1166621Y2669225D2*
X1566214D1*
X1191489Y2644356D2*
X1566214D1*
X1096718Y2619487D2*
X1119457D1*
X1216392D2*
X1566214D1*
X1073214Y2594619D2*
X1144325D1*
X1241260D2*
X1517843D1*
X1095821Y2569750D2*
X1169192D1*
X1266128D2*
X1421781D1*
X1102209Y2544881D2*
X1194060D1*
X1290995D2*
X1396411D1*
X1096969Y2520012D2*
X1218928D1*
X1303662D2*
X1371543D1*
X1074148Y2495144D2*
X1233712D1*
X1303699D2*
X1346675D1*
X1443611D2*
X1513250D1*
X1095535Y2470275D2*
X1233712D1*
X1303699D2*
X1321808D1*
X1418743D2*
X1491863D1*
X1102209Y2445406D2*
X1233712D1*
X1393876D2*
X1485188D1*
X1097221Y2420537D2*
X1233712D1*
X1369007D2*
X1490176D1*
X1075044Y2395669D2*
X1233712D1*
X1344140D2*
X1512352D1*
X1095247Y2370800D2*
X1233712D1*
X1341197D2*
X1492150D1*
X1102172Y2345931D2*
X1233712D1*
X1341197D2*
X1485224D1*
X1097436Y2321062D2*
X1233712D1*
X1341197D2*
X1489961D1*
X1075906Y2296193D2*
X1233712D1*
X1341197D2*
X1511491D1*
X1094960Y2271325D2*
X1233712D1*
X1341197D2*
X1566214D1*
X1158798Y2246456D2*
X1233712D1*
X1341197D2*
X1566214D1*
X1168701Y2221587D2*
X1233712D1*
X1341197D2*
X1566214D1*
X1163965Y2196718D2*
X1233712D1*
X1341197D2*
X1523082D1*
X1153703Y2171850D2*
X1233712D1*
X1345718D2*
X1492760D1*
X1153703Y2146981D2*
X1228760D1*
X1355085D2*
X1485260D1*
X1153703Y2122112D2*
X1216667D1*
X1349881D2*
X1489494D1*
X1145592Y2097243D2*
X1219752D1*
X1310696D2*
X1509877D1*
X1120833Y2072375D2*
X1244441D1*
X1285864D2*
X1566214D1*
X1102100Y2047506D2*
X1566214D1*
X1098117Y2022637D2*
X1566214D1*
X1099728Y2768688D2*
Y2733665D1*
X1293414Y2539808D1*
X1296411Y2535682D1*
X1298726Y2531137D1*
X1300302Y2526287D1*
X1301100Y2521250D1*
X1301200Y2454396D1*
Y2447183D1*
X1422592Y2568413D1*
X1426718Y2571411D1*
X1431263Y2573726D1*
X1436113Y2575302D1*
X1441150Y2576100D1*
X1498065Y2576200D1*
X1504082Y2583318D1*
X1510768Y2589027D1*
X1518264Y2593621D1*
X1526386Y2596985D1*
X1534935Y2599037D1*
X1543700Y2599728D1*
X1552465Y2599037D1*
X1561014Y2596985D1*
X1568714Y2593815D1*
X1568700Y2687676D1*
X1487672Y2687672D1*
Y2768735D1*
X1099742Y2768700D1*
X1099653Y2641794D2*
X1099037Y2634935D1*
X1096985Y2626386D1*
X1093621Y2618264D1*
X1089027Y2610768D1*
X1083318Y2604082D1*
X1076632Y2598373D1*
X1068964Y2593700D1*
X1076632Y2589027D1*
X1083318Y2583318D1*
X1089027Y2576632D1*
X1093621Y2569136D1*
X1096985Y2561014D1*
X1099037Y2552465D1*
X1099728Y2543700D1*
X1099037Y2534935D1*
X1096985Y2526386D1*
X1093621Y2518264D1*
X1089027Y2510768D1*
X1083318Y2504082D1*
X1076632Y2498373D1*
X1068964Y2493700D1*
X1076632Y2489027D1*
X1083318Y2483318D1*
X1089027Y2476632D1*
X1093621Y2469136D1*
X1096985Y2461014D1*
X1099037Y2452465D1*
X1099728Y2443700D1*
X1099037Y2434935D1*
X1096985Y2426386D1*
X1093621Y2418264D1*
X1089027Y2410768D1*
X1083318Y2404082D1*
X1076632Y2398373D1*
X1068964Y2393700D1*
X1076632Y2389027D1*
X1083318Y2383318D1*
X1089027Y2376632D1*
X1093621Y2369136D1*
X1096985Y2361014D1*
X1099037Y2352465D1*
X1099728Y2343700D1*
X1099037Y2334935D1*
X1096985Y2326386D1*
X1093621Y2318264D1*
X1089027Y2310768D1*
X1083318Y2304082D1*
X1076632Y2298373D1*
X1068964Y2293700D1*
X1076632Y2289027D1*
X1083318Y2283318D1*
X1089027Y2276632D1*
X1093621Y2269136D1*
X1096985Y2261014D1*
X1097728Y2258384D1*
X1102086Y2260480D1*
X1109025Y2262734D1*
X1116233Y2263876D1*
X1123529D1*
X1130737Y2262734D1*
X1137676Y2260480D1*
X1144178Y2257167D1*
X1150081Y2252877D1*
X1155239Y2247718D1*
X1159529Y2241815D1*
X1162842Y2235314D1*
X1165096Y2228375D1*
X1166238Y2221167D1*
Y2213871D1*
X1165096Y2206663D1*
X1162842Y2199724D1*
X1159529Y2193222D1*
X1155239Y2187319D1*
X1151201Y2183196D1*
X1151100Y2116150D1*
X1150302Y2111113D1*
X1148726Y2106263D1*
X1146411Y2101718D1*
X1143413Y2097592D1*
X1098977Y2053015D1*
X1099728Y2043700D1*
X1099037Y2034935D1*
X1096985Y2026386D1*
X1093815Y2018686D1*
X1568684Y2018700D1*
X1568700Y2093578D1*
X1561014Y2090415D1*
X1552465Y2088363D1*
X1543700Y2087672D1*
X1534935Y2088363D1*
X1526386Y2090415D1*
X1518264Y2093779D1*
X1510768Y2098373D1*
X1504082Y2104082D1*
X1498373Y2110768D1*
X1493779Y2118264D1*
X1490415Y2126386D1*
X1488363Y2134935D1*
X1487672Y2143700D1*
X1488363Y2152465D1*
X1490415Y2161014D1*
X1493779Y2169136D1*
X1498373Y2176632D1*
X1504082Y2183318D1*
X1510768Y2189027D1*
X1518264Y2193621D1*
X1526386Y2196985D1*
X1534935Y2199037D1*
X1543700Y2199728D1*
X1552465Y2199037D1*
X1561014Y2196985D1*
X1568714Y2193815D1*
X1568700Y2293524D1*
X1561014Y2290415D1*
X1552465Y2288363D1*
X1543700Y2287672D1*
X1534935Y2288363D1*
X1526386Y2290415D1*
X1518264Y2293779D1*
X1510768Y2298373D1*
X1504082Y2304082D1*
X1498373Y2310768D1*
X1493779Y2318264D1*
X1490415Y2326386D1*
X1488363Y2334935D1*
X1487672Y2343700D1*
X1488363Y2352465D1*
X1490415Y2361014D1*
X1493779Y2369136D1*
X1498373Y2376632D1*
X1504082Y2383318D1*
X1510768Y2389027D1*
X1518436Y2393700D1*
X1510768Y2398373D1*
X1504082Y2404082D1*
X1498373Y2410768D1*
X1493779Y2418264D1*
X1490415Y2426386D1*
X1488363Y2434935D1*
X1487672Y2443700D1*
X1488363Y2452465D1*
X1490415Y2461014D1*
X1493779Y2469136D1*
X1498373Y2476632D1*
X1504082Y2483318D1*
X1510768Y2489027D1*
X1518436Y2493700D1*
X1510768Y2498373D1*
X1504082Y2504082D1*
X1498373Y2510768D1*
X1497768Y2511200D1*
X1457183D1*
X1338720Y2392758D1*
X1338700Y2176936D1*
X1343819Y2171032D1*
X1347632Y2164810D1*
X1350424Y2158069D1*
X1352128Y2150974D1*
X1352700Y2143700D1*
X1352128Y2136426D1*
X1350424Y2129331D1*
X1347632Y2122590D1*
X1343819Y2116368D1*
X1339081Y2110819D1*
X1333532Y2106081D1*
X1327310Y2102268D1*
X1320569Y2099476D1*
X1313474Y2097772D1*
X1308067Y2097273D1*
X1304805Y2090860D1*
X1300515Y2084957D1*
X1295356Y2079798D1*
X1289453Y2075508D1*
X1282952Y2072196D1*
X1276012Y2069941D1*
X1268805Y2068800D1*
X1261508D1*
X1254301Y2069941D1*
X1247361Y2072196D1*
X1240860Y2075508D1*
X1234957Y2079798D1*
X1229798Y2084957D1*
X1225508Y2090860D1*
X1222196Y2097361D1*
X1219941Y2104301D1*
X1218800Y2111508D1*
Y2118805D1*
X1219941Y2126012D1*
X1222196Y2132952D1*
X1225508Y2139453D1*
X1229798Y2145356D1*
X1234957Y2150515D1*
X1236200Y2151495D1*
Y2505209D1*
X1099692Y2641746D1*
D25*
X1543700Y2743700D3*
X1043700D3*
D26*
Y2643700D3*
Y2543700D3*
Y2443700D3*
Y2343700D3*
Y2243700D3*
Y2143700D3*
Y2043700D3*
X1543700Y2643700D3*
Y2543700D3*
Y2443700D3*
Y2343700D3*
Y2243700D3*
Y2143700D3*
Y2043700D3*
X1865157Y2115157D2*
D14*
X1868700Y2118700D1*
Y2518700D1*
X1643700Y2743700D1*
X1906200Y2143700D2*
Y2406200D1*
X2043700Y2543700D1*
X2143700D1*
X1719881Y2217519D2*
X1718700Y2216338D1*
Y2118700D1*
X1643700Y2043700D1*
D27*
X1865157Y2115157D3*
X1906200Y2143700D3*
X1719881Y2217519D3*
X1858700Y2728700D3*
X1793700Y2518700D3*
X1743700Y2393700D3*
X2018700Y2368700D3*
X1856200Y2043700D3*
X1943700Y2231200D3*
X1702245Y2743831D2*
D15*
X2085188D1*
X1716885Y2718962D2*
X2085188D1*
X1741752Y2694094D2*
X2085188D1*
X1766621Y2669225D2*
X2166214D1*
X1791489Y2644356D2*
X2166214D1*
X1696718Y2619487D2*
X1719457D1*
X1816392D2*
X2166214D1*
X1673214Y2594619D2*
X1744325D1*
X1841260D2*
X2117843D1*
X1695821Y2569750D2*
X1769192D1*
X1866128D2*
X2021781D1*
X1702209Y2544881D2*
X1794060D1*
X1890995D2*
X1996411D1*
X1696969Y2520012D2*
X1818928D1*
X1903662D2*
X1971543D1*
X1674148Y2495144D2*
X1833712D1*
X1903699D2*
X1946675D1*
X2043611D2*
X2113250D1*
X1695535Y2470275D2*
X1833712D1*
X1903699D2*
X1921808D1*
X2018743D2*
X2091863D1*
X1702209Y2445406D2*
X1833712D1*
X1993876D2*
X2085188D1*
X1697221Y2420537D2*
X1833712D1*
X1969007D2*
X2090176D1*
X1675044Y2395669D2*
X1833712D1*
X1944140D2*
X2112352D1*
X1695247Y2370800D2*
X1833712D1*
X1941197D2*
X2092150D1*
X1702172Y2345931D2*
X1833712D1*
X1941197D2*
X2085224D1*
X1697436Y2321062D2*
X1833712D1*
X1941197D2*
X2089961D1*
X1675906Y2296193D2*
X1833712D1*
X1941197D2*
X2111491D1*
X1694960Y2271325D2*
X1833712D1*
X1941197D2*
X2166214D1*
X1758798Y2246456D2*
X1833712D1*
X1941197D2*
X2166214D1*
X1768701Y2221587D2*
X1833712D1*
X1941197D2*
X2166214D1*
X1763965Y2196718D2*
X1833712D1*
X1941197D2*
X2123082D1*
X1753703Y2171850D2*
X1833712D1*
X1945718D2*
X2092760D1*
X1753703Y2146981D2*
X1828760D1*
X1955085D2*
X2085260D1*
X1753703Y2122112D2*
X1816667D1*
X1949881D2*
X2089494D1*
X1745592Y2097243D2*
X1819752D1*
X1910696D2*
X2109877D1*
X1720833Y2072375D2*
X1844441D1*
X1885864D2*
X2166214D1*
X1702100Y2047506D2*
X2166214D1*
X1698117Y2022637D2*
X2166214D1*
X1699728Y2768688D2*
Y2733665D1*
X1893414Y2539808D1*
X1896411Y2535682D1*
X1898726Y2531137D1*
X1900302Y2526287D1*
X1901100Y2521250D1*
X1901200Y2454396D1*
Y2447183D1*
X2022592Y2568413D1*
X2026718Y2571411D1*
X2031263Y2573726D1*
X2036113Y2575302D1*
X2041150Y2576100D1*
X2098065Y2576200D1*
X2104082Y2583318D1*
X2110768Y2589027D1*
X2118264Y2593621D1*
X2126386Y2596985D1*
X2134935Y2599037D1*
X2143700Y2599728D1*
X2152465Y2599037D1*
X2161014Y2596985D1*
X2168714Y2593815D1*
X2168700Y2687676D1*
X2087672Y2687672D1*
Y2768735D1*
X1699742Y2768700D1*
X1699653Y2641794D2*
X1699037Y2634935D1*
X1696985Y2626386D1*
X1693621Y2618264D1*
X1689027Y2610768D1*
X1683318Y2604082D1*
X1676632Y2598373D1*
X1668964Y2593700D1*
X1676632Y2589027D1*
X1683318Y2583318D1*
X1689027Y2576632D1*
X1693621Y2569136D1*
X1696985Y2561014D1*
X1699037Y2552465D1*
X1699728Y2543700D1*
X1699037Y2534935D1*
X1696985Y2526386D1*
X1693621Y2518264D1*
X1689027Y2510768D1*
X1683318Y2504082D1*
X1676632Y2498373D1*
X1668964Y2493700D1*
X1676632Y2489027D1*
X1683318Y2483318D1*
X1689027Y2476632D1*
X1693621Y2469136D1*
X1696985Y2461014D1*
X1699037Y2452465D1*
X1699728Y2443700D1*
X1699037Y2434935D1*
X1696985Y2426386D1*
X1693621Y2418264D1*
X1689027Y2410768D1*
X1683318Y2404082D1*
X1676632Y2398373D1*
X1668964Y2393700D1*
X1676632Y2389027D1*
X1683318Y2383318D1*
X1689027Y2376632D1*
X1693621Y2369136D1*
X1696985Y2361014D1*
X1699037Y2352465D1*
X1699728Y2343700D1*
X1699037Y2334935D1*
X1696985Y2326386D1*
X1693621Y2318264D1*
X1689027Y2310768D1*
X1683318Y2304082D1*
X1676632Y2298373D1*
X1668964Y2293700D1*
X1676632Y2289027D1*
X1683318Y2283318D1*
X1689027Y2276632D1*
X1693621Y2269136D1*
X1696985Y2261014D1*
X1697728Y2258384D1*
X1702086Y2260480D1*
X1709025Y2262734D1*
X1716233Y2263876D1*
X1723529D1*
X1730737Y2262734D1*
X1737676Y2260480D1*
X1744178Y2257167D1*
X1750081Y2252877D1*
X1755239Y2247718D1*
X1759529Y2241815D1*
X1762842Y2235314D1*
X1765096Y2228375D1*
X1766238Y2221167D1*
Y2213871D1*
X1765096Y2206663D1*
X1762842Y2199724D1*
X1759529Y2193222D1*
X1755239Y2187319D1*
X1751201Y2183196D1*
X1751100Y2116150D1*
X1750302Y2111113D1*
X1748726Y2106263D1*
X1746411Y2101718D1*
X1743413Y2097592D1*
X1698977Y2053015D1*
X1699728Y2043700D1*
X1699037Y2034935D1*
X1696985Y2026386D1*
X1693815Y2018686D1*
X2168684Y2018700D1*
X2168700Y2093578D1*
X2161014Y2090415D1*
X2152465Y2088363D1*
X2143700Y2087672D1*
X2134935Y2088363D1*
X2126386Y2090415D1*
X2118264Y2093779D1*
X2110768Y2098373D1*
X2104082Y2104082D1*
X2098373Y2110768D1*
X2093779Y2118264D1*
X2090415Y2126386D1*
X2088363Y2134935D1*
X2087672Y2143700D1*
X2088363Y2152465D1*
X2090415Y2161014D1*
X2093779Y2169136D1*
X2098373Y2176632D1*
X2104082Y2183318D1*
X2110768Y2189027D1*
X2118264Y2193621D1*
X2126386Y2196985D1*
X2134935Y2199037D1*
X2143700Y2199728D1*
X2152465Y2199037D1*
X2161014Y2196985D1*
X2168714Y2193815D1*
X2168700Y2293524D1*
X2161014Y2290415D1*
X2152465Y2288363D1*
X2143700Y2287672D1*
X2134935Y2288363D1*
X2126386Y2290415D1*
X2118264Y2293779D1*
X2110768Y2298373D1*
X2104082Y2304082D1*
X2098373Y2310768D1*
X2093779Y2318264D1*
X2090415Y2326386D1*
X2088363Y2334935D1*
X2087672Y2343700D1*
X2088363Y2352465D1*
X2090415Y2361014D1*
X2093779Y2369136D1*
X2098373Y2376632D1*
X2104082Y2383318D1*
X2110768Y2389027D1*
X2118436Y2393700D1*
X2110768Y2398373D1*
X2104082Y2404082D1*
X2098373Y2410768D1*
X2093779Y2418264D1*
X2090415Y2426386D1*
X2088363Y2434935D1*
X2087672Y2443700D1*
X2088363Y2452465D1*
X2090415Y2461014D1*
X2093779Y2469136D1*
X2098373Y2476632D1*
X2104082Y2483318D1*
X2110768Y2489027D1*
X2118436Y2493700D1*
X2110768Y2498373D1*
X2104082Y2504082D1*
X2098373Y2510768D1*
X2097768Y2511200D1*
X2057183D1*
X1938720Y2392758D1*
X1938700Y2176936D1*
X1943819Y2171032D1*
X1947632Y2164810D1*
X1950424Y2158069D1*
X1952128Y2150974D1*
X1952700Y2143700D1*
X1952128Y2136426D1*
X1950424Y2129331D1*
X1947632Y2122590D1*
X1943819Y2116368D1*
X1939081Y2110819D1*
X1933532Y2106081D1*
X1927310Y2102268D1*
X1920569Y2099476D1*
X1913474Y2097772D1*
X1908067Y2097273D1*
X1904805Y2090860D1*
X1900515Y2084957D1*
X1895356Y2079798D1*
X1889453Y2075508D1*
X1882952Y2072196D1*
X1876012Y2069941D1*
X1868805Y2068800D1*
X1861508D1*
X1854301Y2069941D1*
X1847361Y2072196D1*
X1840860Y2075508D1*
X1834957Y2079798D1*
X1829798Y2084957D1*
X1825508Y2090860D1*
X1822196Y2097361D1*
X1819941Y2104301D1*
X1818800Y2111508D1*
Y2118805D1*
X1819941Y2126012D1*
X1822196Y2132952D1*
X1825508Y2139453D1*
X1829798Y2145356D1*
X1834957Y2150515D1*
X1836200Y2151495D1*
Y2505209D1*
X1699692Y2641746D1*
D25*
X2143700Y2743700D3*
X1643700D3*
D26*
Y2643700D3*
Y2543700D3*
Y2443700D3*
Y2343700D3*
Y2243700D3*
Y2143700D3*
Y2043700D3*
X2143700Y2643700D3*
Y2543700D3*
Y2443700D3*
Y2343700D3*
Y2243700D3*
Y2143700D3*
Y2043700D3*
X2465157Y2115157D2*
D14*
X2468700Y2118700D1*
Y2518700D1*
X2243700Y2743700D1*
X2506200Y2143700D2*
Y2406200D1*
X2643700Y2543700D1*
X2743700D1*
X2319881Y2217519D2*
X2318700Y2216338D1*
Y2118700D1*
X2243700Y2043700D1*
D27*
X2465157Y2115157D3*
X2506200Y2143700D3*
X2319881Y2217519D3*
X2458700Y2728700D3*
X2393700Y2518700D3*
X2343700Y2393700D3*
X2618700Y2368700D3*
X2456200Y2043700D3*
X2543700Y2231200D3*
X2302245Y2743831D2*
D15*
X2685188D1*
X2316885Y2718962D2*
X2685188D1*
X2341752Y2694094D2*
X2685188D1*
X2366621Y2669225D2*
X2766214D1*
X2391489Y2644356D2*
X2766214D1*
X2296718Y2619487D2*
X2319457D1*
X2416392D2*
X2766214D1*
X2273214Y2594619D2*
X2344325D1*
X2441260D2*
X2717843D1*
X2295821Y2569750D2*
X2369192D1*
X2466128D2*
X2621781D1*
X2302209Y2544881D2*
X2394060D1*
X2490995D2*
X2596411D1*
X2296969Y2520012D2*
X2418928D1*
X2503662D2*
X2571543D1*
X2274148Y2495144D2*
X2433712D1*
X2503699D2*
X2546675D1*
X2643611D2*
X2713250D1*
X2295535Y2470275D2*
X2433712D1*
X2503699D2*
X2521808D1*
X2618743D2*
X2691863D1*
X2302209Y2445406D2*
X2433712D1*
X2593876D2*
X2685188D1*
X2297221Y2420537D2*
X2433712D1*
X2569007D2*
X2690176D1*
X2275044Y2395669D2*
X2433712D1*
X2544140D2*
X2712352D1*
X2295247Y2370800D2*
X2433712D1*
X2541197D2*
X2692150D1*
X2302172Y2345931D2*
X2433712D1*
X2541197D2*
X2685224D1*
X2297436Y2321062D2*
X2433712D1*
X2541197D2*
X2689961D1*
X2275906Y2296193D2*
X2433712D1*
X2541197D2*
X2711491D1*
X2294960Y2271325D2*
X2433712D1*
X2541197D2*
X2766214D1*
X2358798Y2246456D2*
X2433712D1*
X2541197D2*
X2766214D1*
X2368701Y2221587D2*
X2433712D1*
X2541197D2*
X2766214D1*
X2363965Y2196718D2*
X2433712D1*
X2541197D2*
X2723082D1*
X2353703Y2171850D2*
X2433712D1*
X2545718D2*
X2692760D1*
X2353703Y2146981D2*
X2428760D1*
X2555085D2*
X2685260D1*
X2353703Y2122112D2*
X2416667D1*
X2549881D2*
X2689494D1*
X2345592Y2097243D2*
X2419752D1*
X2510696D2*
X2709877D1*
X2320833Y2072375D2*
X2444441D1*
X2485864D2*
X2766214D1*
X2302100Y2047506D2*
X2766214D1*
X2298117Y2022637D2*
X2766214D1*
X2299728Y2768688D2*
Y2733665D1*
X2493414Y2539808D1*
X2496411Y2535682D1*
X2498726Y2531137D1*
X2500302Y2526287D1*
X2501100Y2521250D1*
X2501200Y2454396D1*
Y2447183D1*
X2622592Y2568413D1*
X2626718Y2571411D1*
X2631263Y2573726D1*
X2636113Y2575302D1*
X2641150Y2576100D1*
X2698065Y2576200D1*
X2704082Y2583318D1*
X2710768Y2589027D1*
X2718264Y2593621D1*
X2726386Y2596985D1*
X2734935Y2599037D1*
X2743700Y2599728D1*
X2752465Y2599037D1*
X2761014Y2596985D1*
X2768714Y2593815D1*
X2768700Y2687676D1*
X2687672Y2687672D1*
Y2768735D1*
X2299742Y2768700D1*
X2299653Y2641794D2*
X2299037Y2634935D1*
X2296985Y2626386D1*
X2293621Y2618264D1*
X2289027Y2610768D1*
X2283318Y2604082D1*
X2276632Y2598373D1*
X2268964Y2593700D1*
X2276632Y2589027D1*
X2283318Y2583318D1*
X2289027Y2576632D1*
X2293621Y2569136D1*
X2296985Y2561014D1*
X2299037Y2552465D1*
X2299728Y2543700D1*
X2299037Y2534935D1*
X2296985Y2526386D1*
X2293621Y2518264D1*
X2289027Y2510768D1*
X2283318Y2504082D1*
X2276632Y2498373D1*
X2268964Y2493700D1*
X2276632Y2489027D1*
X2283318Y2483318D1*
X2289027Y2476632D1*
X2293621Y2469136D1*
X2296985Y2461014D1*
X2299037Y2452465D1*
X2299728Y2443700D1*
X2299037Y2434935D1*
X2296985Y2426386D1*
X2293621Y2418264D1*
X2289027Y2410768D1*
X2283318Y2404082D1*
X2276632Y2398373D1*
X2268964Y2393700D1*
X2276632Y2389027D1*
X2283318Y2383318D1*
X2289027Y2376632D1*
X2293621Y2369136D1*
X2296985Y2361014D1*
X2299037Y2352465D1*
X2299728Y2343700D1*
X2299037Y2334935D1*
X2296985Y2326386D1*
X2293621Y2318264D1*
X2289027Y2310768D1*
X2283318Y2304082D1*
X2276632Y2298373D1*
X2268964Y2293700D1*
X2276632Y2289027D1*
X2283318Y2283318D1*
X2289027Y2276632D1*
X2293621Y2269136D1*
X2296985Y2261014D1*
X2297728Y2258384D1*
X2302086Y2260480D1*
X2309025Y2262734D1*
X2316233Y2263876D1*
X2323529D1*
X2330737Y2262734D1*
X2337676Y2260480D1*
X2344178Y2257167D1*
X2350081Y2252877D1*
X2355239Y2247718D1*
X2359529Y2241815D1*
X2362842Y2235314D1*
X2365096Y2228375D1*
X2366238Y2221167D1*
Y2213871D1*
X2365096Y2206663D1*
X2362842Y2199724D1*
X2359529Y2193222D1*
X2355239Y2187319D1*
X2351201Y2183196D1*
X2351100Y2116150D1*
X2350302Y2111113D1*
X2348726Y2106263D1*
X2346411Y2101718D1*
X2343413Y2097592D1*
X2298977Y2053015D1*
X2299728Y2043700D1*
X2299037Y2034935D1*
X2296985Y2026386D1*
X2293815Y2018686D1*
X2768684Y2018700D1*
X2768700Y2093578D1*
X2761014Y2090415D1*
X2752465Y2088363D1*
X2743700Y2087672D1*
X2734935Y2088363D1*
X2726386Y2090415D1*
X2718264Y2093779D1*
X2710768Y2098373D1*
X2704082Y2104082D1*
X2698373Y2110768D1*
X2693779Y2118264D1*
X2690415Y2126386D1*
X2688363Y2134935D1*
X2687672Y2143700D1*
X2688363Y2152465D1*
X2690415Y2161014D1*
X2693779Y2169136D1*
X2698373Y2176632D1*
X2704082Y2183318D1*
X2710768Y2189027D1*
X2718264Y2193621D1*
X2726386Y2196985D1*
X2734935Y2199037D1*
X2743700Y2199728D1*
X2752465Y2199037D1*
X2761014Y2196985D1*
X2768714Y2193815D1*
X2768700Y2293524D1*
X2761014Y2290415D1*
X2752465Y2288363D1*
X2743700Y2287672D1*
X2734935Y2288363D1*
X2726386Y2290415D1*
X2718264Y2293779D1*
X2710768Y2298373D1*
X2704082Y2304082D1*
X2698373Y2310768D1*
X2693779Y2318264D1*
X2690415Y2326386D1*
X2688363Y2334935D1*
X2687672Y2343700D1*
X2688363Y2352465D1*
X2690415Y2361014D1*
X2693779Y2369136D1*
X2698373Y2376632D1*
X2704082Y2383318D1*
X2710768Y2389027D1*
X2718436Y2393700D1*
X2710768Y2398373D1*
X2704082Y2404082D1*
X2698373Y2410768D1*
X2693779Y2418264D1*
X2690415Y2426386D1*
X2688363Y2434935D1*
X2687672Y2443700D1*
X2688363Y2452465D1*
X2690415Y2461014D1*
X2693779Y2469136D1*
X2698373Y2476632D1*
X2704082Y2483318D1*
X2710768Y2489027D1*
X2718436Y2493700D1*
X2710768Y2498373D1*
X2704082Y2504082D1*
X2698373Y2510768D1*
X2697768Y2511200D1*
X2657183D1*
X2538720Y2392758D1*
X2538700Y2176936D1*
X2543819Y2171032D1*
X2547632Y2164810D1*
X2550424Y2158069D1*
X2552128Y2150974D1*
X2552700Y2143700D1*
X2552128Y2136426D1*
X2550424Y2129331D1*
X2547632Y2122590D1*
X2543819Y2116368D1*
X2539081Y2110819D1*
X2533532Y2106081D1*
X2527310Y2102268D1*
X2520569Y2099476D1*
X2513474Y2097772D1*
X2508067Y2097273D1*
X2504805Y2090860D1*
X2500515Y2084957D1*
X2495356Y2079798D1*
X2489453Y2075508D1*
X2482952Y2072196D1*
X2476012Y2069941D1*
X2468805Y2068800D1*
X2461508D1*
X2454301Y2069941D1*
X2447361Y2072196D1*
X2440860Y2075508D1*
X2434957Y2079798D1*
X2429798Y2084957D1*
X2425508Y2090860D1*
X2422196Y2097361D1*
X2419941Y2104301D1*
X2418800Y2111508D1*
Y2118805D1*
X2419941Y2126012D1*
X2422196Y2132952D1*
X2425508Y2139453D1*
X2429798Y2145356D1*
X2434957Y2150515D1*
X2436200Y2151495D1*
Y2505209D1*
X2299692Y2641746D1*
D25*
X2743700Y2743700D3*
X2243700D3*
D26*
Y2643700D3*
Y2543700D3*
Y2443700D3*
Y2343700D3*
Y2243700D3*
Y2143700D3*
Y2043700D3*
X2743700Y2643700D3*
Y2543700D3*
Y2443700D3*
Y2343700D3*
Y2243700D3*
Y2143700D3*
Y2043700D3*
X3065157Y2115157D2*
D14*
X3068700Y2118700D1*
Y2518700D1*
X2843700Y2743700D1*
X3106200Y2143700D2*
Y2406200D1*
X3243700Y2543700D1*
X3343700D1*
X2919881Y2217519D2*
X2918700Y2216338D1*
Y2118700D1*
X2843700Y2043700D1*
D27*
X3065157Y2115157D3*
X3106200Y2143700D3*
X2919881Y2217519D3*
X3058700Y2728700D3*
X2993700Y2518700D3*
X2943700Y2393700D3*
X3218700Y2368700D3*
X3056200Y2043700D3*
X3143700Y2231200D3*
X2902245Y2743831D2*
D15*
X3285188D1*
X2916885Y2718962D2*
X3285188D1*
X2941752Y2694094D2*
X3285188D1*
X2966621Y2669225D2*
X3366214D1*
X2991489Y2644356D2*
X3366214D1*
X2896718Y2619487D2*
X2919457D1*
X3016392D2*
X3366214D1*
X2873214Y2594619D2*
X2944325D1*
X3041260D2*
X3317843D1*
X2895821Y2569750D2*
X2969192D1*
X3066128D2*
X3221781D1*
X2902209Y2544881D2*
X2994060D1*
X3090995D2*
X3196411D1*
X2896969Y2520012D2*
X3018928D1*
X3103662D2*
X3171543D1*
X2874148Y2495144D2*
X3033712D1*
X3103699D2*
X3146675D1*
X3243611D2*
X3313250D1*
X2895535Y2470275D2*
X3033712D1*
X3103699D2*
X3121808D1*
X3218743D2*
X3291863D1*
X2902209Y2445406D2*
X3033712D1*
X3193876D2*
X3285188D1*
X2897221Y2420537D2*
X3033712D1*
X3169007D2*
X3290176D1*
X2875044Y2395669D2*
X3033712D1*
X3144140D2*
X3312352D1*
X2895247Y2370800D2*
X3033712D1*
X3141197D2*
X3292150D1*
X2902172Y2345931D2*
X3033712D1*
X3141197D2*
X3285224D1*
X2897436Y2321062D2*
X3033712D1*
X3141197D2*
X3289961D1*
X2875906Y2296193D2*
X3033712D1*
X3141197D2*
X3311491D1*
X2894960Y2271325D2*
X3033712D1*
X3141197D2*
X3366214D1*
X2958798Y2246456D2*
X3033712D1*
X3141197D2*
X3366214D1*
X2968701Y2221587D2*
X3033712D1*
X3141197D2*
X3366214D1*
X2963965Y2196718D2*
X3033712D1*
X3141197D2*
X3323082D1*
X2953703Y2171850D2*
X3033712D1*
X3145718D2*
X3292760D1*
X2953703Y2146981D2*
X3028760D1*
X3155085D2*
X3285260D1*
X2953703Y2122112D2*
X3016667D1*
X3149881D2*
X3289494D1*
X2945592Y2097243D2*
X3019752D1*
X3110696D2*
X3309877D1*
X2920833Y2072375D2*
X3044441D1*
X3085864D2*
X3366214D1*
X2902100Y2047506D2*
X3366214D1*
X2898117Y2022637D2*
X3366214D1*
X2899728Y2768688D2*
Y2733665D1*
X3093414Y2539808D1*
X3096411Y2535682D1*
X3098726Y2531137D1*
X3100302Y2526287D1*
X3101100Y2521250D1*
X3101200Y2454396D1*
Y2447183D1*
X3222592Y2568413D1*
X3226718Y2571411D1*
X3231263Y2573726D1*
X3236113Y2575302D1*
X3241150Y2576100D1*
X3298065Y2576200D1*
X3304082Y2583318D1*
X3310768Y2589027D1*
X3318264Y2593621D1*
X3326386Y2596985D1*
X3334935Y2599037D1*
X3343700Y2599728D1*
X3352465Y2599037D1*
X3361014Y2596985D1*
X3368714Y2593815D1*
X3368700Y2687676D1*
X3287672Y2687672D1*
Y2768735D1*
X2899742Y2768700D1*
X2899653Y2641794D2*
X2899037Y2634935D1*
X2896985Y2626386D1*
X2893621Y2618264D1*
X2889027Y2610768D1*
X2883318Y2604082D1*
X2876632Y2598373D1*
X2868964Y2593700D1*
X2876632Y2589027D1*
X2883318Y2583318D1*
X2889027Y2576632D1*
X2893621Y2569136D1*
X2896985Y2561014D1*
X2899037Y2552465D1*
X2899728Y2543700D1*
X2899037Y2534935D1*
X2896985Y2526386D1*
X2893621Y2518264D1*
X2889027Y2510768D1*
X2883318Y2504082D1*
X2876632Y2498373D1*
X2868964Y2493700D1*
X2876632Y2489027D1*
X2883318Y2483318D1*
X2889027Y2476632D1*
X2893621Y2469136D1*
X2896985Y2461014D1*
X2899037Y2452465D1*
X2899728Y2443700D1*
X2899037Y2434935D1*
X2896985Y2426386D1*
X2893621Y2418264D1*
X2889027Y2410768D1*
X2883318Y2404082D1*
X2876632Y2398373D1*
X2868964Y2393700D1*
X2876632Y2389027D1*
X2883318Y2383318D1*
X2889027Y2376632D1*
X2893621Y2369136D1*
X2896985Y2361014D1*
X2899037Y2352465D1*
X2899728Y2343700D1*
X2899037Y2334935D1*
X2896985Y2326386D1*
X2893621Y2318264D1*
X2889027Y2310768D1*
X2883318Y2304082D1*
X2876632Y2298373D1*
X2868964Y2293700D1*
X2876632Y2289027D1*
X2883318Y2283318D1*
X2889027Y2276632D1*
X2893621Y2269136D1*
X2896985Y2261014D1*
X2897728Y2258384D1*
X2902086Y2260480D1*
X2909025Y2262734D1*
X2916233Y2263876D1*
X2923529D1*
X2930737Y2262734D1*
X2937676Y2260480D1*
X2944178Y2257167D1*
X2950081Y2252877D1*
X2955239Y2247718D1*
X2959529Y2241815D1*
X2962842Y2235314D1*
X2965096Y2228375D1*
X2966238Y2221167D1*
Y2213871D1*
X2965096Y2206663D1*
X2962842Y2199724D1*
X2959529Y2193222D1*
X2955239Y2187319D1*
X2951201Y2183196D1*
X2951100Y2116150D1*
X2950302Y2111113D1*
X2948726Y2106263D1*
X2946411Y2101718D1*
X2943413Y2097592D1*
X2898977Y2053015D1*
X2899728Y2043700D1*
X2899037Y2034935D1*
X2896985Y2026386D1*
X2893815Y2018686D1*
X3368684Y2018700D1*
X3368700Y2093578D1*
X3361014Y2090415D1*
X3352465Y2088363D1*
X3343700Y2087672D1*
X3334935Y2088363D1*
X3326386Y2090415D1*
X3318264Y2093779D1*
X3310768Y2098373D1*
X3304082Y2104082D1*
X3298373Y2110768D1*
X3293779Y2118264D1*
X3290415Y2126386D1*
X3288363Y2134935D1*
X3287672Y2143700D1*
X3288363Y2152465D1*
X3290415Y2161014D1*
X3293779Y2169136D1*
X3298373Y2176632D1*
X3304082Y2183318D1*
X3310768Y2189027D1*
X3318264Y2193621D1*
X3326386Y2196985D1*
X3334935Y2199037D1*
X3343700Y2199728D1*
X3352465Y2199037D1*
X3361014Y2196985D1*
X3368714Y2193815D1*
X3368700Y2293524D1*
X3361014Y2290415D1*
X3352465Y2288363D1*
X3343700Y2287672D1*
X3334935Y2288363D1*
X3326386Y2290415D1*
X3318264Y2293779D1*
X3310768Y2298373D1*
X3304082Y2304082D1*
X3298373Y2310768D1*
X3293779Y2318264D1*
X3290415Y2326386D1*
X3288363Y2334935D1*
X3287672Y2343700D1*
X3288363Y2352465D1*
X3290415Y2361014D1*
X3293779Y2369136D1*
X3298373Y2376632D1*
X3304082Y2383318D1*
X3310768Y2389027D1*
X3318436Y2393700D1*
X3310768Y2398373D1*
X3304082Y2404082D1*
X3298373Y2410768D1*
X3293779Y2418264D1*
X3290415Y2426386D1*
X3288363Y2434935D1*
X3287672Y2443700D1*
X3288363Y2452465D1*
X3290415Y2461014D1*
X3293779Y2469136D1*
X3298373Y2476632D1*
X3304082Y2483318D1*
X3310768Y2489027D1*
X3318436Y2493700D1*
X3310768Y2498373D1*
X3304082Y2504082D1*
X3298373Y2510768D1*
X3297768Y2511200D1*
X3257183D1*
X3138720Y2392758D1*
X3138700Y2176936D1*
X3143819Y2171032D1*
X3147632Y2164810D1*
X3150424Y2158069D1*
X3152128Y2150974D1*
X3152700Y2143700D1*
X3152128Y2136426D1*
X3150424Y2129331D1*
X3147632Y2122590D1*
X3143819Y2116368D1*
X3139081Y2110819D1*
X3133532Y2106081D1*
X3127310Y2102268D1*
X3120569Y2099476D1*
X3113474Y2097772D1*
X3108067Y2097273D1*
X3104805Y2090860D1*
X3100515Y2084957D1*
X3095356Y2079798D1*
X3089453Y2075508D1*
X3082952Y2072196D1*
X3076012Y2069941D1*
X3068805Y2068800D1*
X3061508D1*
X3054301Y2069941D1*
X3047361Y2072196D1*
X3040860Y2075508D1*
X3034957Y2079798D1*
X3029798Y2084957D1*
X3025508Y2090860D1*
X3022196Y2097361D1*
X3019941Y2104301D1*
X3018800Y2111508D1*
Y2118805D1*
X3019941Y2126012D1*
X3022196Y2132952D1*
X3025508Y2139453D1*
X3029798Y2145356D1*
X3034957Y2150515D1*
X3036200Y2151495D1*
Y2505209D1*
X2899692Y2641746D1*
D25*
X3343700Y2743700D3*
X2843700D3*
D26*
Y2643700D3*
Y2543700D3*
Y2443700D3*
Y2343700D3*
Y2243700D3*
Y2143700D3*
Y2043700D3*
X3343700Y2643700D3*
Y2543700D3*
Y2443700D3*
Y2343700D3*
Y2243700D3*
Y2143700D3*
Y2043700D3*
X665157Y2915157D2*
D14*
X668700Y2918700D1*
Y3318700D1*
X443700Y3543700D1*
X706200Y2943700D2*
Y3206200D1*
X843700Y3343700D1*
X943700D1*
X519881Y3017519D2*
X518700Y3016338D1*
Y2918700D1*
X443700Y2843700D1*
D27*
X665157Y2915157D3*
X706200Y2943700D3*
X519881Y3017519D3*
X658700Y3528700D3*
X593700Y3318700D3*
X543700Y3193700D3*
X818700Y3168700D3*
X656200Y2843700D3*
X743700Y3031200D3*
X502245Y3543831D2*
D15*
X885188D1*
X516885Y3518962D2*
X885188D1*
X541752Y3494094D2*
X885188D1*
X566621Y3469225D2*
X966214D1*
X591489Y3444356D2*
X966214D1*
X496718Y3419487D2*
X519457D1*
X616392D2*
X966214D1*
X473214Y3394619D2*
X544325D1*
X641260D2*
X917843D1*
X495821Y3369750D2*
X569192D1*
X666128D2*
X821781D1*
X502209Y3344881D2*
X594060D1*
X690995D2*
X796411D1*
X496969Y3320012D2*
X618928D1*
X703662D2*
X771543D1*
X474148Y3295144D2*
X633712D1*
X703699D2*
X746675D1*
X843611D2*
X913250D1*
X495535Y3270275D2*
X633712D1*
X703699D2*
X721808D1*
X818743D2*
X891863D1*
X502209Y3245406D2*
X633712D1*
X793876D2*
X885188D1*
X497221Y3220537D2*
X633712D1*
X769007D2*
X890176D1*
X475044Y3195669D2*
X633712D1*
X744140D2*
X912352D1*
X495247Y3170800D2*
X633712D1*
X741197D2*
X892150D1*
X502172Y3145931D2*
X633712D1*
X741197D2*
X885224D1*
X497436Y3121062D2*
X633712D1*
X741197D2*
X889961D1*
X475906Y3096193D2*
X633712D1*
X741197D2*
X911491D1*
X494960Y3071325D2*
X633712D1*
X741197D2*
X966214D1*
X558798Y3046456D2*
X633712D1*
X741197D2*
X966214D1*
X568701Y3021587D2*
X633712D1*
X741197D2*
X966214D1*
X563965Y2996718D2*
X633712D1*
X741197D2*
X923082D1*
X553703Y2971850D2*
X633712D1*
X745718D2*
X892760D1*
X553703Y2946981D2*
X628760D1*
X755085D2*
X885260D1*
X553703Y2922112D2*
X616667D1*
X749881D2*
X889494D1*
X545592Y2897243D2*
X619752D1*
X710696D2*
X909877D1*
X520833Y2872375D2*
X644441D1*
X685864D2*
X966214D1*
X502100Y2847506D2*
X966214D1*
X498117Y2822637D2*
X966214D1*
X499728Y3568688D2*
Y3533665D1*
X693414Y3339808D1*
X696411Y3335682D1*
X698726Y3331137D1*
X700302Y3326287D1*
X701100Y3321250D1*
X701200Y3254396D1*
Y3247183D1*
X822592Y3368413D1*
X826718Y3371411D1*
X831263Y3373726D1*
X836113Y3375302D1*
X841150Y3376100D1*
X898065Y3376200D1*
X904082Y3383318D1*
X910768Y3389027D1*
X918264Y3393621D1*
X926386Y3396985D1*
X934935Y3399037D1*
X943700Y3399728D1*
X952465Y3399037D1*
X961014Y3396985D1*
X968714Y3393815D1*
X968700Y3487676D1*
X887672Y3487672D1*
Y3568735D1*
X499742Y3568700D1*
X499653Y3441794D2*
X499037Y3434935D1*
X496985Y3426386D1*
X493621Y3418264D1*
X489027Y3410768D1*
X483318Y3404082D1*
X476632Y3398373D1*
X468964Y3393700D1*
X476632Y3389027D1*
X483318Y3383318D1*
X489027Y3376632D1*
X493621Y3369136D1*
X496985Y3361014D1*
X499037Y3352465D1*
X499728Y3343700D1*
X499037Y3334935D1*
X496985Y3326386D1*
X493621Y3318264D1*
X489027Y3310768D1*
X483318Y3304082D1*
X476632Y3298373D1*
X468964Y3293700D1*
X476632Y3289027D1*
X483318Y3283318D1*
X489027Y3276632D1*
X493621Y3269136D1*
X496985Y3261014D1*
X499037Y3252465D1*
X499728Y3243700D1*
X499037Y3234935D1*
X496985Y3226386D1*
X493621Y3218264D1*
X489027Y3210768D1*
X483318Y3204082D1*
X476632Y3198373D1*
X468964Y3193700D1*
X476632Y3189027D1*
X483318Y3183318D1*
X489027Y3176632D1*
X493621Y3169136D1*
X496985Y3161014D1*
X499037Y3152465D1*
X499728Y3143700D1*
X499037Y3134935D1*
X496985Y3126386D1*
X493621Y3118264D1*
X489027Y3110768D1*
X483318Y3104082D1*
X476632Y3098373D1*
X468964Y3093700D1*
X476632Y3089027D1*
X483318Y3083318D1*
X489027Y3076632D1*
X493621Y3069136D1*
X496985Y3061014D1*
X497728Y3058384D1*
X502086Y3060480D1*
X509025Y3062734D1*
X516233Y3063876D1*
X523529D1*
X530737Y3062734D1*
X537676Y3060480D1*
X544178Y3057167D1*
X550081Y3052877D1*
X555239Y3047718D1*
X559529Y3041815D1*
X562842Y3035314D1*
X565096Y3028375D1*
X566238Y3021167D1*
Y3013871D1*
X565096Y3006663D1*
X562842Y2999724D1*
X559529Y2993222D1*
X555239Y2987319D1*
X551201Y2983196D1*
X551100Y2916150D1*
X550302Y2911113D1*
X548726Y2906263D1*
X546411Y2901718D1*
X543413Y2897592D1*
X498977Y2853015D1*
X499728Y2843700D1*
X499037Y2834935D1*
X496985Y2826386D1*
X493815Y2818686D1*
X968684Y2818700D1*
X968700Y2893578D1*
X961014Y2890415D1*
X952465Y2888363D1*
X943700Y2887672D1*
X934935Y2888363D1*
X926386Y2890415D1*
X918264Y2893779D1*
X910768Y2898373D1*
X904082Y2904082D1*
X898373Y2910768D1*
X893779Y2918264D1*
X890415Y2926386D1*
X888363Y2934935D1*
X887672Y2943700D1*
X888363Y2952465D1*
X890415Y2961014D1*
X893779Y2969136D1*
X898373Y2976632D1*
X904082Y2983318D1*
X910768Y2989027D1*
X918264Y2993621D1*
X926386Y2996985D1*
X934935Y2999037D1*
X943700Y2999728D1*
X952465Y2999037D1*
X961014Y2996985D1*
X968714Y2993815D1*
X968700Y3093524D1*
X961014Y3090415D1*
X952465Y3088363D1*
X943700Y3087672D1*
X934935Y3088363D1*
X926386Y3090415D1*
X918264Y3093779D1*
X910768Y3098373D1*
X904082Y3104082D1*
X898373Y3110768D1*
X893779Y3118264D1*
X890415Y3126386D1*
X888363Y3134935D1*
X887672Y3143700D1*
X888363Y3152465D1*
X890415Y3161014D1*
X893779Y3169136D1*
X898373Y3176632D1*
X904082Y3183318D1*
X910768Y3189027D1*
X918436Y3193700D1*
X910768Y3198373D1*
X904082Y3204082D1*
X898373Y3210768D1*
X893779Y3218264D1*
X890415Y3226386D1*
X888363Y3234935D1*
X887672Y3243700D1*
X888363Y3252465D1*
X890415Y3261014D1*
X893779Y3269136D1*
X898373Y3276632D1*
X904082Y3283318D1*
X910768Y3289027D1*
X918436Y3293700D1*
X910768Y3298373D1*
X904082Y3304082D1*
X898373Y3310768D1*
X897768Y3311200D1*
X857183D1*
X738720Y3192758D1*
X738700Y2976936D1*
X743819Y2971032D1*
X747632Y2964810D1*
X750424Y2958069D1*
X752128Y2950974D1*
X752700Y2943700D1*
X752128Y2936426D1*
X750424Y2929331D1*
X747632Y2922590D1*
X743819Y2916368D1*
X739081Y2910819D1*
X733532Y2906081D1*
X727310Y2902268D1*
X720569Y2899476D1*
X713474Y2897772D1*
X708067Y2897273D1*
X704805Y2890860D1*
X700515Y2884957D1*
X695356Y2879798D1*
X689453Y2875508D1*
X682952Y2872196D1*
X676012Y2869941D1*
X668805Y2868800D1*
X661508D1*
X654301Y2869941D1*
X647361Y2872196D1*
X640860Y2875508D1*
X634957Y2879798D1*
X629798Y2884957D1*
X625508Y2890860D1*
X622196Y2897361D1*
X619941Y2904301D1*
X618800Y2911508D1*
Y2918805D1*
X619941Y2926012D1*
X622196Y2932952D1*
X625508Y2939453D1*
X629798Y2945356D1*
X634957Y2950515D1*
X636200Y2951495D1*
Y3305209D1*
X499692Y3441746D1*
D25*
X943700Y3543700D3*
X443700D3*
D26*
Y3443700D3*
Y3343700D3*
Y3243700D3*
Y3143700D3*
Y3043700D3*
Y2943700D3*
Y2843700D3*
X943700Y3443700D3*
Y3343700D3*
Y3243700D3*
Y3143700D3*
Y3043700D3*
Y2943700D3*
Y2843700D3*
X1265157Y2915157D2*
D14*
X1268700Y2918700D1*
Y3318700D1*
X1043700Y3543700D1*
X1306200Y2943700D2*
Y3206200D1*
X1443700Y3343700D1*
X1543700D1*
X1119881Y3017519D2*
X1118700Y3016338D1*
Y2918700D1*
X1043700Y2843700D1*
D27*
X1265157Y2915157D3*
X1306200Y2943700D3*
X1119881Y3017519D3*
X1258700Y3528700D3*
X1193700Y3318700D3*
X1143700Y3193700D3*
X1418700Y3168700D3*
X1256200Y2843700D3*
X1343700Y3031200D3*
X1102245Y3543831D2*
D15*
X1485188D1*
X1116885Y3518962D2*
X1485188D1*
X1141752Y3494094D2*
X1485188D1*
X1166621Y3469225D2*
X1566214D1*
X1191489Y3444356D2*
X1566214D1*
X1096718Y3419487D2*
X1119457D1*
X1216392D2*
X1566214D1*
X1073214Y3394619D2*
X1144325D1*
X1241260D2*
X1517843D1*
X1095821Y3369750D2*
X1169192D1*
X1266128D2*
X1421781D1*
X1102209Y3344881D2*
X1194060D1*
X1290995D2*
X1396411D1*
X1096969Y3320012D2*
X1218928D1*
X1303662D2*
X1371543D1*
X1074148Y3295144D2*
X1233712D1*
X1303699D2*
X1346675D1*
X1443611D2*
X1513250D1*
X1095535Y3270275D2*
X1233712D1*
X1303699D2*
X1321808D1*
X1418743D2*
X1491863D1*
X1102209Y3245406D2*
X1233712D1*
X1393876D2*
X1485188D1*
X1097221Y3220537D2*
X1233712D1*
X1369007D2*
X1490176D1*
X1075044Y3195669D2*
X1233712D1*
X1344140D2*
X1512352D1*
X1095247Y3170800D2*
X1233712D1*
X1341197D2*
X1492150D1*
X1102172Y3145931D2*
X1233712D1*
X1341197D2*
X1485224D1*
X1097436Y3121062D2*
X1233712D1*
X1341197D2*
X1489961D1*
X1075906Y3096193D2*
X1233712D1*
X1341197D2*
X1511491D1*
X1094960Y3071325D2*
X1233712D1*
X1341197D2*
X1566214D1*
X1158798Y3046456D2*
X1233712D1*
X1341197D2*
X1566214D1*
X1168701Y3021587D2*
X1233712D1*
X1341197D2*
X1566214D1*
X1163965Y2996718D2*
X1233712D1*
X1341197D2*
X1523082D1*
X1153703Y2971850D2*
X1233712D1*
X1345718D2*
X1492760D1*
X1153703Y2946981D2*
X1228760D1*
X1355085D2*
X1485260D1*
X1153703Y2922112D2*
X1216667D1*
X1349881D2*
X1489494D1*
X1145592Y2897243D2*
X1219752D1*
X1310696D2*
X1509877D1*
X1120833Y2872375D2*
X1244441D1*
X1285864D2*
X1566214D1*
X1102100Y2847506D2*
X1566214D1*
X1098117Y2822637D2*
X1566214D1*
X1099728Y3568688D2*
Y3533665D1*
X1293414Y3339808D1*
X1296411Y3335682D1*
X1298726Y3331137D1*
X1300302Y3326287D1*
X1301100Y3321250D1*
X1301200Y3254396D1*
Y3247183D1*
X1422592Y3368413D1*
X1426718Y3371411D1*
X1431263Y3373726D1*
X1436113Y3375302D1*
X1441150Y3376100D1*
X1498065Y3376200D1*
X1504082Y3383318D1*
X1510768Y3389027D1*
X1518264Y3393621D1*
X1526386Y3396985D1*
X1534935Y3399037D1*
X1543700Y3399728D1*
X1552465Y3399037D1*
X1561014Y3396985D1*
X1568714Y3393815D1*
X1568700Y3487676D1*
X1487672Y3487672D1*
Y3568735D1*
X1099742Y3568700D1*
X1099653Y3441794D2*
X1099037Y3434935D1*
X1096985Y3426386D1*
X1093621Y3418264D1*
X1089027Y3410768D1*
X1083318Y3404082D1*
X1076632Y3398373D1*
X1068964Y3393700D1*
X1076632Y3389027D1*
X1083318Y3383318D1*
X1089027Y3376632D1*
X1093621Y3369136D1*
X1096985Y3361014D1*
X1099037Y3352465D1*
X1099728Y3343700D1*
X1099037Y3334935D1*
X1096985Y3326386D1*
X1093621Y3318264D1*
X1089027Y3310768D1*
X1083318Y3304082D1*
X1076632Y3298373D1*
X1068964Y3293700D1*
X1076632Y3289027D1*
X1083318Y3283318D1*
X1089027Y3276632D1*
X1093621Y3269136D1*
X1096985Y3261014D1*
X1099037Y3252465D1*
X1099728Y3243700D1*
X1099037Y3234935D1*
X1096985Y3226386D1*
X1093621Y3218264D1*
X1089027Y3210768D1*
X1083318Y3204082D1*
X1076632Y3198373D1*
X1068964Y3193700D1*
X1076632Y3189027D1*
X1083318Y3183318D1*
X1089027Y3176632D1*
X1093621Y3169136D1*
X1096985Y3161014D1*
X1099037Y3152465D1*
X1099728Y3143700D1*
X1099037Y3134935D1*
X1096985Y3126386D1*
X1093621Y3118264D1*
X1089027Y3110768D1*
X1083318Y3104082D1*
X1076632Y3098373D1*
X1068964Y3093700D1*
X1076632Y3089027D1*
X1083318Y3083318D1*
X1089027Y3076632D1*
X1093621Y3069136D1*
X1096985Y3061014D1*
X1097728Y3058384D1*
X1102086Y3060480D1*
X1109025Y3062734D1*
X1116233Y3063876D1*
X1123529D1*
X1130737Y3062734D1*
X1137676Y3060480D1*
X1144178Y3057167D1*
X1150081Y3052877D1*
X1155239Y3047718D1*
X1159529Y3041815D1*
X1162842Y3035314D1*
X1165096Y3028375D1*
X1166238Y3021167D1*
Y3013871D1*
X1165096Y3006663D1*
X1162842Y2999724D1*
X1159529Y2993222D1*
X1155239Y2987319D1*
X1151201Y2983196D1*
X1151100Y2916150D1*
X1150302Y2911113D1*
X1148726Y2906263D1*
X1146411Y2901718D1*
X1143413Y2897592D1*
X1098977Y2853015D1*
X1099728Y2843700D1*
X1099037Y2834935D1*
X1096985Y2826386D1*
X1093815Y2818686D1*
X1568684Y2818700D1*
X1568700Y2893578D1*
X1561014Y2890415D1*
X1552465Y2888363D1*
X1543700Y2887672D1*
X1534935Y2888363D1*
X1526386Y2890415D1*
X1518264Y2893779D1*
X1510768Y2898373D1*
X1504082Y2904082D1*
X1498373Y2910768D1*
X1493779Y2918264D1*
X1490415Y2926386D1*
X1488363Y2934935D1*
X1487672Y2943700D1*
X1488363Y2952465D1*
X1490415Y2961014D1*
X1493779Y2969136D1*
X1498373Y2976632D1*
X1504082Y2983318D1*
X1510768Y2989027D1*
X1518264Y2993621D1*
X1526386Y2996985D1*
X1534935Y2999037D1*
X1543700Y2999728D1*
X1552465Y2999037D1*
X1561014Y2996985D1*
X1568714Y2993815D1*
X1568700Y3093524D1*
X1561014Y3090415D1*
X1552465Y3088363D1*
X1543700Y3087672D1*
X1534935Y3088363D1*
X1526386Y3090415D1*
X1518264Y3093779D1*
X1510768Y3098373D1*
X1504082Y3104082D1*
X1498373Y3110768D1*
X1493779Y3118264D1*
X1490415Y3126386D1*
X1488363Y3134935D1*
X1487672Y3143700D1*
X1488363Y3152465D1*
X1490415Y3161014D1*
X1493779Y3169136D1*
X1498373Y3176632D1*
X1504082Y3183318D1*
X1510768Y3189027D1*
X1518436Y3193700D1*
X1510768Y3198373D1*
X1504082Y3204082D1*
X1498373Y3210768D1*
X1493779Y3218264D1*
X1490415Y3226386D1*
X1488363Y3234935D1*
X1487672Y3243700D1*
X1488363Y3252465D1*
X1490415Y3261014D1*
X1493779Y3269136D1*
X1498373Y3276632D1*
X1504082Y3283318D1*
X1510768Y3289027D1*
X1518436Y3293700D1*
X1510768Y3298373D1*
X1504082Y3304082D1*
X1498373Y3310768D1*
X1497768Y3311200D1*
X1457183D1*
X1338720Y3192758D1*
X1338700Y2976936D1*
X1343819Y2971032D1*
X1347632Y2964810D1*
X1350424Y2958069D1*
X1352128Y2950974D1*
X1352700Y2943700D1*
X1352128Y2936426D1*
X1350424Y2929331D1*
X1347632Y2922590D1*
X1343819Y2916368D1*
X1339081Y2910819D1*
X1333532Y2906081D1*
X1327310Y2902268D1*
X1320569Y2899476D1*
X1313474Y2897772D1*
X1308067Y2897273D1*
X1304805Y2890860D1*
X1300515Y2884957D1*
X1295356Y2879798D1*
X1289453Y2875508D1*
X1282952Y2872196D1*
X1276012Y2869941D1*
X1268805Y2868800D1*
X1261508D1*
X1254301Y2869941D1*
X1247361Y2872196D1*
X1240860Y2875508D1*
X1234957Y2879798D1*
X1229798Y2884957D1*
X1225508Y2890860D1*
X1222196Y2897361D1*
X1219941Y2904301D1*
X1218800Y2911508D1*
Y2918805D1*
X1219941Y2926012D1*
X1222196Y2932952D1*
X1225508Y2939453D1*
X1229798Y2945356D1*
X1234957Y2950515D1*
X1236200Y2951495D1*
Y3305209D1*
X1099692Y3441746D1*
D25*
X1543700Y3543700D3*
X1043700D3*
D26*
Y3443700D3*
Y3343700D3*
Y3243700D3*
Y3143700D3*
Y3043700D3*
Y2943700D3*
Y2843700D3*
X1543700Y3443700D3*
Y3343700D3*
Y3243700D3*
Y3143700D3*
Y3043700D3*
Y2943700D3*
Y2843700D3*
X1865157Y2915157D2*
D14*
X1868700Y2918700D1*
Y3318700D1*
X1643700Y3543700D1*
X1906200Y2943700D2*
Y3206200D1*
X2043700Y3343700D1*
X2143700D1*
X1719881Y3017519D2*
X1718700Y3016338D1*
Y2918700D1*
X1643700Y2843700D1*
D27*
X1865157Y2915157D3*
X1906200Y2943700D3*
X1719881Y3017519D3*
X1858700Y3528700D3*
X1793700Y3318700D3*
X1743700Y3193700D3*
X2018700Y3168700D3*
X1856200Y2843700D3*
X1943700Y3031200D3*
X1702245Y3543831D2*
D15*
X2085188D1*
X1716885Y3518962D2*
X2085188D1*
X1741752Y3494094D2*
X2085188D1*
X1766621Y3469225D2*
X2166214D1*
X1791489Y3444356D2*
X2166214D1*
X1696718Y3419487D2*
X1719457D1*
X1816392D2*
X2166214D1*
X1673214Y3394619D2*
X1744325D1*
X1841260D2*
X2117843D1*
X1695821Y3369750D2*
X1769192D1*
X1866128D2*
X2021781D1*
X1702209Y3344881D2*
X1794060D1*
X1890995D2*
X1996411D1*
X1696969Y3320012D2*
X1818928D1*
X1903662D2*
X1971543D1*
X1674148Y3295144D2*
X1833712D1*
X1903699D2*
X1946675D1*
X2043611D2*
X2113250D1*
X1695535Y3270275D2*
X1833712D1*
X1903699D2*
X1921808D1*
X2018743D2*
X2091863D1*
X1702209Y3245406D2*
X1833712D1*
X1993876D2*
X2085188D1*
X1697221Y3220537D2*
X1833712D1*
X1969007D2*
X2090176D1*
X1675044Y3195669D2*
X1833712D1*
X1944140D2*
X2112352D1*
X1695247Y3170800D2*
X1833712D1*
X1941197D2*
X2092150D1*
X1702172Y3145931D2*
X1833712D1*
X1941197D2*
X2085224D1*
X1697436Y3121062D2*
X1833712D1*
X1941197D2*
X2089961D1*
X1675906Y3096193D2*
X1833712D1*
X1941197D2*
X2111491D1*
X1694960Y3071325D2*
X1833712D1*
X1941197D2*
X2166214D1*
X1758798Y3046456D2*
X1833712D1*
X1941197D2*
X2166214D1*
X1768701Y3021587D2*
X1833712D1*
X1941197D2*
X2166214D1*
X1763965Y2996718D2*
X1833712D1*
X1941197D2*
X2123082D1*
X1753703Y2971850D2*
X1833712D1*
X1945718D2*
X2092760D1*
X1753703Y2946981D2*
X1828760D1*
X1955085D2*
X2085260D1*
X1753703Y2922112D2*
X1816667D1*
X1949881D2*
X2089494D1*
X1745592Y2897243D2*
X1819752D1*
X1910696D2*
X2109877D1*
X1720833Y2872375D2*
X1844441D1*
X1885864D2*
X2166214D1*
X1702100Y2847506D2*
X2166214D1*
X1698117Y2822637D2*
X2166214D1*
X1699728Y3568688D2*
Y3533665D1*
X1893414Y3339808D1*
X1896411Y3335682D1*
X1898726Y3331137D1*
X1900302Y3326287D1*
X1901100Y3321250D1*
X1901200Y3254396D1*
Y3247183D1*
X2022592Y3368413D1*
X2026718Y3371411D1*
X2031263Y3373726D1*
X2036113Y3375302D1*
X2041150Y3376100D1*
X2098065Y3376200D1*
X2104082Y3383318D1*
X2110768Y3389027D1*
X2118264Y3393621D1*
X2126386Y3396985D1*
X2134935Y3399037D1*
X2143700Y3399728D1*
X2152465Y3399037D1*
X2161014Y3396985D1*
X2168714Y3393815D1*
X2168700Y3487676D1*
X2087672Y3487672D1*
Y3568735D1*
X1699742Y3568700D1*
X1699653Y3441794D2*
X1699037Y3434935D1*
X1696985Y3426386D1*
X1693621Y3418264D1*
X1689027Y3410768D1*
X1683318Y3404082D1*
X1676632Y3398373D1*
X1668964Y3393700D1*
X1676632Y3389027D1*
X1683318Y3383318D1*
X1689027Y3376632D1*
X1693621Y3369136D1*
X1696985Y3361014D1*
X1699037Y3352465D1*
X1699728Y3343700D1*
X1699037Y3334935D1*
X1696985Y3326386D1*
X1693621Y3318264D1*
X1689027Y3310768D1*
X1683318Y3304082D1*
X1676632Y3298373D1*
X1668964Y3293700D1*
X1676632Y3289027D1*
X1683318Y3283318D1*
X1689027Y3276632D1*
X1693621Y3269136D1*
X1696985Y3261014D1*
X1699037Y3252465D1*
X1699728Y3243700D1*
X1699037Y3234935D1*
X1696985Y3226386D1*
X1693621Y3218264D1*
X1689027Y3210768D1*
X1683318Y3204082D1*
X1676632Y3198373D1*
X1668964Y3193700D1*
X1676632Y3189027D1*
X1683318Y3183318D1*
X1689027Y3176632D1*
X1693621Y3169136D1*
X1696985Y3161014D1*
X1699037Y3152465D1*
X1699728Y3143700D1*
X1699037Y3134935D1*
X1696985Y3126386D1*
X1693621Y3118264D1*
X1689027Y3110768D1*
X1683318Y3104082D1*
X1676632Y3098373D1*
X1668964Y3093700D1*
X1676632Y3089027D1*
X1683318Y3083318D1*
X1689027Y3076632D1*
X1693621Y3069136D1*
X1696985Y3061014D1*
X1697728Y3058384D1*
X1702086Y3060480D1*
X1709025Y3062734D1*
X1716233Y3063876D1*
X1723529D1*
X1730737Y3062734D1*
X1737676Y3060480D1*
X1744178Y3057167D1*
X1750081Y3052877D1*
X1755239Y3047718D1*
X1759529Y3041815D1*
X1762842Y3035314D1*
X1765096Y3028375D1*
X1766238Y3021167D1*
Y3013871D1*
X1765096Y3006663D1*
X1762842Y2999724D1*
X1759529Y2993222D1*
X1755239Y2987319D1*
X1751201Y2983196D1*
X1751100Y2916150D1*
X1750302Y2911113D1*
X1748726Y2906263D1*
X1746411Y2901718D1*
X1743413Y2897592D1*
X1698977Y2853015D1*
X1699728Y2843700D1*
X1699037Y2834935D1*
X1696985Y2826386D1*
X1693815Y2818686D1*
X2168684Y2818700D1*
X2168700Y2893578D1*
X2161014Y2890415D1*
X2152465Y2888363D1*
X2143700Y2887672D1*
X2134935Y2888363D1*
X2126386Y2890415D1*
X2118264Y2893779D1*
X2110768Y2898373D1*
X2104082Y2904082D1*
X2098373Y2910768D1*
X2093779Y2918264D1*
X2090415Y2926386D1*
X2088363Y2934935D1*
X2087672Y2943700D1*
X2088363Y2952465D1*
X2090415Y2961014D1*
X2093779Y2969136D1*
X2098373Y2976632D1*
X2104082Y2983318D1*
X2110768Y2989027D1*
X2118264Y2993621D1*
X2126386Y2996985D1*
X2134935Y2999037D1*
X2143700Y2999728D1*
X2152465Y2999037D1*
X2161014Y2996985D1*
X2168714Y2993815D1*
X2168700Y3093524D1*
X2161014Y3090415D1*
X2152465Y3088363D1*
X2143700Y3087672D1*
X2134935Y3088363D1*
X2126386Y3090415D1*
X2118264Y3093779D1*
X2110768Y3098373D1*
X2104082Y3104082D1*
X2098373Y3110768D1*
X2093779Y3118264D1*
X2090415Y3126386D1*
X2088363Y3134935D1*
X2087672Y3143700D1*
X2088363Y3152465D1*
X2090415Y3161014D1*
X2093779Y3169136D1*
X2098373Y3176632D1*
X2104082Y3183318D1*
X2110768Y3189027D1*
X2118436Y3193700D1*
X2110768Y3198373D1*
X2104082Y3204082D1*
X2098373Y3210768D1*
X2093779Y3218264D1*
X2090415Y3226386D1*
X2088363Y3234935D1*
X2087672Y3243700D1*
X2088363Y3252465D1*
X2090415Y3261014D1*
X2093779Y3269136D1*
X2098373Y3276632D1*
X2104082Y3283318D1*
X2110768Y3289027D1*
X2118436Y3293700D1*
X2110768Y3298373D1*
X2104082Y3304082D1*
X2098373Y3310768D1*
X2097768Y3311200D1*
X2057183D1*
X1938720Y3192758D1*
X1938700Y2976936D1*
X1943819Y2971032D1*
X1947632Y2964810D1*
X1950424Y2958069D1*
X1952128Y2950974D1*
X1952700Y2943700D1*
X1952128Y2936426D1*
X1950424Y2929331D1*
X1947632Y2922590D1*
X1943819Y2916368D1*
X1939081Y2910819D1*
X1933532Y2906081D1*
X1927310Y2902268D1*
X1920569Y2899476D1*
X1913474Y2897772D1*
X1908067Y2897273D1*
X1904805Y2890860D1*
X1900515Y2884957D1*
X1895356Y2879798D1*
X1889453Y2875508D1*
X1882952Y2872196D1*
X1876012Y2869941D1*
X1868805Y2868800D1*
X1861508D1*
X1854301Y2869941D1*
X1847361Y2872196D1*
X1840860Y2875508D1*
X1834957Y2879798D1*
X1829798Y2884957D1*
X1825508Y2890860D1*
X1822196Y2897361D1*
X1819941Y2904301D1*
X1818800Y2911508D1*
Y2918805D1*
X1819941Y2926012D1*
X1822196Y2932952D1*
X1825508Y2939453D1*
X1829798Y2945356D1*
X1834957Y2950515D1*
X1836200Y2951495D1*
Y3305209D1*
X1699692Y3441746D1*
D25*
X2143700Y3543700D3*
X1643700D3*
D26*
Y3443700D3*
Y3343700D3*
Y3243700D3*
Y3143700D3*
Y3043700D3*
Y2943700D3*
Y2843700D3*
X2143700Y3443700D3*
Y3343700D3*
Y3243700D3*
Y3143700D3*
Y3043700D3*
Y2943700D3*
Y2843700D3*
X2465157Y2915157D2*
D14*
X2468700Y2918700D1*
Y3318700D1*
X2243700Y3543700D1*
X2506200Y2943700D2*
Y3206200D1*
X2643700Y3343700D1*
X2743700D1*
X2319881Y3017519D2*
X2318700Y3016338D1*
Y2918700D1*
X2243700Y2843700D1*
D27*
X2465157Y2915157D3*
X2506200Y2943700D3*
X2319881Y3017519D3*
X2458700Y3528700D3*
X2393700Y3318700D3*
X2343700Y3193700D3*
X2618700Y3168700D3*
X2456200Y2843700D3*
X2543700Y3031200D3*
X2302245Y3543831D2*
D15*
X2685188D1*
X2316885Y3518962D2*
X2685188D1*
X2341752Y3494094D2*
X2685188D1*
X2366621Y3469225D2*
X2766214D1*
X2391489Y3444356D2*
X2766214D1*
X2296718Y3419487D2*
X2319457D1*
X2416392D2*
X2766214D1*
X2273214Y3394619D2*
X2344325D1*
X2441260D2*
X2717843D1*
X2295821Y3369750D2*
X2369192D1*
X2466128D2*
X2621781D1*
X2302209Y3344881D2*
X2394060D1*
X2490995D2*
X2596411D1*
X2296969Y3320012D2*
X2418928D1*
X2503662D2*
X2571543D1*
X2274148Y3295144D2*
X2433712D1*
X2503699D2*
X2546675D1*
X2643611D2*
X2713250D1*
X2295535Y3270275D2*
X2433712D1*
X2503699D2*
X2521808D1*
X2618743D2*
X2691863D1*
X2302209Y3245406D2*
X2433712D1*
X2593876D2*
X2685188D1*
X2297221Y3220537D2*
X2433712D1*
X2569007D2*
X2690176D1*
X2275044Y3195669D2*
X2433712D1*
X2544140D2*
X2712352D1*
X2295247Y3170800D2*
X2433712D1*
X2541197D2*
X2692150D1*
X2302172Y3145931D2*
X2433712D1*
X2541197D2*
X2685224D1*
X2297436Y3121062D2*
X2433712D1*
X2541197D2*
X2689961D1*
X2275906Y3096193D2*
X2433712D1*
X2541197D2*
X2711491D1*
X2294960Y3071325D2*
X2433712D1*
X2541197D2*
X2766214D1*
X2358798Y3046456D2*
X2433712D1*
X2541197D2*
X2766214D1*
X2368701Y3021587D2*
X2433712D1*
X2541197D2*
X2766214D1*
X2363965Y2996718D2*
X2433712D1*
X2541197D2*
X2723082D1*
X2353703Y2971850D2*
X2433712D1*
X2545718D2*
X2692760D1*
X2353703Y2946981D2*
X2428760D1*
X2555085D2*
X2685260D1*
X2353703Y2922112D2*
X2416667D1*
X2549881D2*
X2689494D1*
X2345592Y2897243D2*
X2419752D1*
X2510696D2*
X2709877D1*
X2320833Y2872375D2*
X2444441D1*
X2485864D2*
X2766214D1*
X2302100Y2847506D2*
X2766214D1*
X2298117Y2822637D2*
X2766214D1*
X2299728Y3568688D2*
Y3533665D1*
X2493414Y3339808D1*
X2496411Y3335682D1*
X2498726Y3331137D1*
X2500302Y3326287D1*
X2501100Y3321250D1*
X2501200Y3254396D1*
Y3247183D1*
X2622592Y3368413D1*
X2626718Y3371411D1*
X2631263Y3373726D1*
X2636113Y3375302D1*
X2641150Y3376100D1*
X2698065Y3376200D1*
X2704082Y3383318D1*
X2710768Y3389027D1*
X2718264Y3393621D1*
X2726386Y3396985D1*
X2734935Y3399037D1*
X2743700Y3399728D1*
X2752465Y3399037D1*
X2761014Y3396985D1*
X2768714Y3393815D1*
X2768700Y3487676D1*
X2687672Y3487672D1*
Y3568735D1*
X2299742Y3568700D1*
X2299653Y3441794D2*
X2299037Y3434935D1*
X2296985Y3426386D1*
X2293621Y3418264D1*
X2289027Y3410768D1*
X2283318Y3404082D1*
X2276632Y3398373D1*
X2268964Y3393700D1*
X2276632Y3389027D1*
X2283318Y3383318D1*
X2289027Y3376632D1*
X2293621Y3369136D1*
X2296985Y3361014D1*
X2299037Y3352465D1*
X2299728Y3343700D1*
X2299037Y3334935D1*
X2296985Y3326386D1*
X2293621Y3318264D1*
X2289027Y3310768D1*
X2283318Y3304082D1*
X2276632Y3298373D1*
X2268964Y3293700D1*
X2276632Y3289027D1*
X2283318Y3283318D1*
X2289027Y3276632D1*
X2293621Y3269136D1*
X2296985Y3261014D1*
X2299037Y3252465D1*
X2299728Y3243700D1*
X2299037Y3234935D1*
X2296985Y3226386D1*
X2293621Y3218264D1*
X2289027Y3210768D1*
X2283318Y3204082D1*
X2276632Y3198373D1*
X2268964Y3193700D1*
X2276632Y3189027D1*
X2283318Y3183318D1*
X2289027Y3176632D1*
X2293621Y3169136D1*
X2296985Y3161014D1*
X2299037Y3152465D1*
X2299728Y3143700D1*
X2299037Y3134935D1*
X2296985Y3126386D1*
X2293621Y3118264D1*
X2289027Y3110768D1*
X2283318Y3104082D1*
X2276632Y3098373D1*
X2268964Y3093700D1*
X2276632Y3089027D1*
X2283318Y3083318D1*
X2289027Y3076632D1*
X2293621Y3069136D1*
X2296985Y3061014D1*
X2297728Y3058384D1*
X2302086Y3060480D1*
X2309025Y3062734D1*
X2316233Y3063876D1*
X2323529D1*
X2330737Y3062734D1*
X2337676Y3060480D1*
X2344178Y3057167D1*
X2350081Y3052877D1*
X2355239Y3047718D1*
X2359529Y3041815D1*
X2362842Y3035314D1*
X2365096Y3028375D1*
X2366238Y3021167D1*
Y3013871D1*
X2365096Y3006663D1*
X2362842Y2999724D1*
X2359529Y2993222D1*
X2355239Y2987319D1*
X2351201Y2983196D1*
X2351100Y2916150D1*
X2350302Y2911113D1*
X2348726Y2906263D1*
X2346411Y2901718D1*
X2343413Y2897592D1*
X2298977Y2853015D1*
X2299728Y2843700D1*
X2299037Y2834935D1*
X2296985Y2826386D1*
X2293815Y2818686D1*
X2768684Y2818700D1*
X2768700Y2893578D1*
X2761014Y2890415D1*
X2752465Y2888363D1*
X2743700Y2887672D1*
X2734935Y2888363D1*
X2726386Y2890415D1*
X2718264Y2893779D1*
X2710768Y2898373D1*
X2704082Y2904082D1*
X2698373Y2910768D1*
X2693779Y2918264D1*
X2690415Y2926386D1*
X2688363Y2934935D1*
X2687672Y2943700D1*
X2688363Y2952465D1*
X2690415Y2961014D1*
X2693779Y2969136D1*
X2698373Y2976632D1*
X2704082Y2983318D1*
X2710768Y2989027D1*
X2718264Y2993621D1*
X2726386Y2996985D1*
X2734935Y2999037D1*
X2743700Y2999728D1*
X2752465Y2999037D1*
X2761014Y2996985D1*
X2768714Y2993815D1*
X2768700Y3093524D1*
X2761014Y3090415D1*
X2752465Y3088363D1*
X2743700Y3087672D1*
X2734935Y3088363D1*
X2726386Y3090415D1*
X2718264Y3093779D1*
X2710768Y3098373D1*
X2704082Y3104082D1*
X2698373Y3110768D1*
X2693779Y3118264D1*
X2690415Y3126386D1*
X2688363Y3134935D1*
X2687672Y3143700D1*
X2688363Y3152465D1*
X2690415Y3161014D1*
X2693779Y3169136D1*
X2698373Y3176632D1*
X2704082Y3183318D1*
X2710768Y3189027D1*
X2718436Y3193700D1*
X2710768Y3198373D1*
X2704082Y3204082D1*
X2698373Y3210768D1*
X2693779Y3218264D1*
X2690415Y3226386D1*
X2688363Y3234935D1*
X2687672Y3243700D1*
X2688363Y3252465D1*
X2690415Y3261014D1*
X2693779Y3269136D1*
X2698373Y3276632D1*
X2704082Y3283318D1*
X2710768Y3289027D1*
X2718436Y3293700D1*
X2710768Y3298373D1*
X2704082Y3304082D1*
X2698373Y3310768D1*
X2697768Y3311200D1*
X2657183D1*
X2538720Y3192758D1*
X2538700Y2976936D1*
X2543819Y2971032D1*
X2547632Y2964810D1*
X2550424Y2958069D1*
X2552128Y2950974D1*
X2552700Y2943700D1*
X2552128Y2936426D1*
X2550424Y2929331D1*
X2547632Y2922590D1*
X2543819Y2916368D1*
X2539081Y2910819D1*
X2533532Y2906081D1*
X2527310Y2902268D1*
X2520569Y2899476D1*
X2513474Y2897772D1*
X2508067Y2897273D1*
X2504805Y2890860D1*
X2500515Y2884957D1*
X2495356Y2879798D1*
X2489453Y2875508D1*
X2482952Y2872196D1*
X2476012Y2869941D1*
X2468805Y2868800D1*
X2461508D1*
X2454301Y2869941D1*
X2447361Y2872196D1*
X2440860Y2875508D1*
X2434957Y2879798D1*
X2429798Y2884957D1*
X2425508Y2890860D1*
X2422196Y2897361D1*
X2419941Y2904301D1*
X2418800Y2911508D1*
Y2918805D1*
X2419941Y2926012D1*
X2422196Y2932952D1*
X2425508Y2939453D1*
X2429798Y2945356D1*
X2434957Y2950515D1*
X2436200Y2951495D1*
Y3305209D1*
X2299692Y3441746D1*
D25*
X2743700Y3543700D3*
X2243700D3*
D26*
Y3443700D3*
Y3343700D3*
Y3243700D3*
Y3143700D3*
Y3043700D3*
Y2943700D3*
Y2843700D3*
X2743700Y3443700D3*
Y3343700D3*
Y3243700D3*
Y3143700D3*
Y3043700D3*
Y2943700D3*
Y2843700D3*
X3065157Y2915157D2*
D14*
X3068700Y2918700D1*
Y3318700D1*
X2843700Y3543700D1*
X3106200Y2943700D2*
Y3206200D1*
X3243700Y3343700D1*
X3343700D1*
X2919881Y3017519D2*
X2918700Y3016338D1*
Y2918700D1*
X2843700Y2843700D1*
D27*
X3065157Y2915157D3*
X3106200Y2943700D3*
X2919881Y3017519D3*
X3058700Y3528700D3*
X2993700Y3318700D3*
X2943700Y3193700D3*
X3218700Y3168700D3*
X3056200Y2843700D3*
X3143700Y3031200D3*
X2902245Y3543831D2*
D15*
X3285188D1*
X2916885Y3518962D2*
X3285188D1*
X2941752Y3494094D2*
X3285188D1*
X2966621Y3469225D2*
X3366214D1*
X2991489Y3444356D2*
X3366214D1*
X2896718Y3419487D2*
X2919457D1*
X3016392D2*
X3366214D1*
X2873214Y3394619D2*
X2944325D1*
X3041260D2*
X3317843D1*
X2895821Y3369750D2*
X2969192D1*
X3066128D2*
X3221781D1*
X2902209Y3344881D2*
X2994060D1*
X3090995D2*
X3196411D1*
X2896969Y3320012D2*
X3018928D1*
X3103662D2*
X3171543D1*
X2874148Y3295144D2*
X3033712D1*
X3103699D2*
X3146675D1*
X3243611D2*
X3313250D1*
X2895535Y3270275D2*
X3033712D1*
X3103699D2*
X3121808D1*
X3218743D2*
X3291863D1*
X2902209Y3245406D2*
X3033712D1*
X3193876D2*
X3285188D1*
X2897221Y3220537D2*
X3033712D1*
X3169007D2*
X3290176D1*
X2875044Y3195669D2*
X3033712D1*
X3144140D2*
X3312352D1*
X2895247Y3170800D2*
X3033712D1*
X3141197D2*
X3292150D1*
X2902172Y3145931D2*
X3033712D1*
X3141197D2*
X3285224D1*
X2897436Y3121062D2*
X3033712D1*
X3141197D2*
X3289961D1*
X2875906Y3096193D2*
X3033712D1*
X3141197D2*
X3311491D1*
X2894960Y3071325D2*
X3033712D1*
X3141197D2*
X3366214D1*
X2958798Y3046456D2*
X3033712D1*
X3141197D2*
X3366214D1*
X2968701Y3021587D2*
X3033712D1*
X3141197D2*
X3366214D1*
X2963965Y2996718D2*
X3033712D1*
X3141197D2*
X3323082D1*
X2953703Y2971850D2*
X3033712D1*
X3145718D2*
X3292760D1*
X2953703Y2946981D2*
X3028760D1*
X3155085D2*
X3285260D1*
X2953703Y2922112D2*
X3016667D1*
X3149881D2*
X3289494D1*
X2945592Y2897243D2*
X3019752D1*
X3110696D2*
X3309877D1*
X2920833Y2872375D2*
X3044441D1*
X3085864D2*
X3366214D1*
X2902100Y2847506D2*
X3366214D1*
X2898117Y2822637D2*
X3366214D1*
X2899728Y3568688D2*
Y3533665D1*
X3093414Y3339808D1*
X3096411Y3335682D1*
X3098726Y3331137D1*
X3100302Y3326287D1*
X3101100Y3321250D1*
X3101200Y3254396D1*
Y3247183D1*
X3222592Y3368413D1*
X3226718Y3371411D1*
X3231263Y3373726D1*
X3236113Y3375302D1*
X3241150Y3376100D1*
X3298065Y3376200D1*
X3304082Y3383318D1*
X3310768Y3389027D1*
X3318264Y3393621D1*
X3326386Y3396985D1*
X3334935Y3399037D1*
X3343700Y3399728D1*
X3352465Y3399037D1*
X3361014Y3396985D1*
X3368714Y3393815D1*
X3368700Y3487676D1*
X3287672Y3487672D1*
Y3568735D1*
X2899742Y3568700D1*
X2899653Y3441794D2*
X2899037Y3434935D1*
X2896985Y3426386D1*
X2893621Y3418264D1*
X2889027Y3410768D1*
X2883318Y3404082D1*
X2876632Y3398373D1*
X2868964Y3393700D1*
X2876632Y3389027D1*
X2883318Y3383318D1*
X2889027Y3376632D1*
X2893621Y3369136D1*
X2896985Y3361014D1*
X2899037Y3352465D1*
X2899728Y3343700D1*
X2899037Y3334935D1*
X2896985Y3326386D1*
X2893621Y3318264D1*
X2889027Y3310768D1*
X2883318Y3304082D1*
X2876632Y3298373D1*
X2868964Y3293700D1*
X2876632Y3289027D1*
X2883318Y3283318D1*
X2889027Y3276632D1*
X2893621Y3269136D1*
X2896985Y3261014D1*
X2899037Y3252465D1*
X2899728Y3243700D1*
X2899037Y3234935D1*
X2896985Y3226386D1*
X2893621Y3218264D1*
X2889027Y3210768D1*
X2883318Y3204082D1*
X2876632Y3198373D1*
X2868964Y3193700D1*
X2876632Y3189027D1*
X2883318Y3183318D1*
X2889027Y3176632D1*
X2893621Y3169136D1*
X2896985Y3161014D1*
X2899037Y3152465D1*
X2899728Y3143700D1*
X2899037Y3134935D1*
X2896985Y3126386D1*
X2893621Y3118264D1*
X2889027Y3110768D1*
X2883318Y3104082D1*
X2876632Y3098373D1*
X2868964Y3093700D1*
X2876632Y3089027D1*
X2883318Y3083318D1*
X2889027Y3076632D1*
X2893621Y3069136D1*
X2896985Y3061014D1*
X2897728Y3058384D1*
X2902086Y3060480D1*
X2909025Y3062734D1*
X2916233Y3063876D1*
X2923529D1*
X2930737Y3062734D1*
X2937676Y3060480D1*
X2944178Y3057167D1*
X2950081Y3052877D1*
X2955239Y3047718D1*
X2959529Y3041815D1*
X2962842Y3035314D1*
X2965096Y3028375D1*
X2966238Y3021167D1*
Y3013871D1*
X2965096Y3006663D1*
X2962842Y2999724D1*
X2959529Y2993222D1*
X2955239Y2987319D1*
X2951201Y2983196D1*
X2951100Y2916150D1*
X2950302Y2911113D1*
X2948726Y2906263D1*
X2946411Y2901718D1*
X2943413Y2897592D1*
X2898977Y2853015D1*
X2899728Y2843700D1*
X2899037Y2834935D1*
X2896985Y2826386D1*
X2893815Y2818686D1*
X3368684Y2818700D1*
X3368700Y2893578D1*
X3361014Y2890415D1*
X3352465Y2888363D1*
X3343700Y2887672D1*
X3334935Y2888363D1*
X3326386Y2890415D1*
X3318264Y2893779D1*
X3310768Y2898373D1*
X3304082Y2904082D1*
X3298373Y2910768D1*
X3293779Y2918264D1*
X3290415Y2926386D1*
X3288363Y2934935D1*
X3287672Y2943700D1*
X3288363Y2952465D1*
X3290415Y2961014D1*
X3293779Y2969136D1*
X3298373Y2976632D1*
X3304082Y2983318D1*
X3310768Y2989027D1*
X3318264Y2993621D1*
X3326386Y2996985D1*
X3334935Y2999037D1*
X3343700Y2999728D1*
X3352465Y2999037D1*
X3361014Y2996985D1*
X3368714Y2993815D1*
X3368700Y3093524D1*
X3361014Y3090415D1*
X3352465Y3088363D1*
X3343700Y3087672D1*
X3334935Y3088363D1*
X3326386Y3090415D1*
X3318264Y3093779D1*
X3310768Y3098373D1*
X3304082Y3104082D1*
X3298373Y3110768D1*
X3293779Y3118264D1*
X3290415Y3126386D1*
X3288363Y3134935D1*
X3287672Y3143700D1*
X3288363Y3152465D1*
X3290415Y3161014D1*
X3293779Y3169136D1*
X3298373Y3176632D1*
X3304082Y3183318D1*
X3310768Y3189027D1*
X3318436Y3193700D1*
X3310768Y3198373D1*
X3304082Y3204082D1*
X3298373Y3210768D1*
X3293779Y3218264D1*
X3290415Y3226386D1*
X3288363Y3234935D1*
X3287672Y3243700D1*
X3288363Y3252465D1*
X3290415Y3261014D1*
X3293779Y3269136D1*
X3298373Y3276632D1*
X3304082Y3283318D1*
X3310768Y3289027D1*
X3318436Y3293700D1*
X3310768Y3298373D1*
X3304082Y3304082D1*
X3298373Y3310768D1*
X3297768Y3311200D1*
X3257183D1*
X3138720Y3192758D1*
X3138700Y2976936D1*
X3143819Y2971032D1*
X3147632Y2964810D1*
X3150424Y2958069D1*
X3152128Y2950974D1*
X3152700Y2943700D1*
X3152128Y2936426D1*
X3150424Y2929331D1*
X3147632Y2922590D1*
X3143819Y2916368D1*
X3139081Y2910819D1*
X3133532Y2906081D1*
X3127310Y2902268D1*
X3120569Y2899476D1*
X3113474Y2897772D1*
X3108067Y2897273D1*
X3104805Y2890860D1*
X3100515Y2884957D1*
X3095356Y2879798D1*
X3089453Y2875508D1*
X3082952Y2872196D1*
X3076012Y2869941D1*
X3068805Y2868800D1*
X3061508D1*
X3054301Y2869941D1*
X3047361Y2872196D1*
X3040860Y2875508D1*
X3034957Y2879798D1*
X3029798Y2884957D1*
X3025508Y2890860D1*
X3022196Y2897361D1*
X3019941Y2904301D1*
X3018800Y2911508D1*
Y2918805D1*
X3019941Y2926012D1*
X3022196Y2932952D1*
X3025508Y2939453D1*
X3029798Y2945356D1*
X3034957Y2950515D1*
X3036200Y2951495D1*
Y3305209D1*
X2899692Y3441746D1*
D25*
X3343700Y3543700D3*
X2843700D3*
D26*
Y3443700D3*
Y3343700D3*
Y3243700D3*
Y3143700D3*
Y3043700D3*
Y2943700D3*
Y2843700D3*
X3343700Y3443700D3*
Y3343700D3*
Y3243700D3*
Y3143700D3*
Y3043700D3*
Y2943700D3*
Y2843700D3*
X665157Y3715157D2*
D14*
X668700Y3718700D1*
Y4118700D1*
X443700Y4343700D1*
X706200Y3743700D2*
Y4006200D1*
X843700Y4143700D1*
X943700D1*
X519881Y3817519D2*
X518700Y3816338D1*
Y3718700D1*
X443700Y3643700D1*
D27*
X665157Y3715157D3*
X706200Y3743700D3*
X519881Y3817519D3*
X658700Y4328700D3*
X593700Y4118700D3*
X543700Y3993700D3*
X818700Y3968700D3*
X656200Y3643700D3*
X743700Y3831200D3*
X502245Y4343831D2*
D15*
X885188D1*
X516885Y4318962D2*
X885188D1*
X541752Y4294094D2*
X885188D1*
X566621Y4269225D2*
X966214D1*
X591489Y4244356D2*
X966214D1*
X496718Y4219487D2*
X519457D1*
X616392D2*
X966214D1*
X473214Y4194619D2*
X544325D1*
X641260D2*
X917843D1*
X495821Y4169750D2*
X569192D1*
X666128D2*
X821781D1*
X502209Y4144881D2*
X594060D1*
X690995D2*
X796411D1*
X496969Y4120012D2*
X618928D1*
X703662D2*
X771543D1*
X474148Y4095144D2*
X633712D1*
X703699D2*
X746675D1*
X843611D2*
X913250D1*
X495535Y4070275D2*
X633712D1*
X703699D2*
X721808D1*
X818743D2*
X891863D1*
X502209Y4045406D2*
X633712D1*
X793876D2*
X885188D1*
X497221Y4020537D2*
X633712D1*
X769007D2*
X890176D1*
X475044Y3995669D2*
X633712D1*
X744140D2*
X912352D1*
X495247Y3970800D2*
X633712D1*
X741197D2*
X892150D1*
X502172Y3945931D2*
X633712D1*
X741197D2*
X885224D1*
X497436Y3921062D2*
X633712D1*
X741197D2*
X889961D1*
X475906Y3896193D2*
X633712D1*
X741197D2*
X911491D1*
X494960Y3871325D2*
X633712D1*
X741197D2*
X966214D1*
X558798Y3846456D2*
X633712D1*
X741197D2*
X966214D1*
X568701Y3821587D2*
X633712D1*
X741197D2*
X966214D1*
X563965Y3796718D2*
X633712D1*
X741197D2*
X923082D1*
X553703Y3771850D2*
X633712D1*
X745718D2*
X892760D1*
X553703Y3746981D2*
X628760D1*
X755085D2*
X885260D1*
X553703Y3722112D2*
X616667D1*
X749881D2*
X889494D1*
X545592Y3697243D2*
X619752D1*
X710696D2*
X909877D1*
X520833Y3672375D2*
X644441D1*
X685864D2*
X966214D1*
X502100Y3647506D2*
X966214D1*
X498117Y3622637D2*
X966214D1*
X499728Y4368688D2*
Y4333665D1*
X693414Y4139808D1*
X696411Y4135682D1*
X698726Y4131137D1*
X700302Y4126287D1*
X701100Y4121250D1*
X701200Y4054396D1*
Y4047183D1*
X822592Y4168413D1*
X826718Y4171411D1*
X831263Y4173726D1*
X836113Y4175302D1*
X841150Y4176100D1*
X898065Y4176200D1*
X904082Y4183318D1*
X910768Y4189027D1*
X918264Y4193621D1*
X926386Y4196985D1*
X934935Y4199037D1*
X943700Y4199728D1*
X952465Y4199037D1*
X961014Y4196985D1*
X968714Y4193815D1*
X968700Y4287676D1*
X887672Y4287672D1*
Y4368735D1*
X499742Y4368700D1*
X499653Y4241794D2*
X499037Y4234935D1*
X496985Y4226386D1*
X493621Y4218264D1*
X489027Y4210768D1*
X483318Y4204082D1*
X476632Y4198373D1*
X468964Y4193700D1*
X476632Y4189027D1*
X483318Y4183318D1*
X489027Y4176632D1*
X493621Y4169136D1*
X496985Y4161014D1*
X499037Y4152465D1*
X499728Y4143700D1*
X499037Y4134935D1*
X496985Y4126386D1*
X493621Y4118264D1*
X489027Y4110768D1*
X483318Y4104082D1*
X476632Y4098373D1*
X468964Y4093700D1*
X476632Y4089027D1*
X483318Y4083318D1*
X489027Y4076632D1*
X493621Y4069136D1*
X496985Y4061014D1*
X499037Y4052465D1*
X499728Y4043700D1*
X499037Y4034935D1*
X496985Y4026386D1*
X493621Y4018264D1*
X489027Y4010768D1*
X483318Y4004082D1*
X476632Y3998373D1*
X468964Y3993700D1*
X476632Y3989027D1*
X483318Y3983318D1*
X489027Y3976632D1*
X493621Y3969136D1*
X496985Y3961014D1*
X499037Y3952465D1*
X499728Y3943700D1*
X499037Y3934935D1*
X496985Y3926386D1*
X493621Y3918264D1*
X489027Y3910768D1*
X483318Y3904082D1*
X476632Y3898373D1*
X468964Y3893700D1*
X476632Y3889027D1*
X483318Y3883318D1*
X489027Y3876632D1*
X493621Y3869136D1*
X496985Y3861014D1*
X497728Y3858384D1*
X502086Y3860480D1*
X509025Y3862734D1*
X516233Y3863876D1*
X523529D1*
X530737Y3862734D1*
X537676Y3860480D1*
X544178Y3857167D1*
X550081Y3852877D1*
X555239Y3847718D1*
X559529Y3841815D1*
X562842Y3835314D1*
X565096Y3828375D1*
X566238Y3821167D1*
Y3813871D1*
X565096Y3806663D1*
X562842Y3799724D1*
X559529Y3793222D1*
X555239Y3787319D1*
X551201Y3783196D1*
X551100Y3716150D1*
X550302Y3711113D1*
X548726Y3706263D1*
X546411Y3701718D1*
X543413Y3697592D1*
X498977Y3653015D1*
X499728Y3643700D1*
X499037Y3634935D1*
X496985Y3626386D1*
X493815Y3618686D1*
X968684Y3618700D1*
X968700Y3693578D1*
X961014Y3690415D1*
X952465Y3688363D1*
X943700Y3687672D1*
X934935Y3688363D1*
X926386Y3690415D1*
X918264Y3693779D1*
X910768Y3698373D1*
X904082Y3704082D1*
X898373Y3710768D1*
X893779Y3718264D1*
X890415Y3726386D1*
X888363Y3734935D1*
X887672Y3743700D1*
X888363Y3752465D1*
X890415Y3761014D1*
X893779Y3769136D1*
X898373Y3776632D1*
X904082Y3783318D1*
X910768Y3789027D1*
X918264Y3793621D1*
X926386Y3796985D1*
X934935Y3799037D1*
X943700Y3799728D1*
X952465Y3799037D1*
X961014Y3796985D1*
X968714Y3793815D1*
X968700Y3893524D1*
X961014Y3890415D1*
X952465Y3888363D1*
X943700Y3887672D1*
X934935Y3888363D1*
X926386Y3890415D1*
X918264Y3893779D1*
X910768Y3898373D1*
X904082Y3904082D1*
X898373Y3910768D1*
X893779Y3918264D1*
X890415Y3926386D1*
X888363Y3934935D1*
X887672Y3943700D1*
X888363Y3952465D1*
X890415Y3961014D1*
X893779Y3969136D1*
X898373Y3976632D1*
X904082Y3983318D1*
X910768Y3989027D1*
X918436Y3993700D1*
X910768Y3998373D1*
X904082Y4004082D1*
X898373Y4010768D1*
X893779Y4018264D1*
X890415Y4026386D1*
X888363Y4034935D1*
X887672Y4043700D1*
X888363Y4052465D1*
X890415Y4061014D1*
X893779Y4069136D1*
X898373Y4076632D1*
X904082Y4083318D1*
X910768Y4089027D1*
X918436Y4093700D1*
X910768Y4098373D1*
X904082Y4104082D1*
X898373Y4110768D1*
X897768Y4111200D1*
X857183D1*
X738720Y3992758D1*
X738700Y3776936D1*
X743819Y3771032D1*
X747632Y3764810D1*
X750424Y3758069D1*
X752128Y3750974D1*
X752700Y3743700D1*
X752128Y3736426D1*
X750424Y3729331D1*
X747632Y3722590D1*
X743819Y3716368D1*
X739081Y3710819D1*
X733532Y3706081D1*
X727310Y3702268D1*
X720569Y3699476D1*
X713474Y3697772D1*
X708067Y3697273D1*
X704805Y3690860D1*
X700515Y3684957D1*
X695356Y3679798D1*
X689453Y3675508D1*
X682952Y3672196D1*
X676012Y3669941D1*
X668805Y3668800D1*
X661508D1*
X654301Y3669941D1*
X647361Y3672196D1*
X640860Y3675508D1*
X634957Y3679798D1*
X629798Y3684957D1*
X625508Y3690860D1*
X622196Y3697361D1*
X619941Y3704301D1*
X618800Y3711508D1*
Y3718805D1*
X619941Y3726012D1*
X622196Y3732952D1*
X625508Y3739453D1*
X629798Y3745356D1*
X634957Y3750515D1*
X636200Y3751495D1*
Y4105209D1*
X499692Y4241746D1*
D25*
X943700Y4343700D3*
X443700D3*
D26*
Y4243700D3*
Y4143700D3*
Y4043700D3*
Y3943700D3*
Y3843700D3*
Y3743700D3*
Y3643700D3*
X943700Y4243700D3*
Y4143700D3*
Y4043700D3*
Y3943700D3*
Y3843700D3*
Y3743700D3*
Y3643700D3*
X1265157Y3715157D2*
D14*
X1268700Y3718700D1*
Y4118700D1*
X1043700Y4343700D1*
X1306200Y3743700D2*
Y4006200D1*
X1443700Y4143700D1*
X1543700D1*
X1119881Y3817519D2*
X1118700Y3816338D1*
Y3718700D1*
X1043700Y3643700D1*
D27*
X1265157Y3715157D3*
X1306200Y3743700D3*
X1119881Y3817519D3*
X1258700Y4328700D3*
X1193700Y4118700D3*
X1143700Y3993700D3*
X1418700Y3968700D3*
X1256200Y3643700D3*
X1343700Y3831200D3*
X1102245Y4343831D2*
D15*
X1485188D1*
X1116885Y4318962D2*
X1485188D1*
X1141752Y4294094D2*
X1485188D1*
X1166621Y4269225D2*
X1566214D1*
X1191489Y4244356D2*
X1566214D1*
X1096718Y4219487D2*
X1119457D1*
X1216392D2*
X1566214D1*
X1073214Y4194619D2*
X1144325D1*
X1241260D2*
X1517843D1*
X1095821Y4169750D2*
X1169192D1*
X1266128D2*
X1421781D1*
X1102209Y4144881D2*
X1194060D1*
X1290995D2*
X1396411D1*
X1096969Y4120012D2*
X1218928D1*
X1303662D2*
X1371543D1*
X1074148Y4095144D2*
X1233712D1*
X1303699D2*
X1346675D1*
X1443611D2*
X1513250D1*
X1095535Y4070275D2*
X1233712D1*
X1303699D2*
X1321808D1*
X1418743D2*
X1491863D1*
X1102209Y4045406D2*
X1233712D1*
X1393876D2*
X1485188D1*
X1097221Y4020537D2*
X1233712D1*
X1369007D2*
X1490176D1*
X1075044Y3995669D2*
X1233712D1*
X1344140D2*
X1512352D1*
X1095247Y3970800D2*
X1233712D1*
X1341197D2*
X1492150D1*
X1102172Y3945931D2*
X1233712D1*
X1341197D2*
X1485224D1*
X1097436Y3921062D2*
X1233712D1*
X1341197D2*
X1489961D1*
X1075906Y3896193D2*
X1233712D1*
X1341197D2*
X1511491D1*
X1094960Y3871325D2*
X1233712D1*
X1341197D2*
X1566214D1*
X1158798Y3846456D2*
X1233712D1*
X1341197D2*
X1566214D1*
X1168701Y3821587D2*
X1233712D1*
X1341197D2*
X1566214D1*
X1163965Y3796718D2*
X1233712D1*
X1341197D2*
X1523082D1*
X1153703Y3771850D2*
X1233712D1*
X1345718D2*
X1492760D1*
X1153703Y3746981D2*
X1228760D1*
X1355085D2*
X1485260D1*
X1153703Y3722112D2*
X1216667D1*
X1349881D2*
X1489494D1*
X1145592Y3697243D2*
X1219752D1*
X1310696D2*
X1509877D1*
X1120833Y3672375D2*
X1244441D1*
X1285864D2*
X1566214D1*
X1102100Y3647506D2*
X1566214D1*
X1098117Y3622637D2*
X1566214D1*
X1099728Y4368688D2*
Y4333665D1*
X1293414Y4139808D1*
X1296411Y4135682D1*
X1298726Y4131137D1*
X1300302Y4126287D1*
X1301100Y4121250D1*
X1301200Y4054396D1*
Y4047183D1*
X1422592Y4168413D1*
X1426718Y4171411D1*
X1431263Y4173726D1*
X1436113Y4175302D1*
X1441150Y4176100D1*
X1498065Y4176200D1*
X1504082Y4183318D1*
X1510768Y4189027D1*
X1518264Y4193621D1*
X1526386Y4196985D1*
X1534935Y4199037D1*
X1543700Y4199728D1*
X1552465Y4199037D1*
X1561014Y4196985D1*
X1568714Y4193815D1*
X1568700Y4287676D1*
X1487672Y4287672D1*
Y4368735D1*
X1099742Y4368700D1*
X1099653Y4241794D2*
X1099037Y4234935D1*
X1096985Y4226386D1*
X1093621Y4218264D1*
X1089027Y4210768D1*
X1083318Y4204082D1*
X1076632Y4198373D1*
X1068964Y4193700D1*
X1076632Y4189027D1*
X1083318Y4183318D1*
X1089027Y4176632D1*
X1093621Y4169136D1*
X1096985Y4161014D1*
X1099037Y4152465D1*
X1099728Y4143700D1*
X1099037Y4134935D1*
X1096985Y4126386D1*
X1093621Y4118264D1*
X1089027Y4110768D1*
X1083318Y4104082D1*
X1076632Y4098373D1*
X1068964Y4093700D1*
X1076632Y4089027D1*
X1083318Y4083318D1*
X1089027Y4076632D1*
X1093621Y4069136D1*
X1096985Y4061014D1*
X1099037Y4052465D1*
X1099728Y4043700D1*
X1099037Y4034935D1*
X1096985Y4026386D1*
X1093621Y4018264D1*
X1089027Y4010768D1*
X1083318Y4004082D1*
X1076632Y3998373D1*
X1068964Y3993700D1*
X1076632Y3989027D1*
X1083318Y3983318D1*
X1089027Y3976632D1*
X1093621Y3969136D1*
X1096985Y3961014D1*
X1099037Y3952465D1*
X1099728Y3943700D1*
X1099037Y3934935D1*
X1096985Y3926386D1*
X1093621Y3918264D1*
X1089027Y3910768D1*
X1083318Y3904082D1*
X1076632Y3898373D1*
X1068964Y3893700D1*
X1076632Y3889027D1*
X1083318Y3883318D1*
X1089027Y3876632D1*
X1093621Y3869136D1*
X1096985Y3861014D1*
X1097728Y3858384D1*
X1102086Y3860480D1*
X1109025Y3862734D1*
X1116233Y3863876D1*
X1123529D1*
X1130737Y3862734D1*
X1137676Y3860480D1*
X1144178Y3857167D1*
X1150081Y3852877D1*
X1155239Y3847718D1*
X1159529Y3841815D1*
X1162842Y3835314D1*
X1165096Y3828375D1*
X1166238Y3821167D1*
Y3813871D1*
X1165096Y3806663D1*
X1162842Y3799724D1*
X1159529Y3793222D1*
X1155239Y3787319D1*
X1151201Y3783196D1*
X1151100Y3716150D1*
X1150302Y3711113D1*
X1148726Y3706263D1*
X1146411Y3701718D1*
X1143413Y3697592D1*
X1098977Y3653015D1*
X1099728Y3643700D1*
X1099037Y3634935D1*
X1096985Y3626386D1*
X1093815Y3618686D1*
X1568684Y3618700D1*
X1568700Y3693578D1*
X1561014Y3690415D1*
X1552465Y3688363D1*
X1543700Y3687672D1*
X1534935Y3688363D1*
X1526386Y3690415D1*
X1518264Y3693779D1*
X1510768Y3698373D1*
X1504082Y3704082D1*
X1498373Y3710768D1*
X1493779Y3718264D1*
X1490415Y3726386D1*
X1488363Y3734935D1*
X1487672Y3743700D1*
X1488363Y3752465D1*
X1490415Y3761014D1*
X1493779Y3769136D1*
X1498373Y3776632D1*
X1504082Y3783318D1*
X1510768Y3789027D1*
X1518264Y3793621D1*
X1526386Y3796985D1*
X1534935Y3799037D1*
X1543700Y3799728D1*
X1552465Y3799037D1*
X1561014Y3796985D1*
X1568714Y3793815D1*
X1568700Y3893524D1*
X1561014Y3890415D1*
X1552465Y3888363D1*
X1543700Y3887672D1*
X1534935Y3888363D1*
X1526386Y3890415D1*
X1518264Y3893779D1*
X1510768Y3898373D1*
X1504082Y3904082D1*
X1498373Y3910768D1*
X1493779Y3918264D1*
X1490415Y3926386D1*
X1488363Y3934935D1*
X1487672Y3943700D1*
X1488363Y3952465D1*
X1490415Y3961014D1*
X1493779Y3969136D1*
X1498373Y3976632D1*
X1504082Y3983318D1*
X1510768Y3989027D1*
X1518436Y3993700D1*
X1510768Y3998373D1*
X1504082Y4004082D1*
X1498373Y4010768D1*
X1493779Y4018264D1*
X1490415Y4026386D1*
X1488363Y4034935D1*
X1487672Y4043700D1*
X1488363Y4052465D1*
X1490415Y4061014D1*
X1493779Y4069136D1*
X1498373Y4076632D1*
X1504082Y4083318D1*
X1510768Y4089027D1*
X1518436Y4093700D1*
X1510768Y4098373D1*
X1504082Y4104082D1*
X1498373Y4110768D1*
X1497768Y4111200D1*
X1457183D1*
X1338720Y3992758D1*
X1338700Y3776936D1*
X1343819Y3771032D1*
X1347632Y3764810D1*
X1350424Y3758069D1*
X1352128Y3750974D1*
X1352700Y3743700D1*
X1352128Y3736426D1*
X1350424Y3729331D1*
X1347632Y3722590D1*
X1343819Y3716368D1*
X1339081Y3710819D1*
X1333532Y3706081D1*
X1327310Y3702268D1*
X1320569Y3699476D1*
X1313474Y3697772D1*
X1308067Y3697273D1*
X1304805Y3690860D1*
X1300515Y3684957D1*
X1295356Y3679798D1*
X1289453Y3675508D1*
X1282952Y3672196D1*
X1276012Y3669941D1*
X1268805Y3668800D1*
X1261508D1*
X1254301Y3669941D1*
X1247361Y3672196D1*
X1240860Y3675508D1*
X1234957Y3679798D1*
X1229798Y3684957D1*
X1225508Y3690860D1*
X1222196Y3697361D1*
X1219941Y3704301D1*
X1218800Y3711508D1*
Y3718805D1*
X1219941Y3726012D1*
X1222196Y3732952D1*
X1225508Y3739453D1*
X1229798Y3745356D1*
X1234957Y3750515D1*
X1236200Y3751495D1*
Y4105209D1*
X1099692Y4241746D1*
D25*
X1543700Y4343700D3*
X1043700D3*
D26*
Y4243700D3*
Y4143700D3*
Y4043700D3*
Y3943700D3*
Y3843700D3*
Y3743700D3*
Y3643700D3*
X1543700Y4243700D3*
Y4143700D3*
Y4043700D3*
Y3943700D3*
Y3843700D3*
Y3743700D3*
Y3643700D3*
X1865157Y3715157D2*
D14*
X1868700Y3718700D1*
Y4118700D1*
X1643700Y4343700D1*
X1906200Y3743700D2*
Y4006200D1*
X2043700Y4143700D1*
X2143700D1*
X1719881Y3817519D2*
X1718700Y3816338D1*
Y3718700D1*
X1643700Y3643700D1*
D27*
X1865157Y3715157D3*
X1906200Y3743700D3*
X1719881Y3817519D3*
X1858700Y4328700D3*
X1793700Y4118700D3*
X1743700Y3993700D3*
X2018700Y3968700D3*
X1856200Y3643700D3*
X1943700Y3831200D3*
X1702245Y4343831D2*
D15*
X2085188D1*
X1716885Y4318962D2*
X2085188D1*
X1741752Y4294094D2*
X2085188D1*
X1766621Y4269225D2*
X2166214D1*
X1791489Y4244356D2*
X2166214D1*
X1696718Y4219487D2*
X1719457D1*
X1816392D2*
X2166214D1*
X1673214Y4194619D2*
X1744325D1*
X1841260D2*
X2117843D1*
X1695821Y4169750D2*
X1769192D1*
X1866128D2*
X2021781D1*
X1702209Y4144881D2*
X1794060D1*
X1890995D2*
X1996411D1*
X1696969Y4120012D2*
X1818928D1*
X1903662D2*
X1971543D1*
X1674148Y4095144D2*
X1833712D1*
X1903699D2*
X1946675D1*
X2043611D2*
X2113250D1*
X1695535Y4070275D2*
X1833712D1*
X1903699D2*
X1921808D1*
X2018743D2*
X2091863D1*
X1702209Y4045406D2*
X1833712D1*
X1993876D2*
X2085188D1*
X1697221Y4020537D2*
X1833712D1*
X1969007D2*
X2090176D1*
X1675044Y3995669D2*
X1833712D1*
X1944140D2*
X2112352D1*
X1695247Y3970800D2*
X1833712D1*
X1941197D2*
X2092150D1*
X1702172Y3945931D2*
X1833712D1*
X1941197D2*
X2085224D1*
X1697436Y3921062D2*
X1833712D1*
X1941197D2*
X2089961D1*
X1675906Y3896193D2*
X1833712D1*
X1941197D2*
X2111491D1*
X1694960Y3871325D2*
X1833712D1*
X1941197D2*
X2166214D1*
X1758798Y3846456D2*
X1833712D1*
X1941197D2*
X2166214D1*
X1768701Y3821587D2*
X1833712D1*
X1941197D2*
X2166214D1*
X1763965Y3796718D2*
X1833712D1*
X1941197D2*
X2123082D1*
X1753703Y3771850D2*
X1833712D1*
X1945718D2*
X2092760D1*
X1753703Y3746981D2*
X1828760D1*
X1955085D2*
X2085260D1*
X1753703Y3722112D2*
X1816667D1*
X1949881D2*
X2089494D1*
X1745592Y3697243D2*
X1819752D1*
X1910696D2*
X2109877D1*
X1720833Y3672375D2*
X1844441D1*
X1885864D2*
X2166214D1*
X1702100Y3647506D2*
X2166214D1*
X1698117Y3622637D2*
X2166214D1*
X1699728Y4368688D2*
Y4333665D1*
X1893414Y4139808D1*
X1896411Y4135682D1*
X1898726Y4131137D1*
X1900302Y4126287D1*
X1901100Y4121250D1*
X1901200Y4054396D1*
Y4047183D1*
X2022592Y4168413D1*
X2026718Y4171411D1*
X2031263Y4173726D1*
X2036113Y4175302D1*
X2041150Y4176100D1*
X2098065Y4176200D1*
X2104082Y4183318D1*
X2110768Y4189027D1*
X2118264Y4193621D1*
X2126386Y4196985D1*
X2134935Y4199037D1*
X2143700Y4199728D1*
X2152465Y4199037D1*
X2161014Y4196985D1*
X2168714Y4193815D1*
X2168700Y4287676D1*
X2087672Y4287672D1*
Y4368735D1*
X1699742Y4368700D1*
X1699653Y4241794D2*
X1699037Y4234935D1*
X1696985Y4226386D1*
X1693621Y4218264D1*
X1689027Y4210768D1*
X1683318Y4204082D1*
X1676632Y4198373D1*
X1668964Y4193700D1*
X1676632Y4189027D1*
X1683318Y4183318D1*
X1689027Y4176632D1*
X1693621Y4169136D1*
X1696985Y4161014D1*
X1699037Y4152465D1*
X1699728Y4143700D1*
X1699037Y4134935D1*
X1696985Y4126386D1*
X1693621Y4118264D1*
X1689027Y4110768D1*
X1683318Y4104082D1*
X1676632Y4098373D1*
X1668964Y4093700D1*
X1676632Y4089027D1*
X1683318Y4083318D1*
X1689027Y4076632D1*
X1693621Y4069136D1*
X1696985Y4061014D1*
X1699037Y4052465D1*
X1699728Y4043700D1*
X1699037Y4034935D1*
X1696985Y4026386D1*
X1693621Y4018264D1*
X1689027Y4010768D1*
X1683318Y4004082D1*
X1676632Y3998373D1*
X1668964Y3993700D1*
X1676632Y3989027D1*
X1683318Y3983318D1*
X1689027Y3976632D1*
X1693621Y3969136D1*
X1696985Y3961014D1*
X1699037Y3952465D1*
X1699728Y3943700D1*
X1699037Y3934935D1*
X1696985Y3926386D1*
X1693621Y3918264D1*
X1689027Y3910768D1*
X1683318Y3904082D1*
X1676632Y3898373D1*
X1668964Y3893700D1*
X1676632Y3889027D1*
X1683318Y3883318D1*
X1689027Y3876632D1*
X1693621Y3869136D1*
X1696985Y3861014D1*
X1697728Y3858384D1*
X1702086Y3860480D1*
X1709025Y3862734D1*
X1716233Y3863876D1*
X1723529D1*
X1730737Y3862734D1*
X1737676Y3860480D1*
X1744178Y3857167D1*
X1750081Y3852877D1*
X1755239Y3847718D1*
X1759529Y3841815D1*
X1762842Y3835314D1*
X1765096Y3828375D1*
X1766238Y3821167D1*
Y3813871D1*
X1765096Y3806663D1*
X1762842Y3799724D1*
X1759529Y3793222D1*
X1755239Y3787319D1*
X1751201Y3783196D1*
X1751100Y3716150D1*
X1750302Y3711113D1*
X1748726Y3706263D1*
X1746411Y3701718D1*
X1743413Y3697592D1*
X1698977Y3653015D1*
X1699728Y3643700D1*
X1699037Y3634935D1*
X1696985Y3626386D1*
X1693815Y3618686D1*
X2168684Y3618700D1*
X2168700Y3693578D1*
X2161014Y3690415D1*
X2152465Y3688363D1*
X2143700Y3687672D1*
X2134935Y3688363D1*
X2126386Y3690415D1*
X2118264Y3693779D1*
X2110768Y3698373D1*
X2104082Y3704082D1*
X2098373Y3710768D1*
X2093779Y3718264D1*
X2090415Y3726386D1*
X2088363Y3734935D1*
X2087672Y3743700D1*
X2088363Y3752465D1*
X2090415Y3761014D1*
X2093779Y3769136D1*
X2098373Y3776632D1*
X2104082Y3783318D1*
X2110768Y3789027D1*
X2118264Y3793621D1*
X2126386Y3796985D1*
X2134935Y3799037D1*
X2143700Y3799728D1*
X2152465Y3799037D1*
X2161014Y3796985D1*
X2168714Y3793815D1*
X2168700Y3893524D1*
X2161014Y3890415D1*
X2152465Y3888363D1*
X2143700Y3887672D1*
X2134935Y3888363D1*
X2126386Y3890415D1*
X2118264Y3893779D1*
X2110768Y3898373D1*
X2104082Y3904082D1*
X2098373Y3910768D1*
X2093779Y3918264D1*
X2090415Y3926386D1*
X2088363Y3934935D1*
X2087672Y3943700D1*
X2088363Y3952465D1*
X2090415Y3961014D1*
X2093779Y3969136D1*
X2098373Y3976632D1*
X2104082Y3983318D1*
X2110768Y3989027D1*
X2118436Y3993700D1*
X2110768Y3998373D1*
X2104082Y4004082D1*
X2098373Y4010768D1*
X2093779Y4018264D1*
X2090415Y4026386D1*
X2088363Y4034935D1*
X2087672Y4043700D1*
X2088363Y4052465D1*
X2090415Y4061014D1*
X2093779Y4069136D1*
X2098373Y4076632D1*
X2104082Y4083318D1*
X2110768Y4089027D1*
X2118436Y4093700D1*
X2110768Y4098373D1*
X2104082Y4104082D1*
X2098373Y4110768D1*
X2097768Y4111200D1*
X2057183D1*
X1938720Y3992758D1*
X1938700Y3776936D1*
X1943819Y3771032D1*
X1947632Y3764810D1*
X1950424Y3758069D1*
X1952128Y3750974D1*
X1952700Y3743700D1*
X1952128Y3736426D1*
X1950424Y3729331D1*
X1947632Y3722590D1*
X1943819Y3716368D1*
X1939081Y3710819D1*
X1933532Y3706081D1*
X1927310Y3702268D1*
X1920569Y3699476D1*
X1913474Y3697772D1*
X1908067Y3697273D1*
X1904805Y3690860D1*
X1900515Y3684957D1*
X1895356Y3679798D1*
X1889453Y3675508D1*
X1882952Y3672196D1*
X1876012Y3669941D1*
X1868805Y3668800D1*
X1861508D1*
X1854301Y3669941D1*
X1847361Y3672196D1*
X1840860Y3675508D1*
X1834957Y3679798D1*
X1829798Y3684957D1*
X1825508Y3690860D1*
X1822196Y3697361D1*
X1819941Y3704301D1*
X1818800Y3711508D1*
Y3718805D1*
X1819941Y3726012D1*
X1822196Y3732952D1*
X1825508Y3739453D1*
X1829798Y3745356D1*
X1834957Y3750515D1*
X1836200Y3751495D1*
Y4105209D1*
X1699692Y4241746D1*
D25*
X2143700Y4343700D3*
X1643700D3*
D26*
Y4243700D3*
Y4143700D3*
Y4043700D3*
Y3943700D3*
Y3843700D3*
Y3743700D3*
Y3643700D3*
X2143700Y4243700D3*
Y4143700D3*
Y4043700D3*
Y3943700D3*
Y3843700D3*
Y3743700D3*
Y3643700D3*
X2465157Y3715157D2*
D14*
X2468700Y3718700D1*
Y4118700D1*
X2243700Y4343700D1*
X2506200Y3743700D2*
Y4006200D1*
X2643700Y4143700D1*
X2743700D1*
X2319881Y3817519D2*
X2318700Y3816338D1*
Y3718700D1*
X2243700Y3643700D1*
D27*
X2465157Y3715157D3*
X2506200Y3743700D3*
X2319881Y3817519D3*
X2458700Y4328700D3*
X2393700Y4118700D3*
X2343700Y3993700D3*
X2618700Y3968700D3*
X2456200Y3643700D3*
X2543700Y3831200D3*
X2302245Y4343831D2*
D15*
X2685188D1*
X2316885Y4318962D2*
X2685188D1*
X2341752Y4294094D2*
X2685188D1*
X2366621Y4269225D2*
X2766214D1*
X2391489Y4244356D2*
X2766214D1*
X2296718Y4219487D2*
X2319457D1*
X2416392D2*
X2766214D1*
X2273214Y4194619D2*
X2344325D1*
X2441260D2*
X2717843D1*
X2295821Y4169750D2*
X2369192D1*
X2466128D2*
X2621781D1*
X2302209Y4144881D2*
X2394060D1*
X2490995D2*
X2596411D1*
X2296969Y4120012D2*
X2418928D1*
X2503662D2*
X2571543D1*
X2274148Y4095144D2*
X2433712D1*
X2503699D2*
X2546675D1*
X2643611D2*
X2713250D1*
X2295535Y4070275D2*
X2433712D1*
X2503699D2*
X2521808D1*
X2618743D2*
X2691863D1*
X2302209Y4045406D2*
X2433712D1*
X2593876D2*
X2685188D1*
X2297221Y4020537D2*
X2433712D1*
X2569007D2*
X2690176D1*
X2275044Y3995669D2*
X2433712D1*
X2544140D2*
X2712352D1*
X2295247Y3970800D2*
X2433712D1*
X2541197D2*
X2692150D1*
X2302172Y3945931D2*
X2433712D1*
X2541197D2*
X2685224D1*
X2297436Y3921062D2*
X2433712D1*
X2541197D2*
X2689961D1*
X2275906Y3896193D2*
X2433712D1*
X2541197D2*
X2711491D1*
X2294960Y3871325D2*
X2433712D1*
X2541197D2*
X2766214D1*
X2358798Y3846456D2*
X2433712D1*
X2541197D2*
X2766214D1*
X2368701Y3821587D2*
X2433712D1*
X2541197D2*
X2766214D1*
X2363965Y3796718D2*
X2433712D1*
X2541197D2*
X2723082D1*
X2353703Y3771850D2*
X2433712D1*
X2545718D2*
X2692760D1*
X2353703Y3746981D2*
X2428760D1*
X2555085D2*
X2685260D1*
X2353703Y3722112D2*
X2416667D1*
X2549881D2*
X2689494D1*
X2345592Y3697243D2*
X2419752D1*
X2510696D2*
X2709877D1*
X2320833Y3672375D2*
X2444441D1*
X2485864D2*
X2766214D1*
X2302100Y3647506D2*
X2766214D1*
X2298117Y3622637D2*
X2766214D1*
X2299728Y4368688D2*
Y4333665D1*
X2493414Y4139808D1*
X2496411Y4135682D1*
X2498726Y4131137D1*
X2500302Y4126287D1*
X2501100Y4121250D1*
X2501200Y4054396D1*
Y4047183D1*
X2622592Y4168413D1*
X2626718Y4171411D1*
X2631263Y4173726D1*
X2636113Y4175302D1*
X2641150Y4176100D1*
X2698065Y4176200D1*
X2704082Y4183318D1*
X2710768Y4189027D1*
X2718264Y4193621D1*
X2726386Y4196985D1*
X2734935Y4199037D1*
X2743700Y4199728D1*
X2752465Y4199037D1*
X2761014Y4196985D1*
X2768714Y4193815D1*
X2768700Y4287676D1*
X2687672Y4287672D1*
Y4368735D1*
X2299742Y4368700D1*
X2299653Y4241794D2*
X2299037Y4234935D1*
X2296985Y4226386D1*
X2293621Y4218264D1*
X2289027Y4210768D1*
X2283318Y4204082D1*
X2276632Y4198373D1*
X2268964Y4193700D1*
X2276632Y4189027D1*
X2283318Y4183318D1*
X2289027Y4176632D1*
X2293621Y4169136D1*
X2296985Y4161014D1*
X2299037Y4152465D1*
X2299728Y4143700D1*
X2299037Y4134935D1*
X2296985Y4126386D1*
X2293621Y4118264D1*
X2289027Y4110768D1*
X2283318Y4104082D1*
X2276632Y4098373D1*
X2268964Y4093700D1*
X2276632Y4089027D1*
X2283318Y4083318D1*
X2289027Y4076632D1*
X2293621Y4069136D1*
X2296985Y4061014D1*
X2299037Y4052465D1*
X2299728Y4043700D1*
X2299037Y4034935D1*
X2296985Y4026386D1*
X2293621Y4018264D1*
X2289027Y4010768D1*
X2283318Y4004082D1*
X2276632Y3998373D1*
X2268964Y3993700D1*
X2276632Y3989027D1*
X2283318Y3983318D1*
X2289027Y3976632D1*
X2293621Y3969136D1*
X2296985Y3961014D1*
X2299037Y3952465D1*
X2299728Y3943700D1*
X2299037Y3934935D1*
X2296985Y3926386D1*
X2293621Y3918264D1*
X2289027Y3910768D1*
X2283318Y3904082D1*
X2276632Y3898373D1*
X2268964Y3893700D1*
X2276632Y3889027D1*
X2283318Y3883318D1*
X2289027Y3876632D1*
X2293621Y3869136D1*
X2296985Y3861014D1*
X2297728Y3858384D1*
X2302086Y3860480D1*
X2309025Y3862734D1*
X2316233Y3863876D1*
X2323529D1*
X2330737Y3862734D1*
X2337676Y3860480D1*
X2344178Y3857167D1*
X2350081Y3852877D1*
X2355239Y3847718D1*
X2359529Y3841815D1*
X2362842Y3835314D1*
X2365096Y3828375D1*
X2366238Y3821167D1*
Y3813871D1*
X2365096Y3806663D1*
X2362842Y3799724D1*
X2359529Y3793222D1*
X2355239Y3787319D1*
X2351201Y3783196D1*
X2351100Y3716150D1*
X2350302Y3711113D1*
X2348726Y3706263D1*
X2346411Y3701718D1*
X2343413Y3697592D1*
X2298977Y3653015D1*
X2299728Y3643700D1*
X2299037Y3634935D1*
X2296985Y3626386D1*
X2293815Y3618686D1*
X2768684Y3618700D1*
X2768700Y3693578D1*
X2761014Y3690415D1*
X2752465Y3688363D1*
X2743700Y3687672D1*
X2734935Y3688363D1*
X2726386Y3690415D1*
X2718264Y3693779D1*
X2710768Y3698373D1*
X2704082Y3704082D1*
X2698373Y3710768D1*
X2693779Y3718264D1*
X2690415Y3726386D1*
X2688363Y3734935D1*
X2687672Y3743700D1*
X2688363Y3752465D1*
X2690415Y3761014D1*
X2693779Y3769136D1*
X2698373Y3776632D1*
X2704082Y3783318D1*
X2710768Y3789027D1*
X2718264Y3793621D1*
X2726386Y3796985D1*
X2734935Y3799037D1*
X2743700Y3799728D1*
X2752465Y3799037D1*
X2761014Y3796985D1*
X2768714Y3793815D1*
X2768700Y3893524D1*
X2761014Y3890415D1*
X2752465Y3888363D1*
X2743700Y3887672D1*
X2734935Y3888363D1*
X2726386Y3890415D1*
X2718264Y3893779D1*
X2710768Y3898373D1*
X2704082Y3904082D1*
X2698373Y3910768D1*
X2693779Y3918264D1*
X2690415Y3926386D1*
X2688363Y3934935D1*
X2687672Y3943700D1*
X2688363Y3952465D1*
X2690415Y3961014D1*
X2693779Y3969136D1*
X2698373Y3976632D1*
X2704082Y3983318D1*
X2710768Y3989027D1*
X2718436Y3993700D1*
X2710768Y3998373D1*
X2704082Y4004082D1*
X2698373Y4010768D1*
X2693779Y4018264D1*
X2690415Y4026386D1*
X2688363Y4034935D1*
X2687672Y4043700D1*
X2688363Y4052465D1*
X2690415Y4061014D1*
X2693779Y4069136D1*
X2698373Y4076632D1*
X2704082Y4083318D1*
X2710768Y4089027D1*
X2718436Y4093700D1*
X2710768Y4098373D1*
X2704082Y4104082D1*
X2698373Y4110768D1*
X2697768Y4111200D1*
X2657183D1*
X2538720Y3992758D1*
X2538700Y3776936D1*
X2543819Y3771032D1*
X2547632Y3764810D1*
X2550424Y3758069D1*
X2552128Y3750974D1*
X2552700Y3743700D1*
X2552128Y3736426D1*
X2550424Y3729331D1*
X2547632Y3722590D1*
X2543819Y3716368D1*
X2539081Y3710819D1*
X2533532Y3706081D1*
X2527310Y3702268D1*
X2520569Y3699476D1*
X2513474Y3697772D1*
X2508067Y3697273D1*
X2504805Y3690860D1*
X2500515Y3684957D1*
X2495356Y3679798D1*
X2489453Y3675508D1*
X2482952Y3672196D1*
X2476012Y3669941D1*
X2468805Y3668800D1*
X2461508D1*
X2454301Y3669941D1*
X2447361Y3672196D1*
X2440860Y3675508D1*
X2434957Y3679798D1*
X2429798Y3684957D1*
X2425508Y3690860D1*
X2422196Y3697361D1*
X2419941Y3704301D1*
X2418800Y3711508D1*
Y3718805D1*
X2419941Y3726012D1*
X2422196Y3732952D1*
X2425508Y3739453D1*
X2429798Y3745356D1*
X2434957Y3750515D1*
X2436200Y3751495D1*
Y4105209D1*
X2299692Y4241746D1*
D25*
X2743700Y4343700D3*
X2243700D3*
D26*
Y4243700D3*
Y4143700D3*
Y4043700D3*
Y3943700D3*
Y3843700D3*
Y3743700D3*
Y3643700D3*
X2743700Y4243700D3*
Y4143700D3*
Y4043700D3*
Y3943700D3*
Y3843700D3*
Y3743700D3*
Y3643700D3*
X3065157Y3715157D2*
D14*
X3068700Y3718700D1*
Y4118700D1*
X2843700Y4343700D1*
X3106200Y3743700D2*
Y4006200D1*
X3243700Y4143700D1*
X3343700D1*
X2919881Y3817519D2*
X2918700Y3816338D1*
Y3718700D1*
X2843700Y3643700D1*
D27*
X3065157Y3715157D3*
X3106200Y3743700D3*
X2919881Y3817519D3*
X3058700Y4328700D3*
X2993700Y4118700D3*
X2943700Y3993700D3*
X3218700Y3968700D3*
X3056200Y3643700D3*
X3143700Y3831200D3*
X2902245Y4343831D2*
D15*
X3285188D1*
X2916885Y4318962D2*
X3285188D1*
X2941752Y4294094D2*
X3285188D1*
X2966621Y4269225D2*
X3366214D1*
X2991489Y4244356D2*
X3366214D1*
X2896718Y4219487D2*
X2919457D1*
X3016392D2*
X3366214D1*
X2873214Y4194619D2*
X2944325D1*
X3041260D2*
X3317843D1*
X2895821Y4169750D2*
X2969192D1*
X3066128D2*
X3221781D1*
X2902209Y4144881D2*
X2994060D1*
X3090995D2*
X3196411D1*
X2896969Y4120012D2*
X3018928D1*
X3103662D2*
X3171543D1*
X2874148Y4095144D2*
X3033712D1*
X3103699D2*
X3146675D1*
X3243611D2*
X3313250D1*
X2895535Y4070275D2*
X3033712D1*
X3103699D2*
X3121808D1*
X3218743D2*
X3291863D1*
X2902209Y4045406D2*
X3033712D1*
X3193876D2*
X3285188D1*
X2897221Y4020537D2*
X3033712D1*
X3169007D2*
X3290176D1*
X2875044Y3995669D2*
X3033712D1*
X3144140D2*
X3312352D1*
X2895247Y3970800D2*
X3033712D1*
X3141197D2*
X3292150D1*
X2902172Y3945931D2*
X3033712D1*
X3141197D2*
X3285224D1*
X2897436Y3921062D2*
X3033712D1*
X3141197D2*
X3289961D1*
X2875906Y3896193D2*
X3033712D1*
X3141197D2*
X3311491D1*
X2894960Y3871325D2*
X3033712D1*
X3141197D2*
X3366214D1*
X2958798Y3846456D2*
X3033712D1*
X3141197D2*
X3366214D1*
X2968701Y3821587D2*
X3033712D1*
X3141197D2*
X3366214D1*
X2963965Y3796718D2*
X3033712D1*
X3141197D2*
X3323082D1*
X2953703Y3771850D2*
X3033712D1*
X3145718D2*
X3292760D1*
X2953703Y3746981D2*
X3028760D1*
X3155085D2*
X3285260D1*
X2953703Y3722112D2*
X3016667D1*
X3149881D2*
X3289494D1*
X2945592Y3697243D2*
X3019752D1*
X3110696D2*
X3309877D1*
X2920833Y3672375D2*
X3044441D1*
X3085864D2*
X3366214D1*
X2902100Y3647506D2*
X3366214D1*
X2898117Y3622637D2*
X3366214D1*
X2899728Y4368688D2*
Y4333665D1*
X3093414Y4139808D1*
X3096411Y4135682D1*
X3098726Y4131137D1*
X3100302Y4126287D1*
X3101100Y4121250D1*
X3101200Y4054396D1*
Y4047183D1*
X3222592Y4168413D1*
X3226718Y4171411D1*
X3231263Y4173726D1*
X3236113Y4175302D1*
X3241150Y4176100D1*
X3298065Y4176200D1*
X3304082Y4183318D1*
X3310768Y4189027D1*
X3318264Y4193621D1*
X3326386Y4196985D1*
X3334935Y4199037D1*
X3343700Y4199728D1*
X3352465Y4199037D1*
X3361014Y4196985D1*
X3368714Y4193815D1*
X3368700Y4287676D1*
X3287672Y4287672D1*
Y4368735D1*
X2899742Y4368700D1*
X2899653Y4241794D2*
X2899037Y4234935D1*
X2896985Y4226386D1*
X2893621Y4218264D1*
X2889027Y4210768D1*
X2883318Y4204082D1*
X2876632Y4198373D1*
X2868964Y4193700D1*
X2876632Y4189027D1*
X2883318Y4183318D1*
X2889027Y4176632D1*
X2893621Y4169136D1*
X2896985Y4161014D1*
X2899037Y4152465D1*
X2899728Y4143700D1*
X2899037Y4134935D1*
X2896985Y4126386D1*
X2893621Y4118264D1*
X2889027Y4110768D1*
X2883318Y4104082D1*
X2876632Y4098373D1*
X2868964Y4093700D1*
X2876632Y4089027D1*
X2883318Y4083318D1*
X2889027Y4076632D1*
X2893621Y4069136D1*
X2896985Y4061014D1*
X2899037Y4052465D1*
X2899728Y4043700D1*
X2899037Y4034935D1*
X2896985Y4026386D1*
X2893621Y4018264D1*
X2889027Y4010768D1*
X2883318Y4004082D1*
X2876632Y3998373D1*
X2868964Y3993700D1*
X2876632Y3989027D1*
X2883318Y3983318D1*
X2889027Y3976632D1*
X2893621Y3969136D1*
X2896985Y3961014D1*
X2899037Y3952465D1*
X2899728Y3943700D1*
X2899037Y3934935D1*
X2896985Y3926386D1*
X2893621Y3918264D1*
X2889027Y3910768D1*
X2883318Y3904082D1*
X2876632Y3898373D1*
X2868964Y3893700D1*
X2876632Y3889027D1*
X2883318Y3883318D1*
X2889027Y3876632D1*
X2893621Y3869136D1*
X2896985Y3861014D1*
X2897728Y3858384D1*
X2902086Y3860480D1*
X2909025Y3862734D1*
X2916233Y3863876D1*
X2923529D1*
X2930737Y3862734D1*
X2937676Y3860480D1*
X2944178Y3857167D1*
X2950081Y3852877D1*
X2955239Y3847718D1*
X2959529Y3841815D1*
X2962842Y3835314D1*
X2965096Y3828375D1*
X2966238Y3821167D1*
Y3813871D1*
X2965096Y3806663D1*
X2962842Y3799724D1*
X2959529Y3793222D1*
X2955239Y3787319D1*
X2951201Y3783196D1*
X2951100Y3716150D1*
X2950302Y3711113D1*
X2948726Y3706263D1*
X2946411Y3701718D1*
X2943413Y3697592D1*
X2898977Y3653015D1*
X2899728Y3643700D1*
X2899037Y3634935D1*
X2896985Y3626386D1*
X2893815Y3618686D1*
X3368684Y3618700D1*
X3368700Y3693578D1*
X3361014Y3690415D1*
X3352465Y3688363D1*
X3343700Y3687672D1*
X3334935Y3688363D1*
X3326386Y3690415D1*
X3318264Y3693779D1*
X3310768Y3698373D1*
X3304082Y3704082D1*
X3298373Y3710768D1*
X3293779Y3718264D1*
X3290415Y3726386D1*
X3288363Y3734935D1*
X3287672Y3743700D1*
X3288363Y3752465D1*
X3290415Y3761014D1*
X3293779Y3769136D1*
X3298373Y3776632D1*
X3304082Y3783318D1*
X3310768Y3789027D1*
X3318264Y3793621D1*
X3326386Y3796985D1*
X3334935Y3799037D1*
X3343700Y3799728D1*
X3352465Y3799037D1*
X3361014Y3796985D1*
X3368714Y3793815D1*
X3368700Y3893524D1*
X3361014Y3890415D1*
X3352465Y3888363D1*
X3343700Y3887672D1*
X3334935Y3888363D1*
X3326386Y3890415D1*
X3318264Y3893779D1*
X3310768Y3898373D1*
X3304082Y3904082D1*
X3298373Y3910768D1*
X3293779Y3918264D1*
X3290415Y3926386D1*
X3288363Y3934935D1*
X3287672Y3943700D1*
X3288363Y3952465D1*
X3290415Y3961014D1*
X3293779Y3969136D1*
X3298373Y3976632D1*
X3304082Y3983318D1*
X3310768Y3989027D1*
X3318436Y3993700D1*
X3310768Y3998373D1*
X3304082Y4004082D1*
X3298373Y4010768D1*
X3293779Y4018264D1*
X3290415Y4026386D1*
X3288363Y4034935D1*
X3287672Y4043700D1*
X3288363Y4052465D1*
X3290415Y4061014D1*
X3293779Y4069136D1*
X3298373Y4076632D1*
X3304082Y4083318D1*
X3310768Y4089027D1*
X3318436Y4093700D1*
X3310768Y4098373D1*
X3304082Y4104082D1*
X3298373Y4110768D1*
X3297768Y4111200D1*
X3257183D1*
X3138720Y3992758D1*
X3138700Y3776936D1*
X3143819Y3771032D1*
X3147632Y3764810D1*
X3150424Y3758069D1*
X3152128Y3750974D1*
X3152700Y3743700D1*
X3152128Y3736426D1*
X3150424Y3729331D1*
X3147632Y3722590D1*
X3143819Y3716368D1*
X3139081Y3710819D1*
X3133532Y3706081D1*
X3127310Y3702268D1*
X3120569Y3699476D1*
X3113474Y3697772D1*
X3108067Y3697273D1*
X3104805Y3690860D1*
X3100515Y3684957D1*
X3095356Y3679798D1*
X3089453Y3675508D1*
X3082952Y3672196D1*
X3076012Y3669941D1*
X3068805Y3668800D1*
X3061508D1*
X3054301Y3669941D1*
X3047361Y3672196D1*
X3040860Y3675508D1*
X3034957Y3679798D1*
X3029798Y3684957D1*
X3025508Y3690860D1*
X3022196Y3697361D1*
X3019941Y3704301D1*
X3018800Y3711508D1*
Y3718805D1*
X3019941Y3726012D1*
X3022196Y3732952D1*
X3025508Y3739453D1*
X3029798Y3745356D1*
X3034957Y3750515D1*
X3036200Y3751495D1*
Y4105209D1*
X2899692Y4241746D1*
D25*
X3343700Y4343700D3*
X2843700D3*
D26*
Y4243700D3*
Y4143700D3*
Y4043700D3*
Y3943700D3*
Y3843700D3*
Y3743700D3*
Y3643700D3*
X3343700Y4243700D3*
Y4143700D3*
Y4043700D3*
Y3943700D3*
Y3843700D3*
Y3743700D3*
Y3643700D3*
M02*
