G04 DipTrace 3.3.1.3*
G04 BottomMask.gbr*
%MOIN*%
G04 #@! TF.FileFunction,Soldermask,Bot*
G04 #@! TF.Part,Single*
%ADD33C,0.066935*%
%ADD35R,0.066935X0.066935*%
%FSLAX26Y26*%
G04*
G70*
G90*
G75*
G01*
G04 BotMask*
%LPD*%
D35*
X943700Y1143700D3*
X443700D3*
D33*
Y1043700D3*
Y943700D3*
Y843700D3*
Y743700D3*
Y643700D3*
Y543700D3*
Y443700D3*
X943700Y1043700D3*
Y943700D3*
Y843700D3*
Y743700D3*
Y643700D3*
Y543700D3*
Y443700D3*
D35*
X1543700Y1143700D3*
X1043700D3*
D33*
Y1043700D3*
Y943700D3*
Y843700D3*
Y743700D3*
Y643700D3*
Y543700D3*
Y443700D3*
X1543700Y1043700D3*
Y943700D3*
Y843700D3*
Y743700D3*
Y643700D3*
Y543700D3*
Y443700D3*
D35*
X2143700Y1143700D3*
X1643700D3*
D33*
Y1043700D3*
Y943700D3*
Y843700D3*
Y743700D3*
Y643700D3*
Y543700D3*
Y443700D3*
X2143700Y1043700D3*
Y943700D3*
Y843700D3*
Y743700D3*
Y643700D3*
Y543700D3*
Y443700D3*
D35*
X2743700Y1143700D3*
X2243700D3*
D33*
Y1043700D3*
Y943700D3*
Y843700D3*
Y743700D3*
Y643700D3*
Y543700D3*
Y443700D3*
X2743700Y1043700D3*
Y943700D3*
Y843700D3*
Y743700D3*
Y643700D3*
Y543700D3*
Y443700D3*
D35*
X3343700Y1143700D3*
X2843700D3*
D33*
Y1043700D3*
Y943700D3*
Y843700D3*
Y743700D3*
Y643700D3*
Y543700D3*
Y443700D3*
X3343700Y1043700D3*
Y943700D3*
Y843700D3*
Y743700D3*
Y643700D3*
Y543700D3*
Y443700D3*
D35*
X943700Y1943700D3*
X443700D3*
D33*
Y1843700D3*
Y1743700D3*
Y1643700D3*
Y1543700D3*
Y1443700D3*
Y1343700D3*
Y1243700D3*
X943700Y1843700D3*
Y1743700D3*
Y1643700D3*
Y1543700D3*
Y1443700D3*
Y1343700D3*
Y1243700D3*
D35*
X1543700Y1943700D3*
X1043700D3*
D33*
Y1843700D3*
Y1743700D3*
Y1643700D3*
Y1543700D3*
Y1443700D3*
Y1343700D3*
Y1243700D3*
X1543700Y1843700D3*
Y1743700D3*
Y1643700D3*
Y1543700D3*
Y1443700D3*
Y1343700D3*
Y1243700D3*
D35*
X2143700Y1943700D3*
X1643700D3*
D33*
Y1843700D3*
Y1743700D3*
Y1643700D3*
Y1543700D3*
Y1443700D3*
Y1343700D3*
Y1243700D3*
X2143700Y1843700D3*
Y1743700D3*
Y1643700D3*
Y1543700D3*
Y1443700D3*
Y1343700D3*
Y1243700D3*
D35*
X2743700Y1943700D3*
X2243700D3*
D33*
Y1843700D3*
Y1743700D3*
Y1643700D3*
Y1543700D3*
Y1443700D3*
Y1343700D3*
Y1243700D3*
X2743700Y1843700D3*
Y1743700D3*
Y1643700D3*
Y1543700D3*
Y1443700D3*
Y1343700D3*
Y1243700D3*
D35*
X3343700Y1943700D3*
X2843700D3*
D33*
Y1843700D3*
Y1743700D3*
Y1643700D3*
Y1543700D3*
Y1443700D3*
Y1343700D3*
Y1243700D3*
X3343700Y1843700D3*
Y1743700D3*
Y1643700D3*
Y1543700D3*
Y1443700D3*
Y1343700D3*
Y1243700D3*
D35*
X943700Y2743700D3*
X443700D3*
D33*
Y2643700D3*
Y2543700D3*
Y2443700D3*
Y2343700D3*
Y2243700D3*
Y2143700D3*
Y2043700D3*
X943700Y2643700D3*
Y2543700D3*
Y2443700D3*
Y2343700D3*
Y2243700D3*
Y2143700D3*
Y2043700D3*
D35*
X1543700Y2743700D3*
X1043700D3*
D33*
Y2643700D3*
Y2543700D3*
Y2443700D3*
Y2343700D3*
Y2243700D3*
Y2143700D3*
Y2043700D3*
X1543700Y2643700D3*
Y2543700D3*
Y2443700D3*
Y2343700D3*
Y2243700D3*
Y2143700D3*
Y2043700D3*
D35*
X2143700Y2743700D3*
X1643700D3*
D33*
Y2643700D3*
Y2543700D3*
Y2443700D3*
Y2343700D3*
Y2243700D3*
Y2143700D3*
Y2043700D3*
X2143700Y2643700D3*
Y2543700D3*
Y2443700D3*
Y2343700D3*
Y2243700D3*
Y2143700D3*
Y2043700D3*
D35*
X2743700Y2743700D3*
X2243700D3*
D33*
Y2643700D3*
Y2543700D3*
Y2443700D3*
Y2343700D3*
Y2243700D3*
Y2143700D3*
Y2043700D3*
X2743700Y2643700D3*
Y2543700D3*
Y2443700D3*
Y2343700D3*
Y2243700D3*
Y2143700D3*
Y2043700D3*
D35*
X3343700Y2743700D3*
X2843700D3*
D33*
Y2643700D3*
Y2543700D3*
Y2443700D3*
Y2343700D3*
Y2243700D3*
Y2143700D3*
Y2043700D3*
X3343700Y2643700D3*
Y2543700D3*
Y2443700D3*
Y2343700D3*
Y2243700D3*
Y2143700D3*
Y2043700D3*
D35*
X943700Y3543700D3*
X443700D3*
D33*
Y3443700D3*
Y3343700D3*
Y3243700D3*
Y3143700D3*
Y3043700D3*
Y2943700D3*
Y2843700D3*
X943700Y3443700D3*
Y3343700D3*
Y3243700D3*
Y3143700D3*
Y3043700D3*
Y2943700D3*
Y2843700D3*
D35*
X1543700Y3543700D3*
X1043700D3*
D33*
Y3443700D3*
Y3343700D3*
Y3243700D3*
Y3143700D3*
Y3043700D3*
Y2943700D3*
Y2843700D3*
X1543700Y3443700D3*
Y3343700D3*
Y3243700D3*
Y3143700D3*
Y3043700D3*
Y2943700D3*
Y2843700D3*
D35*
X2143700Y3543700D3*
X1643700D3*
D33*
Y3443700D3*
Y3343700D3*
Y3243700D3*
Y3143700D3*
Y3043700D3*
Y2943700D3*
Y2843700D3*
X2143700Y3443700D3*
Y3343700D3*
Y3243700D3*
Y3143700D3*
Y3043700D3*
Y2943700D3*
Y2843700D3*
D35*
X2743700Y3543700D3*
X2243700D3*
D33*
Y3443700D3*
Y3343700D3*
Y3243700D3*
Y3143700D3*
Y3043700D3*
Y2943700D3*
Y2843700D3*
X2743700Y3443700D3*
Y3343700D3*
Y3243700D3*
Y3143700D3*
Y3043700D3*
Y2943700D3*
Y2843700D3*
D35*
X3343700Y3543700D3*
X2843700D3*
D33*
Y3443700D3*
Y3343700D3*
Y3243700D3*
Y3143700D3*
Y3043700D3*
Y2943700D3*
Y2843700D3*
X3343700Y3443700D3*
Y3343700D3*
Y3243700D3*
Y3143700D3*
Y3043700D3*
Y2943700D3*
Y2843700D3*
D35*
X943700Y4343700D3*
X443700D3*
D33*
Y4243700D3*
Y4143700D3*
Y4043700D3*
Y3943700D3*
Y3843700D3*
Y3743700D3*
Y3643700D3*
X943700Y4243700D3*
Y4143700D3*
Y4043700D3*
Y3943700D3*
Y3843700D3*
Y3743700D3*
Y3643700D3*
D35*
X1543700Y4343700D3*
X1043700D3*
D33*
Y4243700D3*
Y4143700D3*
Y4043700D3*
Y3943700D3*
Y3843700D3*
Y3743700D3*
Y3643700D3*
X1543700Y4243700D3*
Y4143700D3*
Y4043700D3*
Y3943700D3*
Y3843700D3*
Y3743700D3*
Y3643700D3*
D35*
X2143700Y4343700D3*
X1643700D3*
D33*
Y4243700D3*
Y4143700D3*
Y4043700D3*
Y3943700D3*
Y3843700D3*
Y3743700D3*
Y3643700D3*
X2143700Y4243700D3*
Y4143700D3*
Y4043700D3*
Y3943700D3*
Y3843700D3*
Y3743700D3*
Y3643700D3*
D35*
X2743700Y4343700D3*
X2243700D3*
D33*
Y4243700D3*
Y4143700D3*
Y4043700D3*
Y3943700D3*
Y3843700D3*
Y3743700D3*
Y3643700D3*
X2743700Y4243700D3*
Y4143700D3*
Y4043700D3*
Y3943700D3*
Y3843700D3*
Y3743700D3*
Y3643700D3*
D35*
X3343700Y4343700D3*
X2843700D3*
D33*
Y4243700D3*
Y4143700D3*
Y4043700D3*
Y3943700D3*
Y3843700D3*
Y3743700D3*
Y3643700D3*
X3343700Y4243700D3*
Y4143700D3*
Y4043700D3*
Y3943700D3*
Y3843700D3*
Y3743700D3*
Y3643700D3*
M02*
