M48
INCH
T01C0.0191
T02C0.0354
%
T01
X+006587Y+011287
X+006562Y+012437
X+006652Y+013152
X+007062Y+013437
X+007437Y+014312
X+008187Y+015687
X+005937Y+017187
X+005437Y+015937
X+005199Y+014175
X+005937Y+009187
X+005437Y+007937
X+005199Y+006175
X+006652Y+005152
X+007062Y+005437
X+007437Y+006312
X+008187Y+007687
X+011437Y+007937
X+011937Y+009187
X+012587Y+011287
X+012562Y+012437
X+012652Y+013152
X+013062Y+013437
X+013437Y+014312
X+014187Y+015687
X+011937Y+017187
X+011437Y+015937
X+011199Y+014175
X+012587Y+019287
X+012562Y+020437
X+012652Y+021152
X+013062Y+021437
X+013437Y+022312
X+014187Y+023687
X+011937Y+025187
X+011437Y+023937
X+011199Y+022175
X+008187Y+023687
X+007437Y+022312
X+007062Y+021437
X+006652Y+021152
X+006562Y+020437
X+006587Y+019287
X+005199Y+022175
X+005437Y+023937
X+005937Y+025187
X+006587Y+027287
X+006562Y+028437
X+006652Y+029152
X+007062Y+029437
X+007437Y+030312
X+008187Y+031687
X+005937Y+033187
X+005437Y+031937
X+005199Y+030175
X+006587Y+035287
X+006562Y+036437
X+006652Y+037152
X+007062Y+037437
X+007437Y+038312
X+008187Y+039687
X+005937Y+041187
X+005437Y+039937
X+005199Y+038175
X+006587Y+043287
X+011937Y+041187
X+011437Y+039937
X+011199Y+038175
X+012652Y+037152
X+013062Y+037437
X+013437Y+038312
X+014187Y+039687
X+017437Y+039937
X+017937Y+041187
X+018587Y+043287
X+020187Y+039687
X+019437Y+038312
X+019062Y+037437
X+018652Y+037152
X+018562Y+036437
X+018587Y+035287
X+017937Y+033187
X+017437Y+031937
X+017199Y+030175
X+018652Y+029152
X+019062Y+029437
X+019437Y+030312
X+020187Y+031687
X+023437Y+031937
X+023937Y+033187
X+024587Y+035287
X+024562Y+036437
X+024652Y+037152
X+025062Y+037437
X+025437Y+038312
X+026187Y+039687
X+023937Y+041187
X+023437Y+039937
X+023199Y+038175
X+024587Y+043287
X+029937Y+041187
X+029437Y+039937
X+029199Y+038175
X+030652Y+037152
X+031062Y+037437
X+031437Y+038312
X+032187Y+039687
X+030562Y+036437
X+030587Y+035287
X+029937Y+033187
X+029437Y+031937
X+029199Y+030175
X+030652Y+029152
X+031062Y+029437
X+031437Y+030312
X+032187Y+031687
X+030562Y+028437
X+030587Y+027287
X+029937Y+025187
X+029437Y+023937
X+029199Y+022175
X+030652Y+021152
X+031062Y+021437
X+031437Y+022312
X+032187Y+023687
X+030562Y+020437
X+030587Y+019287
X+029937Y+017187
X+029437Y+015937
X+029199Y+014175
X+030652Y+013152
X+031062Y+013437
X+031437Y+014312
X+032187Y+015687
X+030562Y+012437
X+030587Y+011287
X+029937Y+009187
X+029437Y+007937
X+029199Y+006175
X+030652Y+005152
X+031062Y+005437
X+031437Y+006312
X+032187Y+007687
X+030562Y+004437
X+026187Y+007687
X+025437Y+006312
X+025062Y+005437
X+024652Y+005152
X+024562Y+004437
X+023199Y+006175
X+023437Y+007937
X+023937Y+009187
X+024587Y+011287
X+024562Y+012437
X+024652Y+013152
X+025062Y+013437
X+025437Y+014312
X+026187Y+015687
X+023937Y+017187
X+023437Y+015937
X+023199Y+014175
X+020187Y+015687
X+019437Y+014312
X+019062Y+013437
X+018652Y+013152
X+018562Y+012437
X+018587Y+011287
X+017937Y+009187
X+017437Y+007937
X+017199Y+006175
X+018652Y+005152
X+019062Y+005437
X+019437Y+006312
X+020187Y+007687
X+018562Y+004437
X+014187Y+007687
X+013437Y+006312
X+013062Y+005437
X+012652Y+005152
X+012562Y+004437
X+011199Y+006175
X+006562Y+004437
X+017199Y+014175
X+017437Y+015937
X+017937Y+017187
X+018587Y+019287
X+018562Y+020437
X+018652Y+021152
X+019062Y+021437
X+019437Y+022312
X+020187Y+023687
X+017937Y+025187
X+017437Y+023937
X+017199Y+022175
X+018587Y+027287
X+018562Y+028437
X+023199Y+030175
X+024652Y+029152
X+025062Y+029437
X+025437Y+030312
X+026187Y+031687
X+024562Y+028437
X+024587Y+027287
X+023937Y+025187
X+023437Y+023937
X+023199Y+022175
X+024652Y+021152
X+025062Y+021437
X+025437Y+022312
X+026187Y+023687
X+024562Y+020437
X+024587Y+019287
X+012587Y+027287
X+012562Y+028437
X+012652Y+029152
X+013062Y+029437
X+013437Y+030312
X+014187Y+031687
X+011937Y+033187
X+011437Y+031937
X+011199Y+030175
X+012587Y+035287
X+012562Y+036437
X+017199Y+038175
X+012587Y+043287
X+030587Y+043287
T02
X+009437Y+011437
X+009437Y+010437
X+010437Y+010437
X+010437Y+011437
X+010437Y+012437
X+009437Y+012437
X+009437Y+013437
X+010437Y+013437
X+010437Y+014437
X+009437Y+014437
X+009437Y+015437
X+009437Y+016437
X+009437Y+017437
X+010437Y+017437
X+010437Y+016437
X+010437Y+015437
X+010437Y+018437
X+009437Y+018437
X+009437Y+019437
X+010437Y+019437
X+010437Y+020437
X+009437Y+020437
X+009437Y+021437
X+010437Y+021437
X+010437Y+022437
X+009437Y+022437
X+009437Y+023437
X+009437Y+024437
X+009437Y+025437
X+010437Y+025437
X+010437Y+024437
X+010437Y+023437
X+010437Y+026437
X+009437Y+026437
X+009437Y+027437
X+010437Y+027437
X+010437Y+028437
X+009437Y+028437
X+009437Y+029437
X+010437Y+029437
X+010437Y+030437
X+009437Y+030437
X+009437Y+031437
X+009437Y+032437
X+009437Y+033437
X+010437Y+033437
X+010437Y+032437
X+010437Y+031437
X+010437Y+034437
X+009437Y+034437
X+009437Y+035437
X+010437Y+035437
X+010437Y+036437
X+009437Y+036437
X+009437Y+037437
X+010437Y+037437
X+010437Y+038437
X+009437Y+038437
X+009437Y+039437
X+009437Y+040437
X+009437Y+041437
X+010437Y+041437
X+010437Y+040437
X+010437Y+039437
X+010437Y+042437
X+009437Y+042437
X+009437Y+043437
X+010437Y+043437
X+015437Y+043437
X+015437Y+042437
X+016437Y+042437
X+016437Y+043437
X+016437Y+041437
X+015437Y+041437
X+015437Y+040437
X+015437Y+039437
X+015437Y+038437
X+016437Y+038437
X+016437Y+039437
X+016437Y+040437
X+016437Y+037437
X+015437Y+037437
X+015437Y+036437
X+016437Y+036437
X+016437Y+035437
X+015437Y+035437
X+015437Y+034437
X+016437Y+034437
X+016437Y+033437
X+015437Y+033437
X+015437Y+032437
X+015437Y+031437
X+015437Y+030437
X+016437Y+030437
X+016437Y+031437
X+016437Y+032437
X+016437Y+029437
X+015437Y+029437
X+015437Y+028437
X+016437Y+028437
X+016437Y+027437
X+015437Y+027437
X+015437Y+026437
X+016437Y+026437
X+016437Y+025437
X+015437Y+025437
X+015437Y+024437
X+015437Y+023437
X+015437Y+022437
X+016437Y+022437
X+016437Y+023437
X+016437Y+024437
X+016437Y+021437
X+015437Y+021437
X+015437Y+020437
X+016437Y+020437
X+016437Y+019437
X+016437Y+018437
X+015437Y+018437
X+015437Y+019437
X+015437Y+017437
X+015437Y+016437
X+015437Y+015437
X+016437Y+015437
X+016437Y+014437
X+015437Y+014437
X+015437Y+013437
X+015437Y+012437
X+016437Y+012437
X+016437Y+013437
X+016437Y+011437
X+016437Y+010437
X+015437Y+010437
X+015437Y+011437
X+015437Y+009437
X+015437Y+008437
X+015437Y+007437
X+015437Y+006437
X+016437Y+006437
X+016437Y+007437
X+016437Y+008437
X+016437Y+009437
X+016437Y+005437
X+015437Y+005437
X+015437Y+004437
X+016437Y+004437
X+021437Y+004437
X+021437Y+005437
X+022437Y+005437
X+022437Y+004437
X+022437Y+006437
X+021437Y+006437
X+021437Y+007437
X+021437Y+008437
X+021437Y+009437
X+022437Y+009437
X+022437Y+008437
X+022437Y+007437
X+022437Y+010437
X+022437Y+011437
X+021437Y+011437
X+021437Y+010437
X+021437Y+012437
X+022437Y+012437
X+022437Y+013437
X+021437Y+013437
X+021437Y+014437
X+022437Y+014437
X+022437Y+015437
X+022437Y+016437
X+022437Y+017437
X+021437Y+017437
X+021437Y+016437
X+021437Y+015437
X+021437Y+018437
X+022437Y+018437
X+022437Y+019437
X+021437Y+019437
X+021437Y+020437
X+021437Y+021437
X+022437Y+021437
X+022437Y+020437
X+022437Y+022437
X+021437Y+022437
X+021437Y+023437
X+021437Y+024437
X+021437Y+025437
X+022437Y+025437
X+022437Y+024437
X+022437Y+023437
X+022437Y+026437
X+021437Y+026437
X+021437Y+027437
X+022437Y+027437
X+022437Y+028437
X+021437Y+028437
X+021437Y+029437
X+022437Y+029437
X+022437Y+030437
X+021437Y+030437
X+021437Y+031437
X+021437Y+032437
X+021437Y+033437
X+022437Y+033437
X+022437Y+032437
X+022437Y+031437
X+022437Y+034437
X+021437Y+034437
X+021437Y+035437
X+022437Y+035437
X+022437Y+036437
X+021437Y+036437
X+021437Y+037437
X+022437Y+037437
X+022437Y+038437
X+021437Y+038437
X+021437Y+039437
X+021437Y+040437
X+021437Y+041437
X+022437Y+041437
X+022437Y+040437
X+022437Y+039437
X+022437Y+042437
X+021437Y+042437
X+021437Y+043437
X+022437Y+043437
X+027437Y+043437
X+027437Y+042437
X+028437Y+042437
X+028437Y+043437
X+028437Y+041437
X+027437Y+041437
X+027437Y+040437
X+027437Y+039437
X+027437Y+038437
X+028437Y+038437
X+028437Y+039437
X+028437Y+040437
X+028437Y+037437
X+027437Y+037437
X+027437Y+036437
X+028437Y+036437
X+028437Y+035437
X+027437Y+035437
X+027437Y+034437
X+028437Y+034437
X+028437Y+033437
X+027437Y+033437
X+027437Y+032437
X+027437Y+031437
X+027437Y+030437
X+028437Y+030437
X+028437Y+031437
X+028437Y+032437
X+028437Y+029437
X+027437Y+029437
X+027437Y+028437
X+028437Y+028437
X+028437Y+027437
X+027437Y+027437
X+027437Y+026437
X+028437Y+026437
X+028437Y+025437
X+027437Y+025437
X+027437Y+024437
X+027437Y+023437
X+027437Y+022437
X+028437Y+022437
X+028437Y+023437
X+028437Y+024437
X+028437Y+021437
X+027437Y+021437
X+027437Y+020437
X+028437Y+020437
X+028437Y+019437
X+027437Y+019437
X+027437Y+018437
X+028437Y+018437
X+028437Y+017437
X+027437Y+017437
X+027437Y+016437
X+028437Y+016437
X+028437Y+015437
X+028437Y+014437
X+027437Y+014437
X+027437Y+015437
X+027437Y+013437
X+028437Y+013437
X+028437Y+012437
X+027437Y+012437
X+027437Y+011437
X+028437Y+011437
X+028437Y+010437
X+027437Y+010437
X+027437Y+009437
X+027437Y+008437
X+027437Y+007437
X+027437Y+006437
X+028437Y+006437
X+028437Y+007437
X+028437Y+008437
X+028437Y+009437
X+028437Y+005437
X+027437Y+005437
X+027437Y+004437
X+028437Y+004437
X+033437Y+004437
X+033437Y+005437
X+033437Y+006437
X+033437Y+007437
X+033437Y+008437
X+033437Y+009437
X+033437Y+010437
X+033437Y+011437
X+033437Y+012437
X+033437Y+013437
X+033437Y+014437
X+033437Y+015437
X+033437Y+016437
X+033437Y+017437
X+033437Y+018437
X+033437Y+019437
X+033437Y+020437
X+033437Y+021437
X+033437Y+022437
X+033437Y+023437
X+033437Y+024437
X+033437Y+025437
X+033437Y+026437
X+033437Y+027437
X+033437Y+028437
X+033437Y+029437
X+033437Y+030437
X+033437Y+031437
X+033437Y+032437
X+033437Y+033437
X+033437Y+034437
X+033437Y+035437
X+033437Y+036437
X+033437Y+037437
X+033437Y+038437
X+033437Y+039437
X+033437Y+040437
X+033437Y+041437
X+033437Y+042437
X+033437Y+043437
X+004437Y+043437
X+004437Y+042437
X+004437Y+041437
X+004437Y+040437
X+004437Y+039437
X+004437Y+038437
X+004437Y+037437
X+004437Y+036437
X+004437Y+035437
X+004437Y+034437
X+004437Y+033437
X+004437Y+032437
X+004437Y+031437
X+004437Y+030437
X+004437Y+029437
X+004437Y+028437
X+004437Y+027437
X+004437Y+026437
X+004437Y+025437
X+004437Y+024437
X+004437Y+023437
X+004437Y+022437
X+004437Y+021437
X+004437Y+020437
X+004437Y+019437
X+004437Y+018437
X+004437Y+017437
X+004437Y+016437
X+004437Y+015437
X+004437Y+014437
X+004437Y+013437
X+004437Y+012437
X+004437Y+011437
X+004437Y+010437
X+004437Y+009437
X+004437Y+008437
X+004437Y+007437
X+004437Y+006437
X+004437Y+005437
X+004437Y+004437
X+009437Y+004437
X+009437Y+005437
X+010437Y+005437
X+010437Y+004437
X+010437Y+006437
X+010437Y+007437
X+009437Y+007437
X+009437Y+006437
X+009437Y+008437
X+010437Y+008437
X+010437Y+009437
X+009437Y+009437
X+016437Y+016437
X+016437Y+017437
T00
M30
