G04 DipTrace 3.3.1.3*
G04 Top.gbr*
%MOIN*%
G04 #@! TF.FileFunction,Copper,L1,Top*
G04 #@! TF.Part,Single*
G04 #@! TA.AperFunction,Conductor*
%ADD13C,0.014*%
%ADD14C,0.012*%
%ADD15C,0.025*%
%ADD16C,0.016*%
%ADD17C,0.015*%
%ADD19R,0.062992X0.070866*%
%ADD20R,0.043307X0.03937*%
%ADD21R,0.070866X0.015748*%
%ADD23R,0.084646X0.037402*%
%ADD24R,0.084646X0.127953*%
G04 #@! TA.AperFunction,ComponentPad*
%ADD25R,0.059055X0.059055*%
%ADD26C,0.059055*%
G04 #@! TA.AperFunction,ViaPad*
%ADD27C,0.04*%
%FSLAX26Y26*%
G04*
G70*
G90*
G75*
G01*
G04 Top*
%LPD*%
X731200Y1131200D2*
D13*
X658700D1*
Y1128700D1*
X593700Y953149D2*
D14*
Y918700D1*
X943700Y1043700D2*
D15*
X912598D1*
X822046Y953149D1*
X543700Y743700D2*
D14*
Y793700D1*
X823129Y731200D2*
Y764271D1*
X818700Y768700D1*
X581200Y438385D2*
X650885D1*
X656200Y443700D1*
X809546Y643109D2*
X755609D1*
X743700Y631200D1*
X593700Y953149D2*
D16*
X822046D1*
X581200Y515157D2*
D14*
X665157D1*
X809546Y489566D2*
X877066D1*
X893700Y506200D1*
Y693700D1*
X943700Y743700D1*
X581200Y668700D2*
D17*
X695628D1*
X809546D1*
X593700Y862598D2*
D16*
X599802D1*
X653936Y808464D1*
Y743700D1*
Y731200D1*
X756200D1*
Y729272D1*
X695628Y668700D1*
X809546Y540747D2*
D14*
Y543700D1*
X706200D1*
X809546Y591928D2*
X854428D1*
X868700Y606200D1*
Y768700D1*
X943700Y843700D1*
X581200Y566338D2*
X466338D1*
X443700Y543700D1*
X593700Y1043700D2*
D16*
X753936D1*
X841436Y1131200D1*
X943700Y1143700D2*
X853936D1*
X841436Y1131200D1*
X581200Y617519D2*
D14*
X519881D1*
D27*
X665157Y515157D3*
X706200Y543700D3*
X519881Y617519D3*
X658700Y1128700D3*
X593700Y918700D3*
X543700Y793700D3*
X818700Y768700D3*
X656200Y443700D3*
X743700Y631200D3*
D19*
X731200Y1131200D3*
X841436D3*
X543700Y743700D3*
X653936D3*
D20*
X756200Y731200D3*
X823129D3*
D21*
X581200Y668700D3*
Y643109D3*
Y617519D3*
Y591928D3*
Y566338D3*
Y540747D3*
Y515157D3*
Y489566D3*
Y463976D3*
Y438385D3*
X809554D3*
X809546Y463976D3*
Y489566D3*
Y515157D3*
Y540747D3*
Y566338D3*
Y591928D3*
Y617519D3*
Y643109D3*
Y668700D3*
D23*
X593700Y1043700D3*
Y953149D3*
Y862598D3*
D24*
X822046Y953149D3*
D25*
X943700Y1143700D3*
X443700D3*
D26*
Y1043700D3*
Y943700D3*
Y843700D3*
Y743700D3*
Y643700D3*
Y543700D3*
Y443700D3*
X943700Y1043700D3*
Y943700D3*
Y843700D3*
Y743700D3*
Y643700D3*
Y543700D3*
Y443700D3*
X1331200Y1131200D2*
D13*
X1258700D1*
Y1128700D1*
X1193700Y953149D2*
D14*
Y918700D1*
X1543700Y1043700D2*
D15*
X1512598D1*
X1422046Y953149D1*
X1143700Y743700D2*
D14*
Y793700D1*
X1423129Y731200D2*
Y764271D1*
X1418700Y768700D1*
X1181200Y438385D2*
X1250885D1*
X1256200Y443700D1*
X1409546Y643109D2*
X1355609D1*
X1343700Y631200D1*
X1193700Y953149D2*
D16*
X1422046D1*
X1181200Y515157D2*
D14*
X1265157D1*
X1409546Y489566D2*
X1477066D1*
X1493700Y506200D1*
Y693700D1*
X1543700Y743700D1*
X1181200Y668700D2*
D17*
X1295628D1*
X1409546D1*
X1193700Y862598D2*
D16*
X1199802D1*
X1253936Y808464D1*
Y743700D1*
Y731200D1*
X1356200D1*
Y729272D1*
X1295628Y668700D1*
X1409546Y540747D2*
D14*
Y543700D1*
X1306200D1*
X1409546Y591928D2*
X1454428D1*
X1468700Y606200D1*
Y768700D1*
X1543700Y843700D1*
X1181200Y566338D2*
X1066338D1*
X1043700Y543700D1*
X1193700Y1043700D2*
D16*
X1353936D1*
X1441436Y1131200D1*
X1543700Y1143700D2*
X1453936D1*
X1441436Y1131200D1*
X1181200Y617519D2*
D14*
X1119881D1*
D27*
X1265157Y515157D3*
X1306200Y543700D3*
X1119881Y617519D3*
X1258700Y1128700D3*
X1193700Y918700D3*
X1143700Y793700D3*
X1418700Y768700D3*
X1256200Y443700D3*
X1343700Y631200D3*
D19*
X1331200Y1131200D3*
X1441436D3*
X1143700Y743700D3*
X1253936D3*
D20*
X1356200Y731200D3*
X1423129D3*
D21*
X1181200Y668700D3*
Y643109D3*
Y617519D3*
Y591928D3*
Y566338D3*
Y540747D3*
Y515157D3*
Y489566D3*
Y463976D3*
Y438385D3*
X1409554D3*
X1409546Y463976D3*
Y489566D3*
Y515157D3*
Y540747D3*
Y566338D3*
Y591928D3*
Y617519D3*
Y643109D3*
Y668700D3*
D23*
X1193700Y1043700D3*
Y953149D3*
Y862598D3*
D24*
X1422046Y953149D3*
D25*
X1543700Y1143700D3*
X1043700D3*
D26*
Y1043700D3*
Y943700D3*
Y843700D3*
Y743700D3*
Y643700D3*
Y543700D3*
Y443700D3*
X1543700Y1043700D3*
Y943700D3*
Y843700D3*
Y743700D3*
Y643700D3*
Y543700D3*
Y443700D3*
X1931200Y1131200D2*
D13*
X1858700D1*
Y1128700D1*
X1793700Y953149D2*
D14*
Y918700D1*
X2143700Y1043700D2*
D15*
X2112598D1*
X2022046Y953149D1*
X1743700Y743700D2*
D14*
Y793700D1*
X2023129Y731200D2*
Y764271D1*
X2018700Y768700D1*
X1781200Y438385D2*
X1850885D1*
X1856200Y443700D1*
X2009546Y643109D2*
X1955609D1*
X1943700Y631200D1*
X1793700Y953149D2*
D16*
X2022046D1*
X1781200Y515157D2*
D14*
X1865157D1*
X2009546Y489566D2*
X2077066D1*
X2093700Y506200D1*
Y693700D1*
X2143700Y743700D1*
X1781200Y668700D2*
D17*
X1895628D1*
X2009546D1*
X1793700Y862598D2*
D16*
X1799802D1*
X1853936Y808464D1*
Y743700D1*
Y731200D1*
X1956200D1*
Y729272D1*
X1895628Y668700D1*
X2009546Y540747D2*
D14*
Y543700D1*
X1906200D1*
X2009546Y591928D2*
X2054428D1*
X2068700Y606200D1*
Y768700D1*
X2143700Y843700D1*
X1781200Y566338D2*
X1666338D1*
X1643700Y543700D1*
X1793700Y1043700D2*
D16*
X1953936D1*
X2041436Y1131200D1*
X2143700Y1143700D2*
X2053936D1*
X2041436Y1131200D1*
X1781200Y617519D2*
D14*
X1719881D1*
D27*
X1865157Y515157D3*
X1906200Y543700D3*
X1719881Y617519D3*
X1858700Y1128700D3*
X1793700Y918700D3*
X1743700Y793700D3*
X2018700Y768700D3*
X1856200Y443700D3*
X1943700Y631200D3*
D19*
X1931200Y1131200D3*
X2041436D3*
X1743700Y743700D3*
X1853936D3*
D20*
X1956200Y731200D3*
X2023129D3*
D21*
X1781200Y668700D3*
Y643109D3*
Y617519D3*
Y591928D3*
Y566338D3*
Y540747D3*
Y515157D3*
Y489566D3*
Y463976D3*
Y438385D3*
X2009554D3*
X2009546Y463976D3*
Y489566D3*
Y515157D3*
Y540747D3*
Y566338D3*
Y591928D3*
Y617519D3*
Y643109D3*
Y668700D3*
D23*
X1793700Y1043700D3*
Y953149D3*
Y862598D3*
D24*
X2022046Y953149D3*
D25*
X2143700Y1143700D3*
X1643700D3*
D26*
Y1043700D3*
Y943700D3*
Y843700D3*
Y743700D3*
Y643700D3*
Y543700D3*
Y443700D3*
X2143700Y1043700D3*
Y943700D3*
Y843700D3*
Y743700D3*
Y643700D3*
Y543700D3*
Y443700D3*
X2531200Y1131200D2*
D13*
X2458700D1*
Y1128700D1*
X2393700Y953149D2*
D14*
Y918700D1*
X2743700Y1043700D2*
D15*
X2712598D1*
X2622046Y953149D1*
X2343700Y743700D2*
D14*
Y793700D1*
X2623129Y731200D2*
Y764271D1*
X2618700Y768700D1*
X2381200Y438385D2*
X2450885D1*
X2456200Y443700D1*
X2609546Y643109D2*
X2555609D1*
X2543700Y631200D1*
X2393700Y953149D2*
D16*
X2622046D1*
X2381200Y515157D2*
D14*
X2465157D1*
X2609546Y489566D2*
X2677066D1*
X2693700Y506200D1*
Y693700D1*
X2743700Y743700D1*
X2381200Y668700D2*
D17*
X2495628D1*
X2609546D1*
X2393700Y862598D2*
D16*
X2399802D1*
X2453936Y808464D1*
Y743700D1*
Y731200D1*
X2556200D1*
Y729272D1*
X2495628Y668700D1*
X2609546Y540747D2*
D14*
Y543700D1*
X2506200D1*
X2609546Y591928D2*
X2654428D1*
X2668700Y606200D1*
Y768700D1*
X2743700Y843700D1*
X2381200Y566338D2*
X2266338D1*
X2243700Y543700D1*
X2393700Y1043700D2*
D16*
X2553936D1*
X2641436Y1131200D1*
X2743700Y1143700D2*
X2653936D1*
X2641436Y1131200D1*
X2381200Y617519D2*
D14*
X2319881D1*
D27*
X2465157Y515157D3*
X2506200Y543700D3*
X2319881Y617519D3*
X2458700Y1128700D3*
X2393700Y918700D3*
X2343700Y793700D3*
X2618700Y768700D3*
X2456200Y443700D3*
X2543700Y631200D3*
D19*
X2531200Y1131200D3*
X2641436D3*
X2343700Y743700D3*
X2453936D3*
D20*
X2556200Y731200D3*
X2623129D3*
D21*
X2381200Y668700D3*
Y643109D3*
Y617519D3*
Y591928D3*
Y566338D3*
Y540747D3*
Y515157D3*
Y489566D3*
Y463976D3*
Y438385D3*
X2609554D3*
X2609546Y463976D3*
Y489566D3*
Y515157D3*
Y540747D3*
Y566338D3*
Y591928D3*
Y617519D3*
Y643109D3*
Y668700D3*
D23*
X2393700Y1043700D3*
Y953149D3*
Y862598D3*
D24*
X2622046Y953149D3*
D25*
X2743700Y1143700D3*
X2243700D3*
D26*
Y1043700D3*
Y943700D3*
Y843700D3*
Y743700D3*
Y643700D3*
Y543700D3*
Y443700D3*
X2743700Y1043700D3*
Y943700D3*
Y843700D3*
Y743700D3*
Y643700D3*
Y543700D3*
Y443700D3*
X3131200Y1131200D2*
D13*
X3058700D1*
Y1128700D1*
X2993700Y953149D2*
D14*
Y918700D1*
X3343700Y1043700D2*
D15*
X3312598D1*
X3222046Y953149D1*
X2943700Y743700D2*
D14*
Y793700D1*
X3223129Y731200D2*
Y764271D1*
X3218700Y768700D1*
X2981200Y438385D2*
X3050885D1*
X3056200Y443700D1*
X3209546Y643109D2*
X3155609D1*
X3143700Y631200D1*
X2993700Y953149D2*
D16*
X3222046D1*
X2981200Y515157D2*
D14*
X3065157D1*
X3209546Y489566D2*
X3277066D1*
X3293700Y506200D1*
Y693700D1*
X3343700Y743700D1*
X2981200Y668700D2*
D17*
X3095628D1*
X3209546D1*
X2993700Y862598D2*
D16*
X2999802D1*
X3053936Y808464D1*
Y743700D1*
Y731200D1*
X3156200D1*
Y729272D1*
X3095628Y668700D1*
X3209546Y540747D2*
D14*
Y543700D1*
X3106200D1*
X3209546Y591928D2*
X3254428D1*
X3268700Y606200D1*
Y768700D1*
X3343700Y843700D1*
X2981200Y566338D2*
X2866338D1*
X2843700Y543700D1*
X2993700Y1043700D2*
D16*
X3153936D1*
X3241436Y1131200D1*
X3343700Y1143700D2*
X3253936D1*
X3241436Y1131200D1*
X2981200Y617519D2*
D14*
X2919881D1*
D27*
X3065157Y515157D3*
X3106200Y543700D3*
X2919881Y617519D3*
X3058700Y1128700D3*
X2993700Y918700D3*
X2943700Y793700D3*
X3218700Y768700D3*
X3056200Y443700D3*
X3143700Y631200D3*
D19*
X3131200Y1131200D3*
X3241436D3*
X2943700Y743700D3*
X3053936D3*
D20*
X3156200Y731200D3*
X3223129D3*
D21*
X2981200Y668700D3*
Y643109D3*
Y617519D3*
Y591928D3*
Y566338D3*
Y540747D3*
Y515157D3*
Y489566D3*
Y463976D3*
Y438385D3*
X3209554D3*
X3209546Y463976D3*
Y489566D3*
Y515157D3*
Y540747D3*
Y566338D3*
Y591928D3*
Y617519D3*
Y643109D3*
Y668700D3*
D23*
X2993700Y1043700D3*
Y953149D3*
Y862598D3*
D24*
X3222046Y953149D3*
D25*
X3343700Y1143700D3*
X2843700D3*
D26*
Y1043700D3*
Y943700D3*
Y843700D3*
Y743700D3*
Y643700D3*
Y543700D3*
Y443700D3*
X3343700Y1043700D3*
Y943700D3*
Y843700D3*
Y743700D3*
Y643700D3*
Y543700D3*
Y443700D3*
X731200Y1931200D2*
D13*
X658700D1*
Y1928700D1*
X593700Y1753149D2*
D14*
Y1718700D1*
X943700Y1843700D2*
D15*
X912598D1*
X822046Y1753149D1*
X543700Y1543700D2*
D14*
Y1593700D1*
X823129Y1531200D2*
Y1564271D1*
X818700Y1568700D1*
X581200Y1238385D2*
X650885D1*
X656200Y1243700D1*
X809546Y1443109D2*
X755609D1*
X743700Y1431200D1*
X593700Y1753149D2*
D16*
X822046D1*
X581200Y1315157D2*
D14*
X665157D1*
X809546Y1289566D2*
X877066D1*
X893700Y1306200D1*
Y1493700D1*
X943700Y1543700D1*
X581200Y1468700D2*
D17*
X695628D1*
X809546D1*
X593700Y1662598D2*
D16*
X599802D1*
X653936Y1608464D1*
Y1543700D1*
Y1531200D1*
X756200D1*
Y1529272D1*
X695628Y1468700D1*
X809546Y1340747D2*
D14*
Y1343700D1*
X706200D1*
X809546Y1391928D2*
X854428D1*
X868700Y1406200D1*
Y1568700D1*
X943700Y1643700D1*
X581200Y1366338D2*
X466338D1*
X443700Y1343700D1*
X593700Y1843700D2*
D16*
X753936D1*
X841436Y1931200D1*
X943700Y1943700D2*
X853936D1*
X841436Y1931200D1*
X581200Y1417519D2*
D14*
X519881D1*
D27*
X665157Y1315157D3*
X706200Y1343700D3*
X519881Y1417519D3*
X658700Y1928700D3*
X593700Y1718700D3*
X543700Y1593700D3*
X818700Y1568700D3*
X656200Y1243700D3*
X743700Y1431200D3*
D19*
X731200Y1931200D3*
X841436D3*
X543700Y1543700D3*
X653936D3*
D20*
X756200Y1531200D3*
X823129D3*
D21*
X581200Y1468700D3*
Y1443109D3*
Y1417519D3*
Y1391928D3*
Y1366338D3*
Y1340747D3*
Y1315157D3*
Y1289566D3*
Y1263976D3*
Y1238385D3*
X809554D3*
X809546Y1263976D3*
Y1289566D3*
Y1315157D3*
Y1340747D3*
Y1366338D3*
Y1391928D3*
Y1417519D3*
Y1443109D3*
Y1468700D3*
D23*
X593700Y1843700D3*
Y1753149D3*
Y1662598D3*
D24*
X822046Y1753149D3*
D25*
X943700Y1943700D3*
X443700D3*
D26*
Y1843700D3*
Y1743700D3*
Y1643700D3*
Y1543700D3*
Y1443700D3*
Y1343700D3*
Y1243700D3*
X943700Y1843700D3*
Y1743700D3*
Y1643700D3*
Y1543700D3*
Y1443700D3*
Y1343700D3*
Y1243700D3*
X1331200Y1931200D2*
D13*
X1258700D1*
Y1928700D1*
X1193700Y1753149D2*
D14*
Y1718700D1*
X1543700Y1843700D2*
D15*
X1512598D1*
X1422046Y1753149D1*
X1143700Y1543700D2*
D14*
Y1593700D1*
X1423129Y1531200D2*
Y1564271D1*
X1418700Y1568700D1*
X1181200Y1238385D2*
X1250885D1*
X1256200Y1243700D1*
X1409546Y1443109D2*
X1355609D1*
X1343700Y1431200D1*
X1193700Y1753149D2*
D16*
X1422046D1*
X1181200Y1315157D2*
D14*
X1265157D1*
X1409546Y1289566D2*
X1477066D1*
X1493700Y1306200D1*
Y1493700D1*
X1543700Y1543700D1*
X1181200Y1468700D2*
D17*
X1295628D1*
X1409546D1*
X1193700Y1662598D2*
D16*
X1199802D1*
X1253936Y1608464D1*
Y1543700D1*
Y1531200D1*
X1356200D1*
Y1529272D1*
X1295628Y1468700D1*
X1409546Y1340747D2*
D14*
Y1343700D1*
X1306200D1*
X1409546Y1391928D2*
X1454428D1*
X1468700Y1406200D1*
Y1568700D1*
X1543700Y1643700D1*
X1181200Y1366338D2*
X1066338D1*
X1043700Y1343700D1*
X1193700Y1843700D2*
D16*
X1353936D1*
X1441436Y1931200D1*
X1543700Y1943700D2*
X1453936D1*
X1441436Y1931200D1*
X1181200Y1417519D2*
D14*
X1119881D1*
D27*
X1265157Y1315157D3*
X1306200Y1343700D3*
X1119881Y1417519D3*
X1258700Y1928700D3*
X1193700Y1718700D3*
X1143700Y1593700D3*
X1418700Y1568700D3*
X1256200Y1243700D3*
X1343700Y1431200D3*
D19*
X1331200Y1931200D3*
X1441436D3*
X1143700Y1543700D3*
X1253936D3*
D20*
X1356200Y1531200D3*
X1423129D3*
D21*
X1181200Y1468700D3*
Y1443109D3*
Y1417519D3*
Y1391928D3*
Y1366338D3*
Y1340747D3*
Y1315157D3*
Y1289566D3*
Y1263976D3*
Y1238385D3*
X1409554D3*
X1409546Y1263976D3*
Y1289566D3*
Y1315157D3*
Y1340747D3*
Y1366338D3*
Y1391928D3*
Y1417519D3*
Y1443109D3*
Y1468700D3*
D23*
X1193700Y1843700D3*
Y1753149D3*
Y1662598D3*
D24*
X1422046Y1753149D3*
D25*
X1543700Y1943700D3*
X1043700D3*
D26*
Y1843700D3*
Y1743700D3*
Y1643700D3*
Y1543700D3*
Y1443700D3*
Y1343700D3*
Y1243700D3*
X1543700Y1843700D3*
Y1743700D3*
Y1643700D3*
Y1543700D3*
Y1443700D3*
Y1343700D3*
Y1243700D3*
X1931200Y1931200D2*
D13*
X1858700D1*
Y1928700D1*
X1793700Y1753149D2*
D14*
Y1718700D1*
X2143700Y1843700D2*
D15*
X2112598D1*
X2022046Y1753149D1*
X1743700Y1543700D2*
D14*
Y1593700D1*
X2023129Y1531200D2*
Y1564271D1*
X2018700Y1568700D1*
X1781200Y1238385D2*
X1850885D1*
X1856200Y1243700D1*
X2009546Y1443109D2*
X1955609D1*
X1943700Y1431200D1*
X1793700Y1753149D2*
D16*
X2022046D1*
X1781200Y1315157D2*
D14*
X1865157D1*
X2009546Y1289566D2*
X2077066D1*
X2093700Y1306200D1*
Y1493700D1*
X2143700Y1543700D1*
X1781200Y1468700D2*
D17*
X1895628D1*
X2009546D1*
X1793700Y1662598D2*
D16*
X1799802D1*
X1853936Y1608464D1*
Y1543700D1*
Y1531200D1*
X1956200D1*
Y1529272D1*
X1895628Y1468700D1*
X2009546Y1340747D2*
D14*
Y1343700D1*
X1906200D1*
X2009546Y1391928D2*
X2054428D1*
X2068700Y1406200D1*
Y1568700D1*
X2143700Y1643700D1*
X1781200Y1366338D2*
X1666338D1*
X1643700Y1343700D1*
X1793700Y1843700D2*
D16*
X1953936D1*
X2041436Y1931200D1*
X2143700Y1943700D2*
X2053936D1*
X2041436Y1931200D1*
X1781200Y1417519D2*
D14*
X1719881D1*
D27*
X1865157Y1315157D3*
X1906200Y1343700D3*
X1719881Y1417519D3*
X1858700Y1928700D3*
X1793700Y1718700D3*
X1743700Y1593700D3*
X2018700Y1568700D3*
X1856200Y1243700D3*
X1943700Y1431200D3*
D19*
X1931200Y1931200D3*
X2041436D3*
X1743700Y1543700D3*
X1853936D3*
D20*
X1956200Y1531200D3*
X2023129D3*
D21*
X1781200Y1468700D3*
Y1443109D3*
Y1417519D3*
Y1391928D3*
Y1366338D3*
Y1340747D3*
Y1315157D3*
Y1289566D3*
Y1263976D3*
Y1238385D3*
X2009554D3*
X2009546Y1263976D3*
Y1289566D3*
Y1315157D3*
Y1340747D3*
Y1366338D3*
Y1391928D3*
Y1417519D3*
Y1443109D3*
Y1468700D3*
D23*
X1793700Y1843700D3*
Y1753149D3*
Y1662598D3*
D24*
X2022046Y1753149D3*
D25*
X2143700Y1943700D3*
X1643700D3*
D26*
Y1843700D3*
Y1743700D3*
Y1643700D3*
Y1543700D3*
Y1443700D3*
Y1343700D3*
Y1243700D3*
X2143700Y1843700D3*
Y1743700D3*
Y1643700D3*
Y1543700D3*
Y1443700D3*
Y1343700D3*
Y1243700D3*
X2531200Y1931200D2*
D13*
X2458700D1*
Y1928700D1*
X2393700Y1753149D2*
D14*
Y1718700D1*
X2743700Y1843700D2*
D15*
X2712598D1*
X2622046Y1753149D1*
X2343700Y1543700D2*
D14*
Y1593700D1*
X2623129Y1531200D2*
Y1564271D1*
X2618700Y1568700D1*
X2381200Y1238385D2*
X2450885D1*
X2456200Y1243700D1*
X2609546Y1443109D2*
X2555609D1*
X2543700Y1431200D1*
X2393700Y1753149D2*
D16*
X2622046D1*
X2381200Y1315157D2*
D14*
X2465157D1*
X2609546Y1289566D2*
X2677066D1*
X2693700Y1306200D1*
Y1493700D1*
X2743700Y1543700D1*
X2381200Y1468700D2*
D17*
X2495628D1*
X2609546D1*
X2393700Y1662598D2*
D16*
X2399802D1*
X2453936Y1608464D1*
Y1543700D1*
Y1531200D1*
X2556200D1*
Y1529272D1*
X2495628Y1468700D1*
X2609546Y1340747D2*
D14*
Y1343700D1*
X2506200D1*
X2609546Y1391928D2*
X2654428D1*
X2668700Y1406200D1*
Y1568700D1*
X2743700Y1643700D1*
X2381200Y1366338D2*
X2266338D1*
X2243700Y1343700D1*
X2393700Y1843700D2*
D16*
X2553936D1*
X2641436Y1931200D1*
X2743700Y1943700D2*
X2653936D1*
X2641436Y1931200D1*
X2381200Y1417519D2*
D14*
X2319881D1*
D27*
X2465157Y1315157D3*
X2506200Y1343700D3*
X2319881Y1417519D3*
X2458700Y1928700D3*
X2393700Y1718700D3*
X2343700Y1593700D3*
X2618700Y1568700D3*
X2456200Y1243700D3*
X2543700Y1431200D3*
D19*
X2531200Y1931200D3*
X2641436D3*
X2343700Y1543700D3*
X2453936D3*
D20*
X2556200Y1531200D3*
X2623129D3*
D21*
X2381200Y1468700D3*
Y1443109D3*
Y1417519D3*
Y1391928D3*
Y1366338D3*
Y1340747D3*
Y1315157D3*
Y1289566D3*
Y1263976D3*
Y1238385D3*
X2609554D3*
X2609546Y1263976D3*
Y1289566D3*
Y1315157D3*
Y1340747D3*
Y1366338D3*
Y1391928D3*
Y1417519D3*
Y1443109D3*
Y1468700D3*
D23*
X2393700Y1843700D3*
Y1753149D3*
Y1662598D3*
D24*
X2622046Y1753149D3*
D25*
X2743700Y1943700D3*
X2243700D3*
D26*
Y1843700D3*
Y1743700D3*
Y1643700D3*
Y1543700D3*
Y1443700D3*
Y1343700D3*
Y1243700D3*
X2743700Y1843700D3*
Y1743700D3*
Y1643700D3*
Y1543700D3*
Y1443700D3*
Y1343700D3*
Y1243700D3*
X3131200Y1931200D2*
D13*
X3058700D1*
Y1928700D1*
X2993700Y1753149D2*
D14*
Y1718700D1*
X3343700Y1843700D2*
D15*
X3312598D1*
X3222046Y1753149D1*
X2943700Y1543700D2*
D14*
Y1593700D1*
X3223129Y1531200D2*
Y1564271D1*
X3218700Y1568700D1*
X2981200Y1238385D2*
X3050885D1*
X3056200Y1243700D1*
X3209546Y1443109D2*
X3155609D1*
X3143700Y1431200D1*
X2993700Y1753149D2*
D16*
X3222046D1*
X2981200Y1315157D2*
D14*
X3065157D1*
X3209546Y1289566D2*
X3277066D1*
X3293700Y1306200D1*
Y1493700D1*
X3343700Y1543700D1*
X2981200Y1468700D2*
D17*
X3095628D1*
X3209546D1*
X2993700Y1662598D2*
D16*
X2999802D1*
X3053936Y1608464D1*
Y1543700D1*
Y1531200D1*
X3156200D1*
Y1529272D1*
X3095628Y1468700D1*
X3209546Y1340747D2*
D14*
Y1343700D1*
X3106200D1*
X3209546Y1391928D2*
X3254428D1*
X3268700Y1406200D1*
Y1568700D1*
X3343700Y1643700D1*
X2981200Y1366338D2*
X2866338D1*
X2843700Y1343700D1*
X2993700Y1843700D2*
D16*
X3153936D1*
X3241436Y1931200D1*
X3343700Y1943700D2*
X3253936D1*
X3241436Y1931200D1*
X2981200Y1417519D2*
D14*
X2919881D1*
D27*
X3065157Y1315157D3*
X3106200Y1343700D3*
X2919881Y1417519D3*
X3058700Y1928700D3*
X2993700Y1718700D3*
X2943700Y1593700D3*
X3218700Y1568700D3*
X3056200Y1243700D3*
X3143700Y1431200D3*
D19*
X3131200Y1931200D3*
X3241436D3*
X2943700Y1543700D3*
X3053936D3*
D20*
X3156200Y1531200D3*
X3223129D3*
D21*
X2981200Y1468700D3*
Y1443109D3*
Y1417519D3*
Y1391928D3*
Y1366338D3*
Y1340747D3*
Y1315157D3*
Y1289566D3*
Y1263976D3*
Y1238385D3*
X3209554D3*
X3209546Y1263976D3*
Y1289566D3*
Y1315157D3*
Y1340747D3*
Y1366338D3*
Y1391928D3*
Y1417519D3*
Y1443109D3*
Y1468700D3*
D23*
X2993700Y1843700D3*
Y1753149D3*
Y1662598D3*
D24*
X3222046Y1753149D3*
D25*
X3343700Y1943700D3*
X2843700D3*
D26*
Y1843700D3*
Y1743700D3*
Y1643700D3*
Y1543700D3*
Y1443700D3*
Y1343700D3*
Y1243700D3*
X3343700Y1843700D3*
Y1743700D3*
Y1643700D3*
Y1543700D3*
Y1443700D3*
Y1343700D3*
Y1243700D3*
X731200Y2731200D2*
D13*
X658700D1*
Y2728700D1*
X593700Y2553149D2*
D14*
Y2518700D1*
X943700Y2643700D2*
D15*
X912598D1*
X822046Y2553149D1*
X543700Y2343700D2*
D14*
Y2393700D1*
X823129Y2331200D2*
Y2364271D1*
X818700Y2368700D1*
X581200Y2038385D2*
X650885D1*
X656200Y2043700D1*
X809546Y2243109D2*
X755609D1*
X743700Y2231200D1*
X593700Y2553149D2*
D16*
X822046D1*
X581200Y2115157D2*
D14*
X665157D1*
X809546Y2089566D2*
X877066D1*
X893700Y2106200D1*
Y2293700D1*
X943700Y2343700D1*
X581200Y2268700D2*
D17*
X695628D1*
X809546D1*
X593700Y2462598D2*
D16*
X599802D1*
X653936Y2408464D1*
Y2343700D1*
Y2331200D1*
X756200D1*
Y2329272D1*
X695628Y2268700D1*
X809546Y2140747D2*
D14*
Y2143700D1*
X706200D1*
X809546Y2191928D2*
X854428D1*
X868700Y2206200D1*
Y2368700D1*
X943700Y2443700D1*
X581200Y2166338D2*
X466338D1*
X443700Y2143700D1*
X593700Y2643700D2*
D16*
X753936D1*
X841436Y2731200D1*
X943700Y2743700D2*
X853936D1*
X841436Y2731200D1*
X581200Y2217519D2*
D14*
X519881D1*
D27*
X665157Y2115157D3*
X706200Y2143700D3*
X519881Y2217519D3*
X658700Y2728700D3*
X593700Y2518700D3*
X543700Y2393700D3*
X818700Y2368700D3*
X656200Y2043700D3*
X743700Y2231200D3*
D19*
X731200Y2731200D3*
X841436D3*
X543700Y2343700D3*
X653936D3*
D20*
X756200Y2331200D3*
X823129D3*
D21*
X581200Y2268700D3*
Y2243109D3*
Y2217519D3*
Y2191928D3*
Y2166338D3*
Y2140747D3*
Y2115157D3*
Y2089566D3*
Y2063976D3*
Y2038385D3*
X809554D3*
X809546Y2063976D3*
Y2089566D3*
Y2115157D3*
Y2140747D3*
Y2166338D3*
Y2191928D3*
Y2217519D3*
Y2243109D3*
Y2268700D3*
D23*
X593700Y2643700D3*
Y2553149D3*
Y2462598D3*
D24*
X822046Y2553149D3*
D25*
X943700Y2743700D3*
X443700D3*
D26*
Y2643700D3*
Y2543700D3*
Y2443700D3*
Y2343700D3*
Y2243700D3*
Y2143700D3*
Y2043700D3*
X943700Y2643700D3*
Y2543700D3*
Y2443700D3*
Y2343700D3*
Y2243700D3*
Y2143700D3*
Y2043700D3*
X1331200Y2731200D2*
D13*
X1258700D1*
Y2728700D1*
X1193700Y2553149D2*
D14*
Y2518700D1*
X1543700Y2643700D2*
D15*
X1512598D1*
X1422046Y2553149D1*
X1143700Y2343700D2*
D14*
Y2393700D1*
X1423129Y2331200D2*
Y2364271D1*
X1418700Y2368700D1*
X1181200Y2038385D2*
X1250885D1*
X1256200Y2043700D1*
X1409546Y2243109D2*
X1355609D1*
X1343700Y2231200D1*
X1193700Y2553149D2*
D16*
X1422046D1*
X1181200Y2115157D2*
D14*
X1265157D1*
X1409546Y2089566D2*
X1477066D1*
X1493700Y2106200D1*
Y2293700D1*
X1543700Y2343700D1*
X1181200Y2268700D2*
D17*
X1295628D1*
X1409546D1*
X1193700Y2462598D2*
D16*
X1199802D1*
X1253936Y2408464D1*
Y2343700D1*
Y2331200D1*
X1356200D1*
Y2329272D1*
X1295628Y2268700D1*
X1409546Y2140747D2*
D14*
Y2143700D1*
X1306200D1*
X1409546Y2191928D2*
X1454428D1*
X1468700Y2206200D1*
Y2368700D1*
X1543700Y2443700D1*
X1181200Y2166338D2*
X1066338D1*
X1043700Y2143700D1*
X1193700Y2643700D2*
D16*
X1353936D1*
X1441436Y2731200D1*
X1543700Y2743700D2*
X1453936D1*
X1441436Y2731200D1*
X1181200Y2217519D2*
D14*
X1119881D1*
D27*
X1265157Y2115157D3*
X1306200Y2143700D3*
X1119881Y2217519D3*
X1258700Y2728700D3*
X1193700Y2518700D3*
X1143700Y2393700D3*
X1418700Y2368700D3*
X1256200Y2043700D3*
X1343700Y2231200D3*
D19*
X1331200Y2731200D3*
X1441436D3*
X1143700Y2343700D3*
X1253936D3*
D20*
X1356200Y2331200D3*
X1423129D3*
D21*
X1181200Y2268700D3*
Y2243109D3*
Y2217519D3*
Y2191928D3*
Y2166338D3*
Y2140747D3*
Y2115157D3*
Y2089566D3*
Y2063976D3*
Y2038385D3*
X1409554D3*
X1409546Y2063976D3*
Y2089566D3*
Y2115157D3*
Y2140747D3*
Y2166338D3*
Y2191928D3*
Y2217519D3*
Y2243109D3*
Y2268700D3*
D23*
X1193700Y2643700D3*
Y2553149D3*
Y2462598D3*
D24*
X1422046Y2553149D3*
D25*
X1543700Y2743700D3*
X1043700D3*
D26*
Y2643700D3*
Y2543700D3*
Y2443700D3*
Y2343700D3*
Y2243700D3*
Y2143700D3*
Y2043700D3*
X1543700Y2643700D3*
Y2543700D3*
Y2443700D3*
Y2343700D3*
Y2243700D3*
Y2143700D3*
Y2043700D3*
X1931200Y2731200D2*
D13*
X1858700D1*
Y2728700D1*
X1793700Y2553149D2*
D14*
Y2518700D1*
X2143700Y2643700D2*
D15*
X2112598D1*
X2022046Y2553149D1*
X1743700Y2343700D2*
D14*
Y2393700D1*
X2023129Y2331200D2*
Y2364271D1*
X2018700Y2368700D1*
X1781200Y2038385D2*
X1850885D1*
X1856200Y2043700D1*
X2009546Y2243109D2*
X1955609D1*
X1943700Y2231200D1*
X1793700Y2553149D2*
D16*
X2022046D1*
X1781200Y2115157D2*
D14*
X1865157D1*
X2009546Y2089566D2*
X2077066D1*
X2093700Y2106200D1*
Y2293700D1*
X2143700Y2343700D1*
X1781200Y2268700D2*
D17*
X1895628D1*
X2009546D1*
X1793700Y2462598D2*
D16*
X1799802D1*
X1853936Y2408464D1*
Y2343700D1*
Y2331200D1*
X1956200D1*
Y2329272D1*
X1895628Y2268700D1*
X2009546Y2140747D2*
D14*
Y2143700D1*
X1906200D1*
X2009546Y2191928D2*
X2054428D1*
X2068700Y2206200D1*
Y2368700D1*
X2143700Y2443700D1*
X1781200Y2166338D2*
X1666338D1*
X1643700Y2143700D1*
X1793700Y2643700D2*
D16*
X1953936D1*
X2041436Y2731200D1*
X2143700Y2743700D2*
X2053936D1*
X2041436Y2731200D1*
X1781200Y2217519D2*
D14*
X1719881D1*
D27*
X1865157Y2115157D3*
X1906200Y2143700D3*
X1719881Y2217519D3*
X1858700Y2728700D3*
X1793700Y2518700D3*
X1743700Y2393700D3*
X2018700Y2368700D3*
X1856200Y2043700D3*
X1943700Y2231200D3*
D19*
X1931200Y2731200D3*
X2041436D3*
X1743700Y2343700D3*
X1853936D3*
D20*
X1956200Y2331200D3*
X2023129D3*
D21*
X1781200Y2268700D3*
Y2243109D3*
Y2217519D3*
Y2191928D3*
Y2166338D3*
Y2140747D3*
Y2115157D3*
Y2089566D3*
Y2063976D3*
Y2038385D3*
X2009554D3*
X2009546Y2063976D3*
Y2089566D3*
Y2115157D3*
Y2140747D3*
Y2166338D3*
Y2191928D3*
Y2217519D3*
Y2243109D3*
Y2268700D3*
D23*
X1793700Y2643700D3*
Y2553149D3*
Y2462598D3*
D24*
X2022046Y2553149D3*
D25*
X2143700Y2743700D3*
X1643700D3*
D26*
Y2643700D3*
Y2543700D3*
Y2443700D3*
Y2343700D3*
Y2243700D3*
Y2143700D3*
Y2043700D3*
X2143700Y2643700D3*
Y2543700D3*
Y2443700D3*
Y2343700D3*
Y2243700D3*
Y2143700D3*
Y2043700D3*
X2531200Y2731200D2*
D13*
X2458700D1*
Y2728700D1*
X2393700Y2553149D2*
D14*
Y2518700D1*
X2743700Y2643700D2*
D15*
X2712598D1*
X2622046Y2553149D1*
X2343700Y2343700D2*
D14*
Y2393700D1*
X2623129Y2331200D2*
Y2364271D1*
X2618700Y2368700D1*
X2381200Y2038385D2*
X2450885D1*
X2456200Y2043700D1*
X2609546Y2243109D2*
X2555609D1*
X2543700Y2231200D1*
X2393700Y2553149D2*
D16*
X2622046D1*
X2381200Y2115157D2*
D14*
X2465157D1*
X2609546Y2089566D2*
X2677066D1*
X2693700Y2106200D1*
Y2293700D1*
X2743700Y2343700D1*
X2381200Y2268700D2*
D17*
X2495628D1*
X2609546D1*
X2393700Y2462598D2*
D16*
X2399802D1*
X2453936Y2408464D1*
Y2343700D1*
Y2331200D1*
X2556200D1*
Y2329272D1*
X2495628Y2268700D1*
X2609546Y2140747D2*
D14*
Y2143700D1*
X2506200D1*
X2609546Y2191928D2*
X2654428D1*
X2668700Y2206200D1*
Y2368700D1*
X2743700Y2443700D1*
X2381200Y2166338D2*
X2266338D1*
X2243700Y2143700D1*
X2393700Y2643700D2*
D16*
X2553936D1*
X2641436Y2731200D1*
X2743700Y2743700D2*
X2653936D1*
X2641436Y2731200D1*
X2381200Y2217519D2*
D14*
X2319881D1*
D27*
X2465157Y2115157D3*
X2506200Y2143700D3*
X2319881Y2217519D3*
X2458700Y2728700D3*
X2393700Y2518700D3*
X2343700Y2393700D3*
X2618700Y2368700D3*
X2456200Y2043700D3*
X2543700Y2231200D3*
D19*
X2531200Y2731200D3*
X2641436D3*
X2343700Y2343700D3*
X2453936D3*
D20*
X2556200Y2331200D3*
X2623129D3*
D21*
X2381200Y2268700D3*
Y2243109D3*
Y2217519D3*
Y2191928D3*
Y2166338D3*
Y2140747D3*
Y2115157D3*
Y2089566D3*
Y2063976D3*
Y2038385D3*
X2609554D3*
X2609546Y2063976D3*
Y2089566D3*
Y2115157D3*
Y2140747D3*
Y2166338D3*
Y2191928D3*
Y2217519D3*
Y2243109D3*
Y2268700D3*
D23*
X2393700Y2643700D3*
Y2553149D3*
Y2462598D3*
D24*
X2622046Y2553149D3*
D25*
X2743700Y2743700D3*
X2243700D3*
D26*
Y2643700D3*
Y2543700D3*
Y2443700D3*
Y2343700D3*
Y2243700D3*
Y2143700D3*
Y2043700D3*
X2743700Y2643700D3*
Y2543700D3*
Y2443700D3*
Y2343700D3*
Y2243700D3*
Y2143700D3*
Y2043700D3*
X3131200Y2731200D2*
D13*
X3058700D1*
Y2728700D1*
X2993700Y2553149D2*
D14*
Y2518700D1*
X3343700Y2643700D2*
D15*
X3312598D1*
X3222046Y2553149D1*
X2943700Y2343700D2*
D14*
Y2393700D1*
X3223129Y2331200D2*
Y2364271D1*
X3218700Y2368700D1*
X2981200Y2038385D2*
X3050885D1*
X3056200Y2043700D1*
X3209546Y2243109D2*
X3155609D1*
X3143700Y2231200D1*
X2993700Y2553149D2*
D16*
X3222046D1*
X2981200Y2115157D2*
D14*
X3065157D1*
X3209546Y2089566D2*
X3277066D1*
X3293700Y2106200D1*
Y2293700D1*
X3343700Y2343700D1*
X2981200Y2268700D2*
D17*
X3095628D1*
X3209546D1*
X2993700Y2462598D2*
D16*
X2999802D1*
X3053936Y2408464D1*
Y2343700D1*
Y2331200D1*
X3156200D1*
Y2329272D1*
X3095628Y2268700D1*
X3209546Y2140747D2*
D14*
Y2143700D1*
X3106200D1*
X3209546Y2191928D2*
X3254428D1*
X3268700Y2206200D1*
Y2368700D1*
X3343700Y2443700D1*
X2981200Y2166338D2*
X2866338D1*
X2843700Y2143700D1*
X2993700Y2643700D2*
D16*
X3153936D1*
X3241436Y2731200D1*
X3343700Y2743700D2*
X3253936D1*
X3241436Y2731200D1*
X2981200Y2217519D2*
D14*
X2919881D1*
D27*
X3065157Y2115157D3*
X3106200Y2143700D3*
X2919881Y2217519D3*
X3058700Y2728700D3*
X2993700Y2518700D3*
X2943700Y2393700D3*
X3218700Y2368700D3*
X3056200Y2043700D3*
X3143700Y2231200D3*
D19*
X3131200Y2731200D3*
X3241436D3*
X2943700Y2343700D3*
X3053936D3*
D20*
X3156200Y2331200D3*
X3223129D3*
D21*
X2981200Y2268700D3*
Y2243109D3*
Y2217519D3*
Y2191928D3*
Y2166338D3*
Y2140747D3*
Y2115157D3*
Y2089566D3*
Y2063976D3*
Y2038385D3*
X3209554D3*
X3209546Y2063976D3*
Y2089566D3*
Y2115157D3*
Y2140747D3*
Y2166338D3*
Y2191928D3*
Y2217519D3*
Y2243109D3*
Y2268700D3*
D23*
X2993700Y2643700D3*
Y2553149D3*
Y2462598D3*
D24*
X3222046Y2553149D3*
D25*
X3343700Y2743700D3*
X2843700D3*
D26*
Y2643700D3*
Y2543700D3*
Y2443700D3*
Y2343700D3*
Y2243700D3*
Y2143700D3*
Y2043700D3*
X3343700Y2643700D3*
Y2543700D3*
Y2443700D3*
Y2343700D3*
Y2243700D3*
Y2143700D3*
Y2043700D3*
X731200Y3531200D2*
D13*
X658700D1*
Y3528700D1*
X593700Y3353149D2*
D14*
Y3318700D1*
X943700Y3443700D2*
D15*
X912598D1*
X822046Y3353149D1*
X543700Y3143700D2*
D14*
Y3193700D1*
X823129Y3131200D2*
Y3164271D1*
X818700Y3168700D1*
X581200Y2838385D2*
X650885D1*
X656200Y2843700D1*
X809546Y3043109D2*
X755609D1*
X743700Y3031200D1*
X593700Y3353149D2*
D16*
X822046D1*
X581200Y2915157D2*
D14*
X665157D1*
X809546Y2889566D2*
X877066D1*
X893700Y2906200D1*
Y3093700D1*
X943700Y3143700D1*
X581200Y3068700D2*
D17*
X695628D1*
X809546D1*
X593700Y3262598D2*
D16*
X599802D1*
X653936Y3208464D1*
Y3143700D1*
Y3131200D1*
X756200D1*
Y3129272D1*
X695628Y3068700D1*
X809546Y2940747D2*
D14*
Y2943700D1*
X706200D1*
X809546Y2991928D2*
X854428D1*
X868700Y3006200D1*
Y3168700D1*
X943700Y3243700D1*
X581200Y2966338D2*
X466338D1*
X443700Y2943700D1*
X593700Y3443700D2*
D16*
X753936D1*
X841436Y3531200D1*
X943700Y3543700D2*
X853936D1*
X841436Y3531200D1*
X581200Y3017519D2*
D14*
X519881D1*
D27*
X665157Y2915157D3*
X706200Y2943700D3*
X519881Y3017519D3*
X658700Y3528700D3*
X593700Y3318700D3*
X543700Y3193700D3*
X818700Y3168700D3*
X656200Y2843700D3*
X743700Y3031200D3*
D19*
X731200Y3531200D3*
X841436D3*
X543700Y3143700D3*
X653936D3*
D20*
X756200Y3131200D3*
X823129D3*
D21*
X581200Y3068700D3*
Y3043109D3*
Y3017519D3*
Y2991928D3*
Y2966338D3*
Y2940747D3*
Y2915157D3*
Y2889566D3*
Y2863976D3*
Y2838385D3*
X809554D3*
X809546Y2863976D3*
Y2889566D3*
Y2915157D3*
Y2940747D3*
Y2966338D3*
Y2991928D3*
Y3017519D3*
Y3043109D3*
Y3068700D3*
D23*
X593700Y3443700D3*
Y3353149D3*
Y3262598D3*
D24*
X822046Y3353149D3*
D25*
X943700Y3543700D3*
X443700D3*
D26*
Y3443700D3*
Y3343700D3*
Y3243700D3*
Y3143700D3*
Y3043700D3*
Y2943700D3*
Y2843700D3*
X943700Y3443700D3*
Y3343700D3*
Y3243700D3*
Y3143700D3*
Y3043700D3*
Y2943700D3*
Y2843700D3*
X1331200Y3531200D2*
D13*
X1258700D1*
Y3528700D1*
X1193700Y3353149D2*
D14*
Y3318700D1*
X1543700Y3443700D2*
D15*
X1512598D1*
X1422046Y3353149D1*
X1143700Y3143700D2*
D14*
Y3193700D1*
X1423129Y3131200D2*
Y3164271D1*
X1418700Y3168700D1*
X1181200Y2838385D2*
X1250885D1*
X1256200Y2843700D1*
X1409546Y3043109D2*
X1355609D1*
X1343700Y3031200D1*
X1193700Y3353149D2*
D16*
X1422046D1*
X1181200Y2915157D2*
D14*
X1265157D1*
X1409546Y2889566D2*
X1477066D1*
X1493700Y2906200D1*
Y3093700D1*
X1543700Y3143700D1*
X1181200Y3068700D2*
D17*
X1295628D1*
X1409546D1*
X1193700Y3262598D2*
D16*
X1199802D1*
X1253936Y3208464D1*
Y3143700D1*
Y3131200D1*
X1356200D1*
Y3129272D1*
X1295628Y3068700D1*
X1409546Y2940747D2*
D14*
Y2943700D1*
X1306200D1*
X1409546Y2991928D2*
X1454428D1*
X1468700Y3006200D1*
Y3168700D1*
X1543700Y3243700D1*
X1181200Y2966338D2*
X1066338D1*
X1043700Y2943700D1*
X1193700Y3443700D2*
D16*
X1353936D1*
X1441436Y3531200D1*
X1543700Y3543700D2*
X1453936D1*
X1441436Y3531200D1*
X1181200Y3017519D2*
D14*
X1119881D1*
D27*
X1265157Y2915157D3*
X1306200Y2943700D3*
X1119881Y3017519D3*
X1258700Y3528700D3*
X1193700Y3318700D3*
X1143700Y3193700D3*
X1418700Y3168700D3*
X1256200Y2843700D3*
X1343700Y3031200D3*
D19*
X1331200Y3531200D3*
X1441436D3*
X1143700Y3143700D3*
X1253936D3*
D20*
X1356200Y3131200D3*
X1423129D3*
D21*
X1181200Y3068700D3*
Y3043109D3*
Y3017519D3*
Y2991928D3*
Y2966338D3*
Y2940747D3*
Y2915157D3*
Y2889566D3*
Y2863976D3*
Y2838385D3*
X1409554D3*
X1409546Y2863976D3*
Y2889566D3*
Y2915157D3*
Y2940747D3*
Y2966338D3*
Y2991928D3*
Y3017519D3*
Y3043109D3*
Y3068700D3*
D23*
X1193700Y3443700D3*
Y3353149D3*
Y3262598D3*
D24*
X1422046Y3353149D3*
D25*
X1543700Y3543700D3*
X1043700D3*
D26*
Y3443700D3*
Y3343700D3*
Y3243700D3*
Y3143700D3*
Y3043700D3*
Y2943700D3*
Y2843700D3*
X1543700Y3443700D3*
Y3343700D3*
Y3243700D3*
Y3143700D3*
Y3043700D3*
Y2943700D3*
Y2843700D3*
X1931200Y3531200D2*
D13*
X1858700D1*
Y3528700D1*
X1793700Y3353149D2*
D14*
Y3318700D1*
X2143700Y3443700D2*
D15*
X2112598D1*
X2022046Y3353149D1*
X1743700Y3143700D2*
D14*
Y3193700D1*
X2023129Y3131200D2*
Y3164271D1*
X2018700Y3168700D1*
X1781200Y2838385D2*
X1850885D1*
X1856200Y2843700D1*
X2009546Y3043109D2*
X1955609D1*
X1943700Y3031200D1*
X1793700Y3353149D2*
D16*
X2022046D1*
X1781200Y2915157D2*
D14*
X1865157D1*
X2009546Y2889566D2*
X2077066D1*
X2093700Y2906200D1*
Y3093700D1*
X2143700Y3143700D1*
X1781200Y3068700D2*
D17*
X1895628D1*
X2009546D1*
X1793700Y3262598D2*
D16*
X1799802D1*
X1853936Y3208464D1*
Y3143700D1*
Y3131200D1*
X1956200D1*
Y3129272D1*
X1895628Y3068700D1*
X2009546Y2940747D2*
D14*
Y2943700D1*
X1906200D1*
X2009546Y2991928D2*
X2054428D1*
X2068700Y3006200D1*
Y3168700D1*
X2143700Y3243700D1*
X1781200Y2966338D2*
X1666338D1*
X1643700Y2943700D1*
X1793700Y3443700D2*
D16*
X1953936D1*
X2041436Y3531200D1*
X2143700Y3543700D2*
X2053936D1*
X2041436Y3531200D1*
X1781200Y3017519D2*
D14*
X1719881D1*
D27*
X1865157Y2915157D3*
X1906200Y2943700D3*
X1719881Y3017519D3*
X1858700Y3528700D3*
X1793700Y3318700D3*
X1743700Y3193700D3*
X2018700Y3168700D3*
X1856200Y2843700D3*
X1943700Y3031200D3*
D19*
X1931200Y3531200D3*
X2041436D3*
X1743700Y3143700D3*
X1853936D3*
D20*
X1956200Y3131200D3*
X2023129D3*
D21*
X1781200Y3068700D3*
Y3043109D3*
Y3017519D3*
Y2991928D3*
Y2966338D3*
Y2940747D3*
Y2915157D3*
Y2889566D3*
Y2863976D3*
Y2838385D3*
X2009554D3*
X2009546Y2863976D3*
Y2889566D3*
Y2915157D3*
Y2940747D3*
Y2966338D3*
Y2991928D3*
Y3017519D3*
Y3043109D3*
Y3068700D3*
D23*
X1793700Y3443700D3*
Y3353149D3*
Y3262598D3*
D24*
X2022046Y3353149D3*
D25*
X2143700Y3543700D3*
X1643700D3*
D26*
Y3443700D3*
Y3343700D3*
Y3243700D3*
Y3143700D3*
Y3043700D3*
Y2943700D3*
Y2843700D3*
X2143700Y3443700D3*
Y3343700D3*
Y3243700D3*
Y3143700D3*
Y3043700D3*
Y2943700D3*
Y2843700D3*
X2531200Y3531200D2*
D13*
X2458700D1*
Y3528700D1*
X2393700Y3353149D2*
D14*
Y3318700D1*
X2743700Y3443700D2*
D15*
X2712598D1*
X2622046Y3353149D1*
X2343700Y3143700D2*
D14*
Y3193700D1*
X2623129Y3131200D2*
Y3164271D1*
X2618700Y3168700D1*
X2381200Y2838385D2*
X2450885D1*
X2456200Y2843700D1*
X2609546Y3043109D2*
X2555609D1*
X2543700Y3031200D1*
X2393700Y3353149D2*
D16*
X2622046D1*
X2381200Y2915157D2*
D14*
X2465157D1*
X2609546Y2889566D2*
X2677066D1*
X2693700Y2906200D1*
Y3093700D1*
X2743700Y3143700D1*
X2381200Y3068700D2*
D17*
X2495628D1*
X2609546D1*
X2393700Y3262598D2*
D16*
X2399802D1*
X2453936Y3208464D1*
Y3143700D1*
Y3131200D1*
X2556200D1*
Y3129272D1*
X2495628Y3068700D1*
X2609546Y2940747D2*
D14*
Y2943700D1*
X2506200D1*
X2609546Y2991928D2*
X2654428D1*
X2668700Y3006200D1*
Y3168700D1*
X2743700Y3243700D1*
X2381200Y2966338D2*
X2266338D1*
X2243700Y2943700D1*
X2393700Y3443700D2*
D16*
X2553936D1*
X2641436Y3531200D1*
X2743700Y3543700D2*
X2653936D1*
X2641436Y3531200D1*
X2381200Y3017519D2*
D14*
X2319881D1*
D27*
X2465157Y2915157D3*
X2506200Y2943700D3*
X2319881Y3017519D3*
X2458700Y3528700D3*
X2393700Y3318700D3*
X2343700Y3193700D3*
X2618700Y3168700D3*
X2456200Y2843700D3*
X2543700Y3031200D3*
D19*
X2531200Y3531200D3*
X2641436D3*
X2343700Y3143700D3*
X2453936D3*
D20*
X2556200Y3131200D3*
X2623129D3*
D21*
X2381200Y3068700D3*
Y3043109D3*
Y3017519D3*
Y2991928D3*
Y2966338D3*
Y2940747D3*
Y2915157D3*
Y2889566D3*
Y2863976D3*
Y2838385D3*
X2609554D3*
X2609546Y2863976D3*
Y2889566D3*
Y2915157D3*
Y2940747D3*
Y2966338D3*
Y2991928D3*
Y3017519D3*
Y3043109D3*
Y3068700D3*
D23*
X2393700Y3443700D3*
Y3353149D3*
Y3262598D3*
D24*
X2622046Y3353149D3*
D25*
X2743700Y3543700D3*
X2243700D3*
D26*
Y3443700D3*
Y3343700D3*
Y3243700D3*
Y3143700D3*
Y3043700D3*
Y2943700D3*
Y2843700D3*
X2743700Y3443700D3*
Y3343700D3*
Y3243700D3*
Y3143700D3*
Y3043700D3*
Y2943700D3*
Y2843700D3*
X3131200Y3531200D2*
D13*
X3058700D1*
Y3528700D1*
X2993700Y3353149D2*
D14*
Y3318700D1*
X3343700Y3443700D2*
D15*
X3312598D1*
X3222046Y3353149D1*
X2943700Y3143700D2*
D14*
Y3193700D1*
X3223129Y3131200D2*
Y3164271D1*
X3218700Y3168700D1*
X2981200Y2838385D2*
X3050885D1*
X3056200Y2843700D1*
X3209546Y3043109D2*
X3155609D1*
X3143700Y3031200D1*
X2993700Y3353149D2*
D16*
X3222046D1*
X2981200Y2915157D2*
D14*
X3065157D1*
X3209546Y2889566D2*
X3277066D1*
X3293700Y2906200D1*
Y3093700D1*
X3343700Y3143700D1*
X2981200Y3068700D2*
D17*
X3095628D1*
X3209546D1*
X2993700Y3262598D2*
D16*
X2999802D1*
X3053936Y3208464D1*
Y3143700D1*
Y3131200D1*
X3156200D1*
Y3129272D1*
X3095628Y3068700D1*
X3209546Y2940747D2*
D14*
Y2943700D1*
X3106200D1*
X3209546Y2991928D2*
X3254428D1*
X3268700Y3006200D1*
Y3168700D1*
X3343700Y3243700D1*
X2981200Y2966338D2*
X2866338D1*
X2843700Y2943700D1*
X2993700Y3443700D2*
D16*
X3153936D1*
X3241436Y3531200D1*
X3343700Y3543700D2*
X3253936D1*
X3241436Y3531200D1*
X2981200Y3017519D2*
D14*
X2919881D1*
D27*
X3065157Y2915157D3*
X3106200Y2943700D3*
X2919881Y3017519D3*
X3058700Y3528700D3*
X2993700Y3318700D3*
X2943700Y3193700D3*
X3218700Y3168700D3*
X3056200Y2843700D3*
X3143700Y3031200D3*
D19*
X3131200Y3531200D3*
X3241436D3*
X2943700Y3143700D3*
X3053936D3*
D20*
X3156200Y3131200D3*
X3223129D3*
D21*
X2981200Y3068700D3*
Y3043109D3*
Y3017519D3*
Y2991928D3*
Y2966338D3*
Y2940747D3*
Y2915157D3*
Y2889566D3*
Y2863976D3*
Y2838385D3*
X3209554D3*
X3209546Y2863976D3*
Y2889566D3*
Y2915157D3*
Y2940747D3*
Y2966338D3*
Y2991928D3*
Y3017519D3*
Y3043109D3*
Y3068700D3*
D23*
X2993700Y3443700D3*
Y3353149D3*
Y3262598D3*
D24*
X3222046Y3353149D3*
D25*
X3343700Y3543700D3*
X2843700D3*
D26*
Y3443700D3*
Y3343700D3*
Y3243700D3*
Y3143700D3*
Y3043700D3*
Y2943700D3*
Y2843700D3*
X3343700Y3443700D3*
Y3343700D3*
Y3243700D3*
Y3143700D3*
Y3043700D3*
Y2943700D3*
Y2843700D3*
X731200Y4331200D2*
D13*
X658700D1*
Y4328700D1*
X593700Y4153149D2*
D14*
Y4118700D1*
X943700Y4243700D2*
D15*
X912598D1*
X822046Y4153149D1*
X543700Y3943700D2*
D14*
Y3993700D1*
X823129Y3931200D2*
Y3964271D1*
X818700Y3968700D1*
X581200Y3638385D2*
X650885D1*
X656200Y3643700D1*
X809546Y3843109D2*
X755609D1*
X743700Y3831200D1*
X593700Y4153149D2*
D16*
X822046D1*
X581200Y3715157D2*
D14*
X665157D1*
X809546Y3689566D2*
X877066D1*
X893700Y3706200D1*
Y3893700D1*
X943700Y3943700D1*
X581200Y3868700D2*
D17*
X695628D1*
X809546D1*
X593700Y4062598D2*
D16*
X599802D1*
X653936Y4008464D1*
Y3943700D1*
Y3931200D1*
X756200D1*
Y3929272D1*
X695628Y3868700D1*
X809546Y3740747D2*
D14*
Y3743700D1*
X706200D1*
X809546Y3791928D2*
X854428D1*
X868700Y3806200D1*
Y3968700D1*
X943700Y4043700D1*
X581200Y3766338D2*
X466338D1*
X443700Y3743700D1*
X593700Y4243700D2*
D16*
X753936D1*
X841436Y4331200D1*
X943700Y4343700D2*
X853936D1*
X841436Y4331200D1*
X581200Y3817519D2*
D14*
X519881D1*
D27*
X665157Y3715157D3*
X706200Y3743700D3*
X519881Y3817519D3*
X658700Y4328700D3*
X593700Y4118700D3*
X543700Y3993700D3*
X818700Y3968700D3*
X656200Y3643700D3*
X743700Y3831200D3*
D19*
X731200Y4331200D3*
X841436D3*
X543700Y3943700D3*
X653936D3*
D20*
X756200Y3931200D3*
X823129D3*
D21*
X581200Y3868700D3*
Y3843109D3*
Y3817519D3*
Y3791928D3*
Y3766338D3*
Y3740747D3*
Y3715157D3*
Y3689566D3*
Y3663976D3*
Y3638385D3*
X809554D3*
X809546Y3663976D3*
Y3689566D3*
Y3715157D3*
Y3740747D3*
Y3766338D3*
Y3791928D3*
Y3817519D3*
Y3843109D3*
Y3868700D3*
D23*
X593700Y4243700D3*
Y4153149D3*
Y4062598D3*
D24*
X822046Y4153149D3*
D25*
X943700Y4343700D3*
X443700D3*
D26*
Y4243700D3*
Y4143700D3*
Y4043700D3*
Y3943700D3*
Y3843700D3*
Y3743700D3*
Y3643700D3*
X943700Y4243700D3*
Y4143700D3*
Y4043700D3*
Y3943700D3*
Y3843700D3*
Y3743700D3*
Y3643700D3*
X1331200Y4331200D2*
D13*
X1258700D1*
Y4328700D1*
X1193700Y4153149D2*
D14*
Y4118700D1*
X1543700Y4243700D2*
D15*
X1512598D1*
X1422046Y4153149D1*
X1143700Y3943700D2*
D14*
Y3993700D1*
X1423129Y3931200D2*
Y3964271D1*
X1418700Y3968700D1*
X1181200Y3638385D2*
X1250885D1*
X1256200Y3643700D1*
X1409546Y3843109D2*
X1355609D1*
X1343700Y3831200D1*
X1193700Y4153149D2*
D16*
X1422046D1*
X1181200Y3715157D2*
D14*
X1265157D1*
X1409546Y3689566D2*
X1477066D1*
X1493700Y3706200D1*
Y3893700D1*
X1543700Y3943700D1*
X1181200Y3868700D2*
D17*
X1295628D1*
X1409546D1*
X1193700Y4062598D2*
D16*
X1199802D1*
X1253936Y4008464D1*
Y3943700D1*
Y3931200D1*
X1356200D1*
Y3929272D1*
X1295628Y3868700D1*
X1409546Y3740747D2*
D14*
Y3743700D1*
X1306200D1*
X1409546Y3791928D2*
X1454428D1*
X1468700Y3806200D1*
Y3968700D1*
X1543700Y4043700D1*
X1181200Y3766338D2*
X1066338D1*
X1043700Y3743700D1*
X1193700Y4243700D2*
D16*
X1353936D1*
X1441436Y4331200D1*
X1543700Y4343700D2*
X1453936D1*
X1441436Y4331200D1*
X1181200Y3817519D2*
D14*
X1119881D1*
D27*
X1265157Y3715157D3*
X1306200Y3743700D3*
X1119881Y3817519D3*
X1258700Y4328700D3*
X1193700Y4118700D3*
X1143700Y3993700D3*
X1418700Y3968700D3*
X1256200Y3643700D3*
X1343700Y3831200D3*
D19*
X1331200Y4331200D3*
X1441436D3*
X1143700Y3943700D3*
X1253936D3*
D20*
X1356200Y3931200D3*
X1423129D3*
D21*
X1181200Y3868700D3*
Y3843109D3*
Y3817519D3*
Y3791928D3*
Y3766338D3*
Y3740747D3*
Y3715157D3*
Y3689566D3*
Y3663976D3*
Y3638385D3*
X1409554D3*
X1409546Y3663976D3*
Y3689566D3*
Y3715157D3*
Y3740747D3*
Y3766338D3*
Y3791928D3*
Y3817519D3*
Y3843109D3*
Y3868700D3*
D23*
X1193700Y4243700D3*
Y4153149D3*
Y4062598D3*
D24*
X1422046Y4153149D3*
D25*
X1543700Y4343700D3*
X1043700D3*
D26*
Y4243700D3*
Y4143700D3*
Y4043700D3*
Y3943700D3*
Y3843700D3*
Y3743700D3*
Y3643700D3*
X1543700Y4243700D3*
Y4143700D3*
Y4043700D3*
Y3943700D3*
Y3843700D3*
Y3743700D3*
Y3643700D3*
X1931200Y4331200D2*
D13*
X1858700D1*
Y4328700D1*
X1793700Y4153149D2*
D14*
Y4118700D1*
X2143700Y4243700D2*
D15*
X2112598D1*
X2022046Y4153149D1*
X1743700Y3943700D2*
D14*
Y3993700D1*
X2023129Y3931200D2*
Y3964271D1*
X2018700Y3968700D1*
X1781200Y3638385D2*
X1850885D1*
X1856200Y3643700D1*
X2009546Y3843109D2*
X1955609D1*
X1943700Y3831200D1*
X1793700Y4153149D2*
D16*
X2022046D1*
X1781200Y3715157D2*
D14*
X1865157D1*
X2009546Y3689566D2*
X2077066D1*
X2093700Y3706200D1*
Y3893700D1*
X2143700Y3943700D1*
X1781200Y3868700D2*
D17*
X1895628D1*
X2009546D1*
X1793700Y4062598D2*
D16*
X1799802D1*
X1853936Y4008464D1*
Y3943700D1*
Y3931200D1*
X1956200D1*
Y3929272D1*
X1895628Y3868700D1*
X2009546Y3740747D2*
D14*
Y3743700D1*
X1906200D1*
X2009546Y3791928D2*
X2054428D1*
X2068700Y3806200D1*
Y3968700D1*
X2143700Y4043700D1*
X1781200Y3766338D2*
X1666338D1*
X1643700Y3743700D1*
X1793700Y4243700D2*
D16*
X1953936D1*
X2041436Y4331200D1*
X2143700Y4343700D2*
X2053936D1*
X2041436Y4331200D1*
X1781200Y3817519D2*
D14*
X1719881D1*
D27*
X1865157Y3715157D3*
X1906200Y3743700D3*
X1719881Y3817519D3*
X1858700Y4328700D3*
X1793700Y4118700D3*
X1743700Y3993700D3*
X2018700Y3968700D3*
X1856200Y3643700D3*
X1943700Y3831200D3*
D19*
X1931200Y4331200D3*
X2041436D3*
X1743700Y3943700D3*
X1853936D3*
D20*
X1956200Y3931200D3*
X2023129D3*
D21*
X1781200Y3868700D3*
Y3843109D3*
Y3817519D3*
Y3791928D3*
Y3766338D3*
Y3740747D3*
Y3715157D3*
Y3689566D3*
Y3663976D3*
Y3638385D3*
X2009554D3*
X2009546Y3663976D3*
Y3689566D3*
Y3715157D3*
Y3740747D3*
Y3766338D3*
Y3791928D3*
Y3817519D3*
Y3843109D3*
Y3868700D3*
D23*
X1793700Y4243700D3*
Y4153149D3*
Y4062598D3*
D24*
X2022046Y4153149D3*
D25*
X2143700Y4343700D3*
X1643700D3*
D26*
Y4243700D3*
Y4143700D3*
Y4043700D3*
Y3943700D3*
Y3843700D3*
Y3743700D3*
Y3643700D3*
X2143700Y4243700D3*
Y4143700D3*
Y4043700D3*
Y3943700D3*
Y3843700D3*
Y3743700D3*
Y3643700D3*
X2531200Y4331200D2*
D13*
X2458700D1*
Y4328700D1*
X2393700Y4153149D2*
D14*
Y4118700D1*
X2743700Y4243700D2*
D15*
X2712598D1*
X2622046Y4153149D1*
X2343700Y3943700D2*
D14*
Y3993700D1*
X2623129Y3931200D2*
Y3964271D1*
X2618700Y3968700D1*
X2381200Y3638385D2*
X2450885D1*
X2456200Y3643700D1*
X2609546Y3843109D2*
X2555609D1*
X2543700Y3831200D1*
X2393700Y4153149D2*
D16*
X2622046D1*
X2381200Y3715157D2*
D14*
X2465157D1*
X2609546Y3689566D2*
X2677066D1*
X2693700Y3706200D1*
Y3893700D1*
X2743700Y3943700D1*
X2381200Y3868700D2*
D17*
X2495628D1*
X2609546D1*
X2393700Y4062598D2*
D16*
X2399802D1*
X2453936Y4008464D1*
Y3943700D1*
Y3931200D1*
X2556200D1*
Y3929272D1*
X2495628Y3868700D1*
X2609546Y3740747D2*
D14*
Y3743700D1*
X2506200D1*
X2609546Y3791928D2*
X2654428D1*
X2668700Y3806200D1*
Y3968700D1*
X2743700Y4043700D1*
X2381200Y3766338D2*
X2266338D1*
X2243700Y3743700D1*
X2393700Y4243700D2*
D16*
X2553936D1*
X2641436Y4331200D1*
X2743700Y4343700D2*
X2653936D1*
X2641436Y4331200D1*
X2381200Y3817519D2*
D14*
X2319881D1*
D27*
X2465157Y3715157D3*
X2506200Y3743700D3*
X2319881Y3817519D3*
X2458700Y4328700D3*
X2393700Y4118700D3*
X2343700Y3993700D3*
X2618700Y3968700D3*
X2456200Y3643700D3*
X2543700Y3831200D3*
D19*
X2531200Y4331200D3*
X2641436D3*
X2343700Y3943700D3*
X2453936D3*
D20*
X2556200Y3931200D3*
X2623129D3*
D21*
X2381200Y3868700D3*
Y3843109D3*
Y3817519D3*
Y3791928D3*
Y3766338D3*
Y3740747D3*
Y3715157D3*
Y3689566D3*
Y3663976D3*
Y3638385D3*
X2609554D3*
X2609546Y3663976D3*
Y3689566D3*
Y3715157D3*
Y3740747D3*
Y3766338D3*
Y3791928D3*
Y3817519D3*
Y3843109D3*
Y3868700D3*
D23*
X2393700Y4243700D3*
Y4153149D3*
Y4062598D3*
D24*
X2622046Y4153149D3*
D25*
X2743700Y4343700D3*
X2243700D3*
D26*
Y4243700D3*
Y4143700D3*
Y4043700D3*
Y3943700D3*
Y3843700D3*
Y3743700D3*
Y3643700D3*
X2743700Y4243700D3*
Y4143700D3*
Y4043700D3*
Y3943700D3*
Y3843700D3*
Y3743700D3*
Y3643700D3*
X3131200Y4331200D2*
D13*
X3058700D1*
Y4328700D1*
X2993700Y4153149D2*
D14*
Y4118700D1*
X3343700Y4243700D2*
D15*
X3312598D1*
X3222046Y4153149D1*
X2943700Y3943700D2*
D14*
Y3993700D1*
X3223129Y3931200D2*
Y3964271D1*
X3218700Y3968700D1*
X2981200Y3638385D2*
X3050885D1*
X3056200Y3643700D1*
X3209546Y3843109D2*
X3155609D1*
X3143700Y3831200D1*
X2993700Y4153149D2*
D16*
X3222046D1*
X2981200Y3715157D2*
D14*
X3065157D1*
X3209546Y3689566D2*
X3277066D1*
X3293700Y3706200D1*
Y3893700D1*
X3343700Y3943700D1*
X2981200Y3868700D2*
D17*
X3095628D1*
X3209546D1*
X2993700Y4062598D2*
D16*
X2999802D1*
X3053936Y4008464D1*
Y3943700D1*
Y3931200D1*
X3156200D1*
Y3929272D1*
X3095628Y3868700D1*
X3209546Y3740747D2*
D14*
Y3743700D1*
X3106200D1*
X3209546Y3791928D2*
X3254428D1*
X3268700Y3806200D1*
Y3968700D1*
X3343700Y4043700D1*
X2981200Y3766338D2*
X2866338D1*
X2843700Y3743700D1*
X2993700Y4243700D2*
D16*
X3153936D1*
X3241436Y4331200D1*
X3343700Y4343700D2*
X3253936D1*
X3241436Y4331200D1*
X2981200Y3817519D2*
D14*
X2919881D1*
D27*
X3065157Y3715157D3*
X3106200Y3743700D3*
X2919881Y3817519D3*
X3058700Y4328700D3*
X2993700Y4118700D3*
X2943700Y3993700D3*
X3218700Y3968700D3*
X3056200Y3643700D3*
X3143700Y3831200D3*
D19*
X3131200Y4331200D3*
X3241436D3*
X2943700Y3943700D3*
X3053936D3*
D20*
X3156200Y3931200D3*
X3223129D3*
D21*
X2981200Y3868700D3*
Y3843109D3*
Y3817519D3*
Y3791928D3*
Y3766338D3*
Y3740747D3*
Y3715157D3*
Y3689566D3*
Y3663976D3*
Y3638385D3*
X3209554D3*
X3209546Y3663976D3*
Y3689566D3*
Y3715157D3*
Y3740747D3*
Y3766338D3*
Y3791928D3*
Y3817519D3*
Y3843109D3*
Y3868700D3*
D23*
X2993700Y4243700D3*
Y4153149D3*
Y4062598D3*
D24*
X3222046Y4153149D3*
D25*
X3343700Y4343700D3*
X2843700D3*
D26*
Y4243700D3*
Y4143700D3*
Y4043700D3*
Y3943700D3*
Y3843700D3*
Y3743700D3*
Y3643700D3*
X3343700Y4243700D3*
Y4143700D3*
Y4043700D3*
Y3943700D3*
Y3843700D3*
Y3743700D3*
Y3643700D3*
M02*
