G04 DipTrace 3.3.1.3*
G04 TopPaste.gbr*
%MOIN*%
G04 #@! TF.FileFunction,Paste,Top*
G04 #@! TF.Part,Single*
%ADD38R,0.076766X0.120073*%
%ADD40R,0.076766X0.029522*%
%ADD42R,0.062986X0.007868*%
%ADD44R,0.035427X0.03149*%
%ADD46R,0.055112X0.062986*%
%FSLAX26Y26*%
G04*
G70*
G90*
G75*
G01*
G04 TopPaste*
%LPD*%
D46*
X731200Y1131200D3*
X841436D3*
X543700Y743700D3*
X653936D3*
D44*
X756200Y731200D3*
X823129D3*
D42*
X581200Y668700D3*
Y643109D3*
Y617519D3*
Y591928D3*
Y566338D3*
Y540747D3*
Y515157D3*
Y489566D3*
Y463976D3*
Y438385D3*
X809554D3*
X809546Y463976D3*
Y489566D3*
Y515157D3*
Y540747D3*
Y566338D3*
Y591928D3*
Y617519D3*
Y643109D3*
Y668700D3*
D40*
X593700Y1043700D3*
Y953149D3*
Y862598D3*
D38*
X822046Y953149D3*
D46*
X1331200Y1131200D3*
X1441436D3*
X1143700Y743700D3*
X1253936D3*
D44*
X1356200Y731200D3*
X1423129D3*
D42*
X1181200Y668700D3*
Y643109D3*
Y617519D3*
Y591928D3*
Y566338D3*
Y540747D3*
Y515157D3*
Y489566D3*
Y463976D3*
Y438385D3*
X1409554D3*
X1409546Y463976D3*
Y489566D3*
Y515157D3*
Y540747D3*
Y566338D3*
Y591928D3*
Y617519D3*
Y643109D3*
Y668700D3*
D40*
X1193700Y1043700D3*
Y953149D3*
Y862598D3*
D38*
X1422046Y953149D3*
D46*
X1931200Y1131200D3*
X2041436D3*
X1743700Y743700D3*
X1853936D3*
D44*
X1956200Y731200D3*
X2023129D3*
D42*
X1781200Y668700D3*
Y643109D3*
Y617519D3*
Y591928D3*
Y566338D3*
Y540747D3*
Y515157D3*
Y489566D3*
Y463976D3*
Y438385D3*
X2009554D3*
X2009546Y463976D3*
Y489566D3*
Y515157D3*
Y540747D3*
Y566338D3*
Y591928D3*
Y617519D3*
Y643109D3*
Y668700D3*
D40*
X1793700Y1043700D3*
Y953149D3*
Y862598D3*
D38*
X2022046Y953149D3*
D46*
X2531200Y1131200D3*
X2641436D3*
X2343700Y743700D3*
X2453936D3*
D44*
X2556200Y731200D3*
X2623129D3*
D42*
X2381200Y668700D3*
Y643109D3*
Y617519D3*
Y591928D3*
Y566338D3*
Y540747D3*
Y515157D3*
Y489566D3*
Y463976D3*
Y438385D3*
X2609554D3*
X2609546Y463976D3*
Y489566D3*
Y515157D3*
Y540747D3*
Y566338D3*
Y591928D3*
Y617519D3*
Y643109D3*
Y668700D3*
D40*
X2393700Y1043700D3*
Y953149D3*
Y862598D3*
D38*
X2622046Y953149D3*
D46*
X3131200Y1131200D3*
X3241436D3*
X2943700Y743700D3*
X3053936D3*
D44*
X3156200Y731200D3*
X3223129D3*
D42*
X2981200Y668700D3*
Y643109D3*
Y617519D3*
Y591928D3*
Y566338D3*
Y540747D3*
Y515157D3*
Y489566D3*
Y463976D3*
Y438385D3*
X3209554D3*
X3209546Y463976D3*
Y489566D3*
Y515157D3*
Y540747D3*
Y566338D3*
Y591928D3*
Y617519D3*
Y643109D3*
Y668700D3*
D40*
X2993700Y1043700D3*
Y953149D3*
Y862598D3*
D38*
X3222046Y953149D3*
D46*
X731200Y1931200D3*
X841436D3*
X543700Y1543700D3*
X653936D3*
D44*
X756200Y1531200D3*
X823129D3*
D42*
X581200Y1468700D3*
Y1443109D3*
Y1417519D3*
Y1391928D3*
Y1366338D3*
Y1340747D3*
Y1315157D3*
Y1289566D3*
Y1263976D3*
Y1238385D3*
X809554D3*
X809546Y1263976D3*
Y1289566D3*
Y1315157D3*
Y1340747D3*
Y1366338D3*
Y1391928D3*
Y1417519D3*
Y1443109D3*
Y1468700D3*
D40*
X593700Y1843700D3*
Y1753149D3*
Y1662598D3*
D38*
X822046Y1753149D3*
D46*
X1331200Y1931200D3*
X1441436D3*
X1143700Y1543700D3*
X1253936D3*
D44*
X1356200Y1531200D3*
X1423129D3*
D42*
X1181200Y1468700D3*
Y1443109D3*
Y1417519D3*
Y1391928D3*
Y1366338D3*
Y1340747D3*
Y1315157D3*
Y1289566D3*
Y1263976D3*
Y1238385D3*
X1409554D3*
X1409546Y1263976D3*
Y1289566D3*
Y1315157D3*
Y1340747D3*
Y1366338D3*
Y1391928D3*
Y1417519D3*
Y1443109D3*
Y1468700D3*
D40*
X1193700Y1843700D3*
Y1753149D3*
Y1662598D3*
D38*
X1422046Y1753149D3*
D46*
X1931200Y1931200D3*
X2041436D3*
X1743700Y1543700D3*
X1853936D3*
D44*
X1956200Y1531200D3*
X2023129D3*
D42*
X1781200Y1468700D3*
Y1443109D3*
Y1417519D3*
Y1391928D3*
Y1366338D3*
Y1340747D3*
Y1315157D3*
Y1289566D3*
Y1263976D3*
Y1238385D3*
X2009554D3*
X2009546Y1263976D3*
Y1289566D3*
Y1315157D3*
Y1340747D3*
Y1366338D3*
Y1391928D3*
Y1417519D3*
Y1443109D3*
Y1468700D3*
D40*
X1793700Y1843700D3*
Y1753149D3*
Y1662598D3*
D38*
X2022046Y1753149D3*
D46*
X2531200Y1931200D3*
X2641436D3*
X2343700Y1543700D3*
X2453936D3*
D44*
X2556200Y1531200D3*
X2623129D3*
D42*
X2381200Y1468700D3*
Y1443109D3*
Y1417519D3*
Y1391928D3*
Y1366338D3*
Y1340747D3*
Y1315157D3*
Y1289566D3*
Y1263976D3*
Y1238385D3*
X2609554D3*
X2609546Y1263976D3*
Y1289566D3*
Y1315157D3*
Y1340747D3*
Y1366338D3*
Y1391928D3*
Y1417519D3*
Y1443109D3*
Y1468700D3*
D40*
X2393700Y1843700D3*
Y1753149D3*
Y1662598D3*
D38*
X2622046Y1753149D3*
D46*
X3131200Y1931200D3*
X3241436D3*
X2943700Y1543700D3*
X3053936D3*
D44*
X3156200Y1531200D3*
X3223129D3*
D42*
X2981200Y1468700D3*
Y1443109D3*
Y1417519D3*
Y1391928D3*
Y1366338D3*
Y1340747D3*
Y1315157D3*
Y1289566D3*
Y1263976D3*
Y1238385D3*
X3209554D3*
X3209546Y1263976D3*
Y1289566D3*
Y1315157D3*
Y1340747D3*
Y1366338D3*
Y1391928D3*
Y1417519D3*
Y1443109D3*
Y1468700D3*
D40*
X2993700Y1843700D3*
Y1753149D3*
Y1662598D3*
D38*
X3222046Y1753149D3*
D46*
X731200Y2731200D3*
X841436D3*
X543700Y2343700D3*
X653936D3*
D44*
X756200Y2331200D3*
X823129D3*
D42*
X581200Y2268700D3*
Y2243109D3*
Y2217519D3*
Y2191928D3*
Y2166338D3*
Y2140747D3*
Y2115157D3*
Y2089566D3*
Y2063976D3*
Y2038385D3*
X809554D3*
X809546Y2063976D3*
Y2089566D3*
Y2115157D3*
Y2140747D3*
Y2166338D3*
Y2191928D3*
Y2217519D3*
Y2243109D3*
Y2268700D3*
D40*
X593700Y2643700D3*
Y2553149D3*
Y2462598D3*
D38*
X822046Y2553149D3*
D46*
X1331200Y2731200D3*
X1441436D3*
X1143700Y2343700D3*
X1253936D3*
D44*
X1356200Y2331200D3*
X1423129D3*
D42*
X1181200Y2268700D3*
Y2243109D3*
Y2217519D3*
Y2191928D3*
Y2166338D3*
Y2140747D3*
Y2115157D3*
Y2089566D3*
Y2063976D3*
Y2038385D3*
X1409554D3*
X1409546Y2063976D3*
Y2089566D3*
Y2115157D3*
Y2140747D3*
Y2166338D3*
Y2191928D3*
Y2217519D3*
Y2243109D3*
Y2268700D3*
D40*
X1193700Y2643700D3*
Y2553149D3*
Y2462598D3*
D38*
X1422046Y2553149D3*
D46*
X1931200Y2731200D3*
X2041436D3*
X1743700Y2343700D3*
X1853936D3*
D44*
X1956200Y2331200D3*
X2023129D3*
D42*
X1781200Y2268700D3*
Y2243109D3*
Y2217519D3*
Y2191928D3*
Y2166338D3*
Y2140747D3*
Y2115157D3*
Y2089566D3*
Y2063976D3*
Y2038385D3*
X2009554D3*
X2009546Y2063976D3*
Y2089566D3*
Y2115157D3*
Y2140747D3*
Y2166338D3*
Y2191928D3*
Y2217519D3*
Y2243109D3*
Y2268700D3*
D40*
X1793700Y2643700D3*
Y2553149D3*
Y2462598D3*
D38*
X2022046Y2553149D3*
D46*
X2531200Y2731200D3*
X2641436D3*
X2343700Y2343700D3*
X2453936D3*
D44*
X2556200Y2331200D3*
X2623129D3*
D42*
X2381200Y2268700D3*
Y2243109D3*
Y2217519D3*
Y2191928D3*
Y2166338D3*
Y2140747D3*
Y2115157D3*
Y2089566D3*
Y2063976D3*
Y2038385D3*
X2609554D3*
X2609546Y2063976D3*
Y2089566D3*
Y2115157D3*
Y2140747D3*
Y2166338D3*
Y2191928D3*
Y2217519D3*
Y2243109D3*
Y2268700D3*
D40*
X2393700Y2643700D3*
Y2553149D3*
Y2462598D3*
D38*
X2622046Y2553149D3*
D46*
X3131200Y2731200D3*
X3241436D3*
X2943700Y2343700D3*
X3053936D3*
D44*
X3156200Y2331200D3*
X3223129D3*
D42*
X2981200Y2268700D3*
Y2243109D3*
Y2217519D3*
Y2191928D3*
Y2166338D3*
Y2140747D3*
Y2115157D3*
Y2089566D3*
Y2063976D3*
Y2038385D3*
X3209554D3*
X3209546Y2063976D3*
Y2089566D3*
Y2115157D3*
Y2140747D3*
Y2166338D3*
Y2191928D3*
Y2217519D3*
Y2243109D3*
Y2268700D3*
D40*
X2993700Y2643700D3*
Y2553149D3*
Y2462598D3*
D38*
X3222046Y2553149D3*
D46*
X731200Y3531200D3*
X841436D3*
X543700Y3143700D3*
X653936D3*
D44*
X756200Y3131200D3*
X823129D3*
D42*
X581200Y3068700D3*
Y3043109D3*
Y3017519D3*
Y2991928D3*
Y2966338D3*
Y2940747D3*
Y2915157D3*
Y2889566D3*
Y2863976D3*
Y2838385D3*
X809554D3*
X809546Y2863976D3*
Y2889566D3*
Y2915157D3*
Y2940747D3*
Y2966338D3*
Y2991928D3*
Y3017519D3*
Y3043109D3*
Y3068700D3*
D40*
X593700Y3443700D3*
Y3353149D3*
Y3262598D3*
D38*
X822046Y3353149D3*
D46*
X1331200Y3531200D3*
X1441436D3*
X1143700Y3143700D3*
X1253936D3*
D44*
X1356200Y3131200D3*
X1423129D3*
D42*
X1181200Y3068700D3*
Y3043109D3*
Y3017519D3*
Y2991928D3*
Y2966338D3*
Y2940747D3*
Y2915157D3*
Y2889566D3*
Y2863976D3*
Y2838385D3*
X1409554D3*
X1409546Y2863976D3*
Y2889566D3*
Y2915157D3*
Y2940747D3*
Y2966338D3*
Y2991928D3*
Y3017519D3*
Y3043109D3*
Y3068700D3*
D40*
X1193700Y3443700D3*
Y3353149D3*
Y3262598D3*
D38*
X1422046Y3353149D3*
D46*
X1931200Y3531200D3*
X2041436D3*
X1743700Y3143700D3*
X1853936D3*
D44*
X1956200Y3131200D3*
X2023129D3*
D42*
X1781200Y3068700D3*
Y3043109D3*
Y3017519D3*
Y2991928D3*
Y2966338D3*
Y2940747D3*
Y2915157D3*
Y2889566D3*
Y2863976D3*
Y2838385D3*
X2009554D3*
X2009546Y2863976D3*
Y2889566D3*
Y2915157D3*
Y2940747D3*
Y2966338D3*
Y2991928D3*
Y3017519D3*
Y3043109D3*
Y3068700D3*
D40*
X1793700Y3443700D3*
Y3353149D3*
Y3262598D3*
D38*
X2022046Y3353149D3*
D46*
X2531200Y3531200D3*
X2641436D3*
X2343700Y3143700D3*
X2453936D3*
D44*
X2556200Y3131200D3*
X2623129D3*
D42*
X2381200Y3068700D3*
Y3043109D3*
Y3017519D3*
Y2991928D3*
Y2966338D3*
Y2940747D3*
Y2915157D3*
Y2889566D3*
Y2863976D3*
Y2838385D3*
X2609554D3*
X2609546Y2863976D3*
Y2889566D3*
Y2915157D3*
Y2940747D3*
Y2966338D3*
Y2991928D3*
Y3017519D3*
Y3043109D3*
Y3068700D3*
D40*
X2393700Y3443700D3*
Y3353149D3*
Y3262598D3*
D38*
X2622046Y3353149D3*
D46*
X3131200Y3531200D3*
X3241436D3*
X2943700Y3143700D3*
X3053936D3*
D44*
X3156200Y3131200D3*
X3223129D3*
D42*
X2981200Y3068700D3*
Y3043109D3*
Y3017519D3*
Y2991928D3*
Y2966338D3*
Y2940747D3*
Y2915157D3*
Y2889566D3*
Y2863976D3*
Y2838385D3*
X3209554D3*
X3209546Y2863976D3*
Y2889566D3*
Y2915157D3*
Y2940747D3*
Y2966338D3*
Y2991928D3*
Y3017519D3*
Y3043109D3*
Y3068700D3*
D40*
X2993700Y3443700D3*
Y3353149D3*
Y3262598D3*
D38*
X3222046Y3353149D3*
D46*
X731200Y4331200D3*
X841436D3*
X543700Y3943700D3*
X653936D3*
D44*
X756200Y3931200D3*
X823129D3*
D42*
X581200Y3868700D3*
Y3843109D3*
Y3817519D3*
Y3791928D3*
Y3766338D3*
Y3740747D3*
Y3715157D3*
Y3689566D3*
Y3663976D3*
Y3638385D3*
X809554D3*
X809546Y3663976D3*
Y3689566D3*
Y3715157D3*
Y3740747D3*
Y3766338D3*
Y3791928D3*
Y3817519D3*
Y3843109D3*
Y3868700D3*
D40*
X593700Y4243700D3*
Y4153149D3*
Y4062598D3*
D38*
X822046Y4153149D3*
D46*
X1331200Y4331200D3*
X1441436D3*
X1143700Y3943700D3*
X1253936D3*
D44*
X1356200Y3931200D3*
X1423129D3*
D42*
X1181200Y3868700D3*
Y3843109D3*
Y3817519D3*
Y3791928D3*
Y3766338D3*
Y3740747D3*
Y3715157D3*
Y3689566D3*
Y3663976D3*
Y3638385D3*
X1409554D3*
X1409546Y3663976D3*
Y3689566D3*
Y3715157D3*
Y3740747D3*
Y3766338D3*
Y3791928D3*
Y3817519D3*
Y3843109D3*
Y3868700D3*
D40*
X1193700Y4243700D3*
Y4153149D3*
Y4062598D3*
D38*
X1422046Y4153149D3*
D46*
X1931200Y4331200D3*
X2041436D3*
X1743700Y3943700D3*
X1853936D3*
D44*
X1956200Y3931200D3*
X2023129D3*
D42*
X1781200Y3868700D3*
Y3843109D3*
Y3817519D3*
Y3791928D3*
Y3766338D3*
Y3740747D3*
Y3715157D3*
Y3689566D3*
Y3663976D3*
Y3638385D3*
X2009554D3*
X2009546Y3663976D3*
Y3689566D3*
Y3715157D3*
Y3740747D3*
Y3766338D3*
Y3791928D3*
Y3817519D3*
Y3843109D3*
Y3868700D3*
D40*
X1793700Y4243700D3*
Y4153149D3*
Y4062598D3*
D38*
X2022046Y4153149D3*
D46*
X2531200Y4331200D3*
X2641436D3*
X2343700Y3943700D3*
X2453936D3*
D44*
X2556200Y3931200D3*
X2623129D3*
D42*
X2381200Y3868700D3*
Y3843109D3*
Y3817519D3*
Y3791928D3*
Y3766338D3*
Y3740747D3*
Y3715157D3*
Y3689566D3*
Y3663976D3*
Y3638385D3*
X2609554D3*
X2609546Y3663976D3*
Y3689566D3*
Y3715157D3*
Y3740747D3*
Y3766338D3*
Y3791928D3*
Y3817519D3*
Y3843109D3*
Y3868700D3*
D40*
X2393700Y4243700D3*
Y4153149D3*
Y4062598D3*
D38*
X2622046Y4153149D3*
D46*
X3131200Y4331200D3*
X3241436D3*
X2943700Y3943700D3*
X3053936D3*
D44*
X3156200Y3931200D3*
X3223129D3*
D42*
X2981200Y3868700D3*
Y3843109D3*
Y3817519D3*
Y3791928D3*
Y3766338D3*
Y3740747D3*
Y3715157D3*
Y3689566D3*
Y3663976D3*
Y3638385D3*
X3209554D3*
X3209546Y3663976D3*
Y3689566D3*
Y3715157D3*
Y3740747D3*
Y3766338D3*
Y3791928D3*
Y3817519D3*
Y3843109D3*
Y3868700D3*
D40*
X2993700Y4243700D3*
Y4153149D3*
Y4062598D3*
D38*
X3222046Y4153149D3*
M02*
